<svg class="govuk-header__logotype dbt-header__logotype" fill="currentColor" height="35" width="97" xmlns="http://www.w3.org/2000/svg"><title>DBT</title><defs><clipPath id="a"><path d="M-24.91-58.08h147.15v69.55H-24.91Z"/></clipPath><clipPath id="b"><path d="M-25.47-57.75h147.15v69.54H-25.47Z"/></clipPath><clipPath id="c"><path d="M-25.5-58.17h147.14v69.55H-25.5Z"/></clipPath><clipPath id="d"><path d="M-24.92-57.68h147.14v69.54H-24.91Z"/></clipPath><clipPath id="e"><path d="M-25.48-57.36h147.14v69.54H-25.48Z"/></clipPath><clipPath id="f"><path d="M-24.93-57.26H122.2V12.3H-24.93Z"/></clipPath><clipPath id="g"><path d="M-25.97-57.4h147.15v69.54H-25.97Z"/></clipPath><clipPath id="h"><path d="M-25.51-56.98h147.15v69.54H-25.51Z"/></clipPath><clipPath id="i"><path d="M-25.99-57.02h147.15v69.55H-25.99Z"/></clipPath><clipPath id="j"><path d="M-26-57.77h147.14v69.55H-26Z"/></clipPath><clipPath id="k"><path d="M-13.24-55.34H133.9v69.55H-13.23Z"/></clipPath><clipPath id="l"><path d="M-10.84-58.59H136.3v69.54H-10.84Z"/></clipPath><clipPath id="m"><path d="M-12.24-57.3h147.15v69.55H-12.24Z"/></clipPath><clipPath id="n"><path d="M-11.85-55.96H135.3v69.54H-11.85Z"/></clipPath><clipPath id="o"><path d="M-11.29-58.15h147.15V11.4H-11.29Z"/></clipPath><clipPath id="p"><path d="M-7.95-54.59H139.2v69.54H-7.94Z"/></clipPath><clipPath id="q"><path d="M-10.8-56.07h147.15v69.54H-10.79Z"/></clipPath><clipPath id="r"><path d="M-11.05-43.8h147.14v69.54H-11.06Z"/></clipPath><clipPath id="s"><path d="M-12-55.64h147.14V13.9H-12Z"/></clipPath><clipPath id="t"><path d="M-12.79-58.32h147.15v69.55H-12.79Z"/></clipPath><clipPath id="u"><path d="M-13.24-60.16h147.15V9.38H-13.24Z"/></clipPath><clipPath id="v"><path d="M-14.87-58.02h147.14v69.55H-14.87Z"/></clipPath><clipPath id="w"><path d="M-15.24-59.82h147.15V9.73H-15.24Z"/></clipPath><clipPath id="x"><path d="M-20.76-54.74h147.14V14.8H-20.76Z"/></clipPath><clipPath id="y"><path d="M-28.48-57.17h147.15v69.54H-28.48Z"/></clipPath><clipPath id="z"><path d="M-26.87-57.08h147.15v69.54H-26.87Z"/></clipPath><clipPath id="A"><path d="M-23.67-51.62h147.15v69.54H-23.67Z"/></clipPath><clipPath id="B"><path d="M-28.88-51.98h147.15v69.55H-28.88Z"/></clipPath><clipPath id="C"><path d="M-21.98-55.74h147.15V13.8H-21.97Z"/></clipPath><clipPath id="D"><path d="M-33.44-55.3H113.7v69.55H-33.44Z"/></clipPath><clipPath id="E"><path d="M-35.36-44.29h147.15v69.54H-35.36Z"/></clipPath><clipPath id="F"><path d="M-36.5-53.67h147.16v69.54H-36.5Z"/></clipPath><clipPath id="G"><path d="M-36.94-56.46H110.2v69.54H-36.94Z"/></clipPath><clipPath id="H"><path d="M-28.45-54.85h147.14v69.54H-28.45Z"/></clipPath><clipPath id="I"><path d="M-33.44-57.21h147.15v69.54H-33.44Z"/></clipPath><clipPath id="J"><path d="M-32.27-59.8h147.15V9.75H-32.27Z"/></clipPath><clipPath id="K"><path d="M-33.8-58.63h147.15v69.54H-33.78Z"/></clipPath><clipPath id="L"><path d="M-22.47-67.84h147.15V1.7H-22.47Z"/></clipPath><clipPath id="M"><path d="M-22.74-67.84H124.4V1.7H-22.74Z"/></clipPath><clipPath id="N"><path d="M-21.95-67.58H125.2V1.96H-21.95Z"/></clipPath><clipPath id="O"><path d="M-22.69-69.06h147.15V.5H-22.69Z"/></clipPath><clipPath id="P"><path d="M-22.5-68.78h147.14V.76H-22.5Z"/></clipPath><clipPath id="Q"><path d="M-22.44-69H124.7V.56H-22.44Z"/></clipPath><clipPath id="R"><path d="M-22.74-69H124.4V.56H-22.73Z"/></clipPath><clipPath id="S"><path d="M-22.6-68.73h147.15V.81H-22.59Z"/></clipPath><clipPath id="T"><path d="M36 736.35h147.15v69.54H36Z"/></clipPath><clipPath id="U"><path d="M-19.17-66.63h147.14V2.91H-19.17Z"/></clipPath><clipPath id="V"><path d="M-26.82-65.62h147.14V3.92H-26.82Z"/></clipPath><clipPath id="W"><path d="M-25.49-62.31h147.15V7.23H-25.5Z"/></clipPath><clipPath id="X"><path d="M-19.67-62.74h147.15V6.81H-19.67Z"/></clipPath><clipPath id="Y"><path d="M-25.48-62.74h147.14V6.81H-25.48Z"/></clipPath><clipPath id="Z"><path d="M-25.82-62.72h147.15V6.83H-25.8Z"/></clipPath><clipPath id="aa"><path d="M-19.33-62.7h147.15V6.85H-19.33Z"/></clipPath><clipPath id="ab"><path d="M-20.66-65.43h147.14V4.11H-20.66Z"/></clipPath><clipPath id="ac"><path d="M-24.56-65.42H122.6V4.12H-24.56Z"/></clipPath><clipPath id="ad"><path d="M-19.37-63.8h147.15V5.76H-19.37Z"/></clipPath><clipPath id="ae"><path d="M-19.14-63.54h147.15V6H-19.14Z"/></clipPath><clipPath id="af"><path d="M-22.83-64.33h147.15V5.21H-22.83Z"/></clipPath><clipPath id="ag"><path d="M-22.59-64.55h147.15V4.99H-22.59Z"/></clipPath><clipPath id="ah"><path d="M-26.16-63.8h147.15V5.72H-26.16Z"/></clipPath><clipPath id="ai"><path d="M-25.93-63.56H121.2V6H-25.92Z"/></clipPath><clipPath id="aj"><path d="M-25.79-61.84h147.15V7.7H-25.78Z"/></clipPath><clipPath id="ak"><path d="M-25.07-61.7h147.15V7.86H-25.07Z"/></clipPath><clipPath id="al"><path d="M-12.08-64.5h147.14V5.04H-12.07Z"/></clipPath><clipPath id="am"><path d="M-12.17-64.51h147.14V5.03H-12.17Z"/></clipPath><clipPath id="an"><path d="M-11.92-64.39h147.14V5.16H-11.92Z"/></clipPath><clipPath id="ao"><path d="M-12.1-64.92h147.16V4.63H-12.1Z"/></clipPath><clipPath id="ap"><path d="M-12.04-64.81H135.1V4.73H-12.04Z"/></clipPath><clipPath id="aq"><path d="M-12.01-64.88h147.14V4.66H-12Z"/></clipPath><clipPath id="ar"><path d="M-12.11-64.9h147.14V4.64H-12.1Z"/></clipPath><clipPath id="as"><path d="M-12.06-64.91h147.15V4.63H-12.06Z"/></clipPath><clipPath id="at"><path d="M-12.03-64.23h147.15V5.32H-12.03Z"/></clipPath><clipPath id="au"><path d="M-11.94-64.1h147.15V5.45H-11.94Z"/></clipPath><clipPath id="av"><path d="M-12.15-63.79h147.14V5.75H-12.15Z"/></clipPath><clipPath id="aw"><path d="M-11.91-64.06h147.15V5.48H-11.91Z"/></clipPath><clipPath id="ax"><path d="M-13.57-63.88h147.15V5.66H-13.57Z"/></clipPath><clipPath id="ay"><path d="M-11.42-62.65h147.15V6.89H-11.42Z"/></clipPath><clipPath id="az"><path d="M-13.36-62.96H133.8V6.58H-13.36Z"/></clipPath><clipPath id="aA"><path d="M-13.01-63.06h147.14V6.5H-13Z"/></clipPath><clipPath id="aB"><path d="M-11.61-63.6h147.15V5.94H-11.61Z"/></clipPath><clipPath id="aC"><path d="M-12.9-63.8h147.14V5.73H-12.9Z"/></clipPath><clipPath id="aD"><path d="M-12.4-62.74h147.14V6.8H-12.4Z"/></clipPath><clipPath id="aE"><path d="M-13.47-63.03h147.15V6.5H-13.47Z"/></clipPath><clipPath id="aF"><path d="M-11.31-62.64h147.14V6.91H-11.32Z"/></clipPath><clipPath id="aG"><path d="M-13.5-63.4h147.14V6.14H-13.5Z"/></clipPath><clipPath id="aH"><path d="M-12.39-62.94h147.15V6.6H-12.39Z"/></clipPath><clipPath id="aI"><path d="M-18-60.77h147.14V8.77H-18.01Z"/></clipPath><clipPath id="aJ"><path d="M-18.43-58.98h147.15v69.54H-18.43Z"/></clipPath><clipPath id="aK"><path d="M-17.3-60.18h147.14V9.37H-17.3Z"/></clipPath><clipPath id="aL"><path d="M-18.75-58.43h147.14V11.1H-18.75Z"/></clipPath><clipPath id="aM"><path d="M-20-59.87h147.14V9.68H-20.01Z"/></clipPath><clipPath id="aN"><path d="M-16.7-57.88h147.14v69.54H-16.71Z"/></clipPath><clipPath id="aO"><path d="M-20.22-57.66h147.15v69.54H-20.22Z"/></clipPath><clipPath id="aP"><path d="M-18.52-56.68h147.15v69.54H-18.52Z"/></clipPath><clipPath id="aQ"><path d="M-18-58.5h147.14v69.55H-18Z"/></clipPath><clipPath id="aR"><path d="M-18.94-58.7H128.2v69.55H-18.94Z"/></clipPath><clipPath id="aS"><path d="M-18.34-58h147.15v69.55H-18.34Z"/></clipPath><clipPath id="aT"><path d="M-18.9-58.16h147.15V11.4H-18.9Z"/></clipPath><clipPath id="aU"><path d="M-16.25-58.67H130.9v69.55H-16.25Z"/></clipPath><clipPath id="aV"><path d="M-20.41-57.85h147.15V11.7H-20.41Z"/></clipPath><clipPath id="aW"><path d="M-18.84-56.52h147.15v69.55H-18.84Z"/></clipPath><clipPath id="aX"><path d="M-16.73-57.51h147.15v69.54H-16.73Z"/></clipPath><clipPath id="aY"><path d="M-32.95-63.23H114.2V6.31H-32.95Z"/></clipPath><clipPath id="aZ"><path d="M-33.59-63.77h147.15V5.77H-33.59Z"/></clipPath><clipPath id="ba"><path d="M-34.05-63.93h147.14V5.61H-34.06Z"/></clipPath><clipPath id="bb"><path d="M-33.27-63.81h147.15V5.73H-33.27Z"/></clipPath><clipPath id="bc"><path d="M36 736.35h147.15v69.54H36Z"/></clipPath><clipPath id="bd"><path d="M-18.8-40.46h147.15v69.54H-18.8Z"/></clipPath><clipPath id="be"><path d="M-28.07-39.82h147.15v69.54H-28.07Z"/></clipPath><clipPath id="bf"><path d="M-18.65-39.46H128.5v69.54H-18.65Z"/></clipPath><clipPath id="bg"><path d="M-29.5-40.64h147.14v69.55H-29.5Z"/></clipPath><clipPath id="bh"><path d="M-21.68-38.21h147.15v69.54H-21.68Z"/></clipPath><clipPath id="bi"><path d="M-27.24-40.77h147.15v69.54H-27.24Z"/></clipPath><clipPath id="bj"><path d="M-27.27-41.2h147.15v69.55H-27.26Z"/></clipPath><clipPath id="bk"><path d="M-28.54-42.55h147.15v69.54H-28.54Z"/></clipPath><clipPath id="bl"><path d="M-29.4-41.75h147.16V27.8H-29.4Z"/></clipPath><clipPath id="bm"><path d="M-27.03-41.62H120.1v69.55H-27.03Z"/></clipPath><clipPath id="bn"><path d="M-27.86-40.95h147.14V28.6H-27.86Z"/></clipPath><clipPath id="bo"><path d="M-28.29-42.25h147.15V27.3H-28.29Z"/></clipPath><clipPath id="bp"><path d="M-28.99-41.5h147.15v69.55H-28.99Z"/></clipPath><clipPath id="bq"><path d="M-22.34-40.14h147.15v69.55H-22.34Z"/></clipPath><clipPath id="br"><path d="M-20.52-40.1h147.15v69.54H-20.52Z"/></clipPath><clipPath id="bs"><path d="M-21.42-40.03h147.15V29.5H-21.42Z"/></clipPath><clipPath id="bt"><path d="M-20.38-40.7h147.14v69.54H-20.38Z"/></clipPath><clipPath id="bu"><path d="M-28.87-40.28h147.15v69.54H-28.87Z"/></clipPath><clipPath id="bv"><path d="M-29.43-44.01h147.15v69.54H-29.43Z"/></clipPath></defs><path d="M0 0c-.07.03.04.16.1.2a.99.99 0 0 0 .24.03S.28.13.27.05C.26-.03.07-.03 0 0" clip-path="url(#a)" transform="matrix(1.1077 0 0 -1.1077 18.8 12.8)"/><path d="M0 0c-.07.03.04.16.1.2a.99.99 0 0 0 .24.03.49.49 0 0 1-.07-.18C.27-.04.07-.03 0 0" clip-path="url(#b)" transform="matrix(1.1077 0 0 -1.1077 19.41 13.15)"/><path d="M0 0c-.07.03.04.16.1.2a.99.99 0 0 0 .24.03.49.49 0 0 1-.07-.18C.27-.04.07-.03 0 0" clip-path="url(#c)" transform="matrix(1.1077 0 0 -1.1077 19.45 12.7)"/><path d="M0 0c-.07.03.04.16.1.2a.95.95 0 0 0 .24.03S.28.13.27.05C.26-.03.07-.03 0 0" clip-path="url(#d)" transform="matrix(1.1077 0 0 -1.1077 18.8 13.23)"/><path d="M0 0c-.06.02.04.14.08.17S.3.2.3.2.24.12.24.04.05-.03 0 0" clip-path="url(#e)" transform="matrix(1.1077 0 0 -1.1077 19.43 13.6)"/><path d="M0 0c-.06.03.04.14.08.17A.82.82 0 0 0 .3.2.43.43 0 0 1 .23.04C.23-.03.06-.02 0 0" clip-path="url(#f)" transform="matrix(1.1077 0 0 -1.1077 18.82 13.7)"/><path d="M0 0c-.06.02.04.14.08.17S.3.2.3.2.24.12.24.04.05-.03 0 0" clip-path="url(#g)" transform="matrix(1.1077 0 0 -1.1077 19.96 13.54)"/><path d="M0 0c-.06.02.04.14.08.17S.3.2.3.2.24.12.24.04.05-.03 0 0" clip-path="url(#h)" transform="matrix(1.1077 0 0 -1.1077 19.46 14)"/><path d="M0 0c-.06.03.04.14.08.17L.3.2A.43.43 0 0 1 .24.04C.22-.03.05-.02 0 0" clip-path="url(#i)" transform="matrix(1.1077 0 0 -1.1077 19.99 13.97)"/><path d="M0 0c-.06.03.04.14.08.17A.82.82 0 0 0 .3.2.43.43 0 0 1 .23.04C.23-.03.06-.02 0 0" clip-path="url(#j)" transform="matrix(1.1077 0 0 -1.1077 20 13.14)"/><path d="M0 0a.58.58 0 0 0-.15.56c.08.3.06.53-.07.67a.43.43 0 0 1-.16.13C-.31.96-.28.63-.54.3c.02.12-.12.36-.1.65.02.26.1.52.02.63.1-.07.35-.11.46-.13.23-.03.3-.15.38-.34.02-.06.13-.13.16-.2.04.11.1.2.11.26a.48.48 0 0 1 0 .28c.12 0 .18-.26.23-.31.05-.05.08-.1.18-.1.03.1.03.19.04.3.01.13.07.23.02.38.07-.01.15-.1.19-.2.05-.12.03-.22.12-.29.08.06.12.16.15.21.07.2.11.35.12.58.1-.08.16-.09.26-.17.13-.1.2-.29.28-.35A5.6 5.6 0 0 1 4.2.64c.23-.03.4-.04.62.02.1.02.32.03.37.03l.3-.06c.2-.06.27-.28.27-.46-.2-.14-.39-.14-.7-.22-.25-.05-.47-.08-.66-.28-.05-.04-.1-.12-.18-.12.01.04 0 .09-.03.13a.24.24 0 0 1-.12.08c-.08-.08-.1-.24-.2-.2 0 .07-.1.1-.17.1s-.12-.1-.21-.08c.04.1-.08.18-.16.22-.03-.02-.12-.2-.23-.21.05.11-.06.28-.17.3-.03-.09-.08-.26-.22-.3.05.11.01.38-.17.41-.01-.16-.05-.26-.17-.34.06.44-.31.57-.65.67l-.28.1a.55.55 0 0 1-.24.05c-.03-.1.07-.32.16-.42a.57.57 0 0 0-.38.2C.91.33.91.4.84.55.72.24.9.15 1.01-.04.51-.04.5.53.5.56a.51.51 0 0 1-.1-.2.57.57 0 0 1 .11-.4c-.07 0-.22.1-.26.2L.2.33C.2.43.2.67.16.77a.52.52 0 0 1-.1-.29C.12.23-.03.15 0 0" clip-path="url(#k)" transform="matrix(1.1077 0 0 -1.1077 5.87 15.83)"/><path d="M0 0c-.02-.2.1-.31.2-.5.11-.23.12-.57 0-.85a1.61 1.61 0 0 0-.19-.34C-.13-1.1-.32-.51 0 0" clip-path="url(#l)" transform="matrix(1.1077 0 0 -1.1077 3.2 12.23)"/><path d="M0 0c0-.14.2-.28.22-.5a1.13 1.13 0 0 0-.05-.4c-.04-.17.05-.27-.03-.48a.65.65 0 0 1-.08-.38c-.06.08-.29.48-.2.81.06.26.07.42.07.72A.5.5 0 0 0 0 0" clip-path="url(#m)" transform="matrix(1.1077 0 0 -1.1077 4.76 13.66)"/><path d="M0 0c-.22.15-.32.54-.25.74.14.4.1.43.09.83a.86.86 0 0 0 .06.34c0-.35.24-.46.24-.79C.14.98.14.75.06.56A.86.86 0 0 1 0 0" clip-path="url(#n)" transform="matrix(1.1077 0 0 -1.1077 4.32 15.14)"/><path d="M0 0c.03-.18.13-.36.19-.47.08-.14.06-.47-.04-.79-.05-.14-.19-.32-.19-.46l-.06.25c-.08.34.09.5.11.76C.03-.53 0-.18 0 0" clip-path="url(#o)" transform="matrix(1.1077 0 0 -1.1077 3.7 12.72)"/><path d="M0 0s.21.13.32.65c.11.52.71.83.9.86A3.88 3.88 0 0 1 .74.79 2.03 2.03 0 0 0 0 0" clip-path="url(#p)" transform="matrix(1.1077 0 0 -1.1077 0 16.66)"/><path d="M0 0c-.13.34-.21.52-.56.71-.24.14-.4.17-.69.2-.44.07-.67-.02-.83-.1-.16-.08-.3-.2-.44-.51-.12-.25-.1-.47-.1-.7a1.29 1.29 0 0 0 .78.99c.27.08.44 0 .44 0a.98.98 0 0 1-.47-.17A1.42 1.42 0 0 1-2.4-.3s.22.38.6.55a1.25 1.25 0 0 0 .81.12 1.02 1.02 0 0 1-.28-.15A1.8 1.8 0 0 1-1.7-.4c-.2-.37-.34-.58-.5-.73.13.04.55.28.73.54.18.26.32.6.38.67.06.07.24.17.36.13A.58.58 0 0 0-.54.1c.1-.12.24-.35.2-.73a5.15 5.15 0 0 0-.88-2.07l-1.03-1.7c-.3-.66-.24-1.54.47-1.73.33-.1.82.1.82.1s.14.1.14-.2l.07 1.13s-.13-.5-.54-.52c-.41-.02-.6.07-.63.37-.03.3.14.8.28 1.04l1.13 1.9c.04.08.4.7.48 1.14C.05-.73.13-.34 0 0" clip-path="url(#q)" transform="matrix(1.1077 0 0 -1.1077 3.16 15.02)"/><path d="M0 0a3.21 3.21 0 0 0-.07.7c0 .2.1.24.32.24C.43.94.47.85.43.76.27.41.33.08.47-.22.27-.42.05-.22 0 0m-1.37 2.73c-.1-.46-.09-.67-.07-.87.06.06.11.1.16.1a.88.88 0 0 1-.05-.37c.05.08.1.13.17.15a1.19 1.19 0 0 1 0-.4c.06.15.12.28.2.23l.06-.04c.06-.03-.06-.23-.08-.29-.02-.06.07-.13.19-.17C-.9.67-1 .33-.91-.03A.5.5 0 0 1-.65-.4 2.16 2.16 0 0 0-.7.39c.02.17.1.32.17.47.04.08.14.05.18-.05.06-.14.06-.45.07-.6.01-.5.08-.78.57-1.03.2-.1.36-.04.46.05.07.06.2.2.12.33-.11.18-.06.2.1.19.2-.03.36.1.44.26.04.07.05.31-.1.3C.92.24.9.45.84.58s-.03.63.13.64c.08.01.12.1.09.23a2.77 2.77 0 0 0-2.43 1.27" clip-path="url(#r)" transform="matrix(1.1077 0 0 -1.1077 3.44 28.6)"/><path d="M0 0c.01-.13.28-.68.48-.24.2.44.58-.42 1.35-.42.77 0 1.06.23 1.3.2s.35-.21.25-.49c-.18-.54-.55-.86-1.36-1.64a6.74 6.74 0 0 1-.5-.75c-.08-.15-.07-.25 0-.27.06-.02.12 0 .18.09.14.18.17.43.42.58.16.09.85.36.85.36s.38.13.58-.08c.2-.21.31-.9.29-1.19a1.74 1.74 0 0 0-.78-1.32c-.64-.44-.36-.82-.2-.99.16-.17.98-.08.98-.08s.33-.01.5-.3c.1-.15.1-.35.1-.35s-.36-.26-.63-.23c-.48.05-.68.26-1.08.24l-1.05-.01s-.35.04-.25.36c.15.5.36 1.04.3 1.35-.03.2-.36.18-.48.13-.12-.05-.25-.11-.42-.02-.08.04-.08.22-.1.34-.06.27-.06.6.04.96l.09.23c.06.13-.1.28-.24.02-.13-.28-.2-.58-.19-.9 0-.44.3-1.37.23-1.8a1.57 1.57 0 0 0-.48-1.01c-.3-.31-1.3-1.5-1.3-1.5s-.4-.48-.14-1c.18-.35.57-.29.75-.3.15 0 .24.07.47-.12.2-.16.25-.42.05-.45-.98-.17-1.39.02-1.9.32s-.43 1.12-.43 1.12-.02.4.61.87c.16.24.3.58.19.8l-.33.61s-.22.92-.19 1.29-.01.93.28 1.53c.29.6.9 1.32 1.14 1.92.24.6.54 1.32.62 2.14" clip-path="url(#s)" transform="matrix(1.1077 0 0 -1.1077 4.5 15.5)"/><path d="M0 0c0-.07-.01-.12-.04-.15-.17.03-.26.18-.31.29C-.58.1-.66.16-.85.3a1.3 1.3 0 0 0-.3.45c-.1 0-.29.13-.4.26-.2.2-.17.4-.34.65-.04-.48-.37-.81-.15-1.27.08.18.13.34.24.48A3.2 3.2 0 0 1-1.77.3c.02-.14.07-.3.15-.37a.57.57 0 0 0 .03.34.41.41 0 0 0 .2.26c.04-.1.03-.14.02-.24a.79.79 0 0 1 .02-.3c.04-.2.1-.3.15-.43a.96.96 0 0 0 .05.39c.02.08.08.16.15.2.13-.22.11-.36.13-.57.02-.2.15-.28.18-.42.09.19-.07.5.2.68-.05-.27-.05-.46.04-.67.05-.12.18-.22.22-.4.03.26-.1.52.04.78.12-.12.08-.23.11-.36.05-.18.15-.28.1-.46.25.1.14.56.14.83 0 .17.02.16.05.28C.15-.1.07-.06 0 0" clip-path="url(#t)" transform="matrix(1.1077 0 0 -1.1077 5.36 12.53)"/><path d="M0 0c-.07-.03-.07-.03-.14-.09-.04-.06-.03-.17 0-.27.04-.15 0-.25-.11-.28-.1-.02-.2 0-.25.13-.06.13-.07.25-.03.35a2.53 2.53 0 0 0-.32 0c-.07 0-.15 0-.2.06-.07.07-.15.24-.06.3.1.05.35.07.42.07-.06.19-.23.2-.3.32a.56.56 0 0 0-.04.4l-.22-.03c-.18-.02-.26.09-.29.22a.55.55 0 0 1-.18.3c.02.05.09.07.14.07h.2a.69.69 0 0 1 .25.01c.1.03.12.06.2.12.05-.09.05-.16.04-.31-.02-.16-.02-.32.01-.48.05-.19.15-.24.33-.2.2.04.2.12.19.25-.03.33-.27.43-.13.81.1-.08.23-.07.41-.03.11.02.22.11.38.05-.1-.15-.06-.2-.08-.34-.04-.28-.32-.32-.5-.3a.45.45 0 0 0 .1-.46C-.23.49-.28.53-.31.35c.1.04.4.17.46.1C.24.27.25.12 0 0m.3-1.01c0 .05 0 .15.07.21.09-.03.15-.1.17-.2.03-.14.03-.33-.03-.39.27.15.28.41.22.62-.05.17-.2.26-.17.4.22.04.29-.25.3-.4a.63.63 0 0 1 .08.45C.9-.22.76-.1.82.05.9.05.94 0 .98-.08a.74.74 0 0 0 .1-.23.58.58 0 0 1-.02.42C1 .24.92.26.89.47c.11.05.12-.09.25-.13 0 .14.02.2-.11.38.04.05.13.01.18-.05 0 .14-.13.31-.2.39.05.02.1 0 .15-.03.02.12-.06.24-.13.3-.09.06-.15.05-.23.12a.63.63 0 0 0-.19.31.7.7 0 0 1 .57.32c.09.14.12.31-.03.46a.41.41 0 0 1-.42.1c-.16-.04-.25-.2-.44-.12-.03-.09-.08-.1-.1-.11a.65.65 0 0 0-.29-.02c-.22 0-.44 0-.67-.03C-1 2.34-1.9 2-1.87 2.2c-.05-.2-.34.1-.65-.18a.47.47 0 0 1-.14-.54c.1-.22.32-.3.61-.24 0-.1-.04-.18-.1-.25-.06-.07-.17-.12-.22-.28-.05-.2-.05-.58.14-.75-.03.22-.03.31.03.45.05.1.14.19.2.18a2.43 2.43 0 0 1-.08-.57c0-.2 0-.32.11-.5.01.23.09.51.21.53.13-.2-.02-.38-.05-.56-.04-.2.08-.29.2-.36-.03.1 0 .2.02.29.02.09.11.37.27.3-.16-.32-.16-.51-.08-.75.05-.16.2-.35.32-.37a.82.82 0 0 0-.14.42c0 .2.03.43.12.48.04-.04.1-.11.08-.27-.02-.17-.04-.23.02-.4a.88.88 0 0 1 .2-.33c-.06.35-.02.73.14.81-.02-.27-.04-.48.05-.64a1.21 1.21 0 0 0 .15-.51c.07-.06.15-.1.21-.17a.9.9 0 0 1 .02.11c.03.21-.13.49-.12.6.11.01.21-.21.26-.34.15.07.27.17.42.26l-.03.37" clip-path="url(#u)" transform="matrix(1.1077 0 0 -1.1077 5.86 10.49)"/><path d="M0 0c-.1.1-.25.37-.2.46.14 0 .31-.25.46-.4.15-.15.4-.22.47-.44-.01.3-.1.5-.3.67a4.06 4.06 0 0 1-.4.27C.08.58.1.57.17.57.22.57.33.51.39.5.49.43.54.49.66.38.68.4.53.64.45.7a.77.77 0 0 1-.28.16c-.16.05-.4.04-.54.1a1.09 1.09 0 0 0-.3.19.9.9 0 0 0-.38-.61c-.09-.08-.13-.11-.18-.07-.05.04-.05.08-.05.12l-.02.16-.42-.25A.82.82 0 0 0-1.7 0a1.9 1.9 0 0 1 .03-.8c.03-.17.34-.48.36-.6.05.14-.12.46-.13.55-.02.16-.05.24-.05.4 0 .16.05.4.07.4.06-.05.16-.26.15-.5a.67.67 0 0 1 .18-.5c.07-.08.18-.07.21-.24.03.1.04.2 0 .31-.04.2.01.25.02.46.01.17.01.17-.03.34-.02.11 0 .27.05.32.06-.02.14-.24.14-.35 0-.1.01-.33.07-.44.08-.17.3-.3.29-.44.1.35.07.65-.05 1C-.43.07-.5.23-.5.4c.13-.05.25-.44.3-.58.04-.1.03-.1.1-.19a.75.75 0 0 1 .26-.21c.2-.1.27-.22.36-.4.02.1.01.23-.06.41C.36-.28.23-.2 0 0" clip-path="url(#v)" transform="matrix(1.1077 0 0 -1.1077 7.67 12.86)"/><path d="M0 0c-.09.24-.28.2-.43.32a.82.82 0 0 0-.15.2.23.23 0 0 1 .05-.26c.08-.08.2-.14.3-.22.12-.12.1-.26.3-.36-.29-.14-.46.25-.64.18.06-.36.47-.3.64-.58-.2.06-.31.03-.5.04a.8.8 0 0 0-.3.07c-.18.11-.16.19-.12.33.06.22.17.3.11.55a.88.88 0 0 0-.02.2c0 .19.23.49.05.72.08-.06.2-.14.2-.27.02-.22.05-.4.27-.49C.1.3.02.02 0 0" clip-path="url(#w)" transform="matrix(1.1077 0 0 -1.1077 8.08 10.87)"/><path d="m0 0-.68-.16c-.2-.05-.35-.04-.47.18-.1.17-.18.17-.18.17s-.01-.08-.13-.1l-.24.03c-.17.03-.34.06-.52.06C-2.13.1-2.23 0-2.29 0c-.23-.04-.52-.05-.76-.08.14-.07.17-.3-.03-.35-.15-.04-.38-.04-.5-.14.18-.13.04-.25 0-.29a.78.78 0 0 0-.26-.16c-.12-.05-.27-.1-.3-.18.25-.06-.06-.33-.15-.43-.1-.1-.15-.13-.17-.26.15 0 .33-.04.24-.18l-.28-.5-.11-.23c.34.2.47.29.77.07a.2.2 0 0 1 .17-.04c.1.02.17.06.24.11.16.12.27.1.33-.1.29.29.56.39.7.23l.3.36c.15.18.32.2.38-.04l.15.29c.07.12.12.29.22.31.05.01.1.02.14-.06.02.06.02.15.02.2l.03.5c.06-.12.08-.24.1-.44 0-.19.03-.4-.11-.62-.04.15-.09.32-.16.23-.17-.2-.27-.49-.43-.8 0 .09-.05.42-.16.38-.13-.04-.32-.35-.47-.57-.08.13-.11.17-.24.13a.56.56 0 0 1-.19-.1c-.14-.14-.17-.35-.2-.53a.59.59 0 0 0-.18-.31l-.1-.1.2-.15.5.25c.24.1.64.24.53-.04.12 0 .22.1.27.14.17.18.27.37.45.4l.13.02c.08.1.17.18.26.27-.04 0-.12.07-.1.16 0 .06.04.18.05.23.03.13.14.25.38.19l-.02.36c-.02.24.12.27.31.26l-.11.47-.07.2c-.13.25-.13.3.08.42a1.79 1.79 0 0 0 .7.25A1.64 1.64 0 0 1 0 0" clip-path="url(#x)" transform="matrix(1.1077 0 0 -1.1077 14.2 16.49)"/><path d="M0 0c0 .06-.12.21-.04.27.04.03-.02.1-.03.15-.01.04-.07.11-.08.14-.01.07.02.09 0 .15-.03.14-.14.28-.18.4-.05.12-.03.22-.07.29l-.13.11c-.08.12-.04.16-.1.25-.09.11-.2.17-.28.24-.08.07-.1.17-.17.22-.03.02-.11.02-.13.04-.16.18-.34.16-.42.04l-.44-.64.06-.04.02.02.36.42c.04.04.15.13.23.08.05-.03.06-.08.04-.13-.06-.14-.2-.27-.32-.4.1.08.2.17.35.27.07.05.14.12.2.07.07-.07-.42-.48-.52-.6.1.05.45.35.54.38.09.03.13.02.16-.01.02-.02.04-.08 0-.12-.1-.17-.65-.49-.74-.59.45.27.87.46.96.33.03-.04 0-.12-.07-.17l-.58-.32c.15.04.52.21.62.21.08 0 .16.04.22-.07C-.5.9-.64.83-.7.79l-.35-.1.55.03c.02-.01.08.03.09-.03.01-.1-.14-.12-.2-.13l-.68-.2.54.08c.11.01.4.02.42-.06.03-.08 0-.16-.1-.16-.21 0-.46-.04-.7-.07h.62c.1 0 .25-.02.28-.12 0-.03 0-.12-.06-.12-.65-.05-.74 0-1.14 0 0-.05-.03-.07-.04-.12h.44c.3 0 .47-.04.76-.03.18 0 .28.13.27.24" clip-path="url(#y)" transform="matrix(1.1077 0 0 -1.1077 22.75 13.8)"/><path d="M0 0c.06.1.03.16.12.2C.1.22-.05.24 0 .27.06.33.02.4.1.45c-.19.09-.28.53-.24.56a.52.52 0 0 0-.23.24c-.02.07.02.2.09.25-.1.01-.16.11-.1.2l-.06.05-.04-.06c-.06-.1-.12-.12-.23-.08-.08.03-.24.03-.2.08-.06 0-.11 0-.16-.02-.1-.03-.39.06-.3.1-.14.04-.27.01-.42-.09l-.01.01c-.03.02-.05.08-.05.08s-.22-.1-.3-.2c-.09-.09-.22-.37-.27-.28-.05-.1-.06-.21-.09-.32-.01-.04-.07-.2-.1-.1-.06-.05-.06-.16-.06-.25 0-.05.03-.12 0-.16-.08-.15 0-.25.07-.37.07-.1.01-.25.19-.3.15-.06.13-.24.03-.38-.13-.17-.29-.19-.5-.12.04-.14.02-.22-.04-.27.05-.09.1-.19.13-.28.25.12.48.26.67.45.1.1.22.06.3-.04l.14-.14.28-.2c-.02.14.44.01.57.01-.1.08.25.13.4.2-.15.2.22.16.32.28-.1 0-.15.03-.1.1l.24.2c-.09.04-.02.16-.03.23.05 0 .1.05.15.05.02.05.04.07.04.12z" clip-path="url(#z)" transform="matrix(1.1077 0 0 -1.1077 20.96 13.9)"/><path d="M0 0c-.1-.03-.2-.09-.3-.13-.15-.07-.33 0-.26.17.1.14.17.3.29.43.12.13.26.2.42.24L.12.9-.22.8C-.35.78-.37.88-.35.97c.05.27.17.5.38.66L0 1.91a1.3 1.3 0 0 0-.46-.22c-.04.16-.2.4.08.42-.1.1-.22.17-.3.28-.08.11-.1.23-.15.36A1.12 1.12 0 0 0-.4 3.94c.06.03.17.06.23.04.06-.02.1-.13.15-.21.06.11.1.26.2.3l.22.12-.14.29A.46.46 0 0 0 .1 4.4a4.47 4.47 0 0 1-.56-.2c-.04 0-.13-.06-.17-.08-.33-.22-.4-.2-.51-.22.22-.19.03-.4-.12-.5-.12-.06-.29-.02-.37.04a.53.53 0 0 0-.16.16.49.49 0 0 0-.06.4c-.08.01-.17.02-.25.05v-.07c-.03-.07-.09-.07-.13-.08a.82.82 0 0 0-.25 0c-.2.02-.3.09-.2.36a1.2 1.2 0 0 0-1.65.16 1.6 1.6 0 0 1 .16-.47c.13-.2.3-.34.51-.5.05.16.3.22.5.15l.5-.19c.05-.02.12-.04.12-.13-.01-.07-.1-.1-.14-.1l-.22-.06c.1-.08.18-.17.26-.27a2.26 2.26 0 0 0 .63 0c.21-.03.25-.06.32-.17.1-.14.03-.26.03-.37 0-.05 0-.11.02-.17.13.23.24.2.38-.05.06-.13.13-.26.18-.4.06-.19.08-.3-.1-.46a.46.46 0 0 1-.16-.24c.37.24.32-.42.32-.5 0-.25-.2-.37-.32-.56-.04-.06-.06-.08-.09-.2.2.15.22 0 .2-.16l-.02-.1c.24-.12.5-.21.76-.18a.9.9 0 0 0 .47.45 2.31 2.31 0 0 0 .28.11L.23.06 0 0" clip-path="url(#A)" transform="matrix(1.1077 0 0 -1.1077 17.42 19.95)"/><path d="M0 0c-.01.1.06.23.2.31-.3.13-.57.16-.87.18-.14 0-.2.1-.1.24.02.05.04.05.12.14a1.83 1.83 0 0 1-.64.05c-.1 0-.14 0-.17.04s-.03.09.02.16c-.06.02-.22-.03-.3-.04-.25-.04-.52.06-.78-.07-.05-.02-.18-.05-.23.06 0 0-.02.05 0 .07a.35.35 0 0 1-.13-.02.75.75 0 0 0-.62-.02.15.15 0 0 1-.06 0c-.07 0-.17-.05-.25-.06-.13-.01-.26.03-.4.01a.36.36 0 0 1-.2-.09c-.03-.03-.08-.04-.1-.08-.14-.24-.36-.3-.58-.35l.02-.17a.92.92 0 0 0 .1.02c.18.02.34.05.41-.18.01-.05.11-.08.16-.13.03-.04.06-.1.06-.14 0-.03-.06-.07-.1-.08l-.54-.14.02-.21.18.06a3.3 3.3 0 0 0 .92.17c.29 0 .4-.08.58-.25.04-.04.1-.09.2-.15-.02.07 0 .1.07.15.03.02.18 0 .24-.03.14-.07.48-.3.54-.33 0 .12.09.1.13.11.32 0 1.34-.82 1.66-1.48.12.16.13.27-.13.58l-.5.57c-.04.04-.15.14-.1.23.05.09.12.08.19.08.09-.02.12-.04.2-.09.07.07.07.13.04.23a.83.83 0 0 1 .47-.07c-.04.07-.03.1.06.13.24.05.45 0 .72-.09A.94.94 0 0 1 0 0" clip-path="url(#B)" transform="matrix(1.1077 0 0 -1.1077 23.2 19.55)"/><path d="M0 0c.36.02.49.3.8.45.04.02.1.05.1.08-.35 0 .24.4.24.64-.18-.07-.12.12-.1.18l.17.44c.01.03.1.2.09.27-.06-.04-.1-.04-.16-.04-.01 0 .1.63.09.73-.07-.03-.2-.06-.18.04.02.27.08.4.16.57-.05-.01-.24-.02-.16.2.03.09.13.3.11.44-.28-.1-.12.2-.05.32.04.06.1.12.22.19-.1 0-.18 0-.27-.04a1.76 1.76 0 0 1-.31-.15c-.28-.17-.28-.18-.51.06-.23-.25-.33-.48-.48-.7-.06-.08-.16-.03-.24.13-.12-.16-.12-.46-.16-.68-.03-.15-.1-.15-.12-.15-.03 0-.06-.01-.1.05-.04-.08-.04-.08-.06-.17-.03-.15-.02-.28-.03-.42 0-.12-.04-.34-.18-.38a.6.6 0 0 0 .2-.42c.04-.18.06-.25-.07-.3a.4.4 0 0 0-.22-.03.7.7 0 0 1 .07-.27c.1-.2.2-.51.07-.66.18.03.35-.06.52-.23a.5.5 0 0 0 .14-.22c.08-.03.17-.04.25-.06.03.07.08.13.17.13" clip-path="url(#C)" transform="matrix(1.1077 0 0 -1.1077 15.54 15.38)"/><path d="M0 0c0 .04-.25.6-.28.83-.05.34-.02.65.04.97.01.04.03.1 0 .12l-.92.9c-.18.14-.5.36-1.23.78-.41.2-.63 0-.88-.3-.17-.2-.3-.43-.46-.65-.04.08-.03.13 0 .2.06.12.16.24.03.39-.19.21-.36.44-.54.67-.1.13-.34.64-.41.86-.1.2-.29.26-.49.29l-.83.1c-.24.04-.47.15-.71.2-.13.04-.28.01-.41-.01-.13-.02-.25-.09-.37-.11-.12-.02-.2-.05-.22-.2a.36.36 0 0 0-.14-.22 1.3 1.3 0 0 1-.62-.9c.29-.05.27.11.39.26v-.3c.43 0 .84.29.67.68.02 0 .04.03.06.02.17-.07.31-.06.46.07.05.05.18.06.27.05a2.2 2.2 0 0 0 1.05-.36c.28-.2.5-.44.62-.78l.6-1.68c.05-.1.12-.2.32-.18l.4.05c.1 0 .05-.1.04-.13-.04-.09-.2-.14-.31-.14-.55 0-1.1-.2-1.66-.07a.55.55 0 0 1-.4-.09 8.65 8.65 0 0 1-.63-.58c.15-.09.3-.2.44-.3.3.27.75.32 1.18.23l.72-.18a6.54 6.54 0 0 0 .75-.27 3 3 0 0 0 .55-.3.38.38 0 0 1 .46 0 6 6 0 0 0 .7.38c.16.08.24-.06.16-.1l-.39-.27-.23-.16c-.23-.2-.37-.18-.59-.14-.14.03-.25.15-.4.19-.13.01-.14-.06-.05-.14l.41-.45c.18-.22.44-.24.68-.33.11-.03.22-.1.33-.12.16-.03.34-.07.5-.04.38.08.75.18 1.08.44.26.2.27.44.27.7A.42.42 0 0 1 0 0" clip-path="url(#D)" transform="matrix(1.1077 0 0 -1.1077 28.24 15.88)"/><path d="M0 0c-.03-.06-.1-.12-.16-.12-.07 0-.17.05-.2.1-.08.24-.12.48-.2.72-.02.17.06.24.18.29A.24.24 0 0 0-.04.85C.06.57.16.29 0 0m-.72-.51c-.1-.17-.42-.16-.44.05l-.04.35c-.07.44-.1.9-.33 1.3a4.96 4.96 0 0 1-.86 1.09c-.71.72-1.48.92-2.43.99-.34.03-.69-.02-1.03-.02-.13 0-.24.07-.24.2 0 .07 0 .14.12.2.17.1.32.14.59.17.2.02.46.02.66.02.93 0 1.7-.38 2.21-.72.41-.28.88-.85 1.15-1.25A4.17 4.17 0 0 0-.69.47c.09-.29.12-.71-.03-.98m-5.57 4.3c-.09-.02-.24-.04-.27.05-.06.13.03.22.1.25a5.09 5.09 0 0 0 .78.37 2.76 2.76 0 0 0 1.24.14c.17-.02.28-.13.28-.3 0-.2-.14-.22-.29-.22h-.3c-.3 0-.7-.03-1.03-.12l-.51-.17m-13.03-.7c-.08-.1-.15-.12-.23-.12a1.05 1.05 0 0 0-.4.1c-.56.23-1.14.22-1.72.1-.35-.08-.7-.2-1.01-.36a3.31 3.31 0 0 1-.7-.52l-.37-.35c-.04-.03-.12-.08-.2 0-.04.04-.07.08-.01.2.08.15.1.23.19.32.25.29.43.51.79.74.29.2.44.3.77.41a4.13 4.13 0 0 0 2.4-.02 1.86 1.86 0 0 0 .44-.24c.1-.07.11-.18.05-.26m16.64 1.06c-.14-.07-.28.08-.38.17-.11.12-.16.35-.11.44.09.16.2.2.4.06.31-.21.26-.58.09-.67M.3.42c-.06.27-.19.6-.26.88-.03.14 0 .22.12.28-.08.2-.21.36-.35.53l-.02-.06c-.02-.06-.11-.08-.16-.02a5.02 5.02 0 0 1-1.98 2.05c.14.56-.1.9-.62 1.07-.27.03-.41-.21-.43-.25-.12-.21-.02-.51.08-.69a.71.71 0 0 1 .63-.34c.11 0 .23-.08.34-.15a5.65 5.65 0 0 0 1.23-.98c.18-.2.3-.4.44-.63.04-.05.1-.23 0-.28-.11-.07-.2.03-.33.19l-.52.55-.54.54a4.66 4.66 0 0 1-.8.53l-.8.37c-.05.03-.13.1-.12.15.03.28-.14.48-.27.7-.04.07-.14.12-.23.17-.16.1-.12-.1-.18-.14a.3.3 0 0 0-.17-.06 3.82 3.82 0 0 1-1.83-.44c-.12-.06-.22-.17-.34-.12-.09.04-.13.2-.2.32-.14.22-.19.36-.34.57-.19.28-.42.54-.67.77a3.35 3.35 0 0 1-3.65.67l-.36-.18c-.05-.02-.14-.02-.17 0s-.03.12 0 .17v.03a1.4 1.4 0 0 0-.75.18l-.04-.18c-.01-.07-.13-.14-.18-.08l-.2.24c-.21.26-.43.38-.71.51a3.38 3.38 0 0 1-1.42.34l-.06.01-.25-.27c.29.03.6 0 .89-.05a1.93 1.93 0 0 0 .84-.36 1.44 1.44 0 0 0 .42-.45c.1-.17.06-.23.04-.25-.05-.05-.14-.1-.34-.02l-.62.22a3.59 3.59 0 0 1-1.68.12 3.2 3.2 0 0 1-1.47-.7c-.35-.28-.6-.59-.93-.9-.06-.07-.15-.15-.23-.14-.22 0-.3.17-.18.35.18.27.37.52.58.76a3.12 3.12 0 0 0 .8.65l-.22.16-.76-.63c-.28-.27-.5-.59-.76-.88-.16-.16-.12-.14-.34-.16-.07-.23-.3-.73-.18-.77.32-.13.54-.17.86 0 .1.05.23.07.35.09.08.01.12 0 .15.07.22.47.37.59.7.95.3.32.68.6 1.05.76a3 3 0 0 0 .93.21c.5.02 1.03.08 1.42-.35a.24.24 0 0 0 .06-.22c-.02-.06-.11-.07-.17-.06l-.61.04c-.34.02-.7.02-1.02-.06a2.94 2.94 0 0 1-1.39-.8c-.26-.27-.45-.46-.63-.84l-.22-.58c-.1-.23-.27-.28-.47-.12-.48.37-1.03.53-1.63.55a4.73 4.73 0 0 1-.76 0c-.41-.06-.61-.08-1-.2a3.36 3.36 0 0 1-1.3-.83c-.28-.28-.4-.39-.62-.7-.18-.23.01-.67.3-.7.27-.02.4.2.55.35.1.09.16.19.27.3.15.15.34.28.53.39a2.86 2.86 0 0 0 .84.34 3.41 3.41 0 0 0 .91.08c.36-.02.63-.05.87-.31.1-.12.13-.26.1-.38-.04-.08-.25-.01-.34.02a2.6 2.6 0 0 1-1.33.17 1.49 1.49 0 0 1-.54-.17 2.14 2.14 0 0 1-.61-.47c-.2-.25-.48-.6-.4-.64.04-.02.15.06.2.1l.59.59c.47.4.92.4 1.57.26.26-.06.52-.22.78-.32.23-.08.41.03.4.23-.02.44.26.81.7.85.17.02.34-.05.5-.09.2-.05.32.01.37.2.03.17 0 .24-.02.36l-.03.28c-.03.32.16.6.42.91.19.23.55.5.8.65.5.3 1.04.4 1.61.27.25-.06.5-.14.75-.22.36-.11.62.04.7.38 0 .03.02.06.04.09.15.18.33.16.52-.05.22-.26.62-.28.83-.03.14.16.24.38.41.48.34.19.7.36 1.07.43.52.1 1.16.08 1.66-.14.3-.14.46-.2.81-.47a3.38 3.38 0 0 0 1.24-1.74c.08-.3.05-.37.03-.6-.01-.16-.19-.28-.3-.23-.06.02-.1.08-.1.18-.01.5-.23.75-.47 1.1a3.8 3.8 0 0 1-.61.7c-.31.29-.59.52-1.27.72-.3.1-.47.08-.8.07-.41-.02-.77-.12-1.04-.43-.15-.16-.15-.46-.02-.57a.44.44 0 0 1 .47-.05c.17.08.19.25.17.4-.02.18.04.27.2.32a1.85 1.85 0 0 0 1.6-.25c.37-.24.7-.53.96-.91.18-.27.39-.48.48-.83.02-.1 0-.26-.02-.37-.04-.24.06-.53.39-.47.22.03.42.09.5.3l.16.36c.1-.3.18-.41.48-.46l.04-.1a.47.47 0 0 1 .65-.25c.3.14.62.13.94.15.75.03 1.4-.2 1.97-.7a4.8 4.8 0 0 0 .8-.88c.23-.34.4-.75.44-1.19.02-.2.04-.33-.19-.42-.19-.08-.25-.29-.22-.45.03-.16.14-.34.37-.34.15 0 .3 0 .45-.03.36-.06.67.13.75.46.03.14.1.19.24.15.34-.08.44.03.5.34C.4.09.34.22.3.42" clip-path="url(#E)" transform="matrix(1.1077 0 0 -1.1077 30.37 28.07)"/><path d="m0 0-.52.74-.36.5c-.2.35-.32.43-.44.99a2 2 0 0 0 0 .8c.05.24.16.33.31.32.13 0 .2-.06.28-.16a.44.44 0 0 0 .1-.39c-.03-.17.3-.37.3-.73.1.66-.07 1.07-.42 1.37a.54.54 0 0 0 .22-.01c.38-.13.4-.68.38-1.03l-.02-.88c.02-.15.06-.55.48-.82-.23.34-.33.46-.3 1 .04.5.02.64 0 .88-.04.35-.13.5-.17.6-.04.1-.12.16-.12.16a.65.65 0 0 0 .26-.27c.1-.2.17-.37.17-.65v-.63A1.2 1.2 0 0 1 .38.9 2.03 2.03 0 0 1 .95.43c-.45.6-.6.84-.62 1.25-.02.3.02.57-.02.85-.09.57-.3 1.05-.76 1.3a1.7 1.7 0 0 1-.43.09c.11.03.48.1.87-.23.18-.15.27-.41.4-.55.36-.35.42-.51.58-.8-.01.01-.26.88-.67 1.33-.23.25-.62.36-.63.37-.64.2-1.23-.26-1.38-.86a2.59 2.59 0 0 1-.07-.73c0-.32.08-.58.27-.94.24-.5.4-.7.73-1.15l.69-1c.13-.21.24-.37.3-.7.08-.53-.24-.65-.57-.59-.54.1-.8.5-1.07.92-.24.37-.44.77-.65 1.15l-.12.22c-.04.06-.6.85-.97 1.58L-5.9.84c.37-.39.66-.4.99-.73.22-.21.3-.24.5-.5.06-.07.16-.16.2-.24a4.03 4.03 0 0 0 .28-.51c.02-.06.1-.26 0-.25-.08 0-.14.14-.17.2-.07.22-.13.34-.33.4l-.71.25a1.9 1.9 0 0 1-1.26 0c-.16-.06-.3-.22-.32-.24a.93.93 0 0 1 .06-1.26c.26-.27.48-.42.7-.73a2 2 0 0 0 .24-.77l-.57-.1a1.29 1.29 0 0 0-.44.04.8.8 0 0 1-.82-.22c-.2-.2-.33-.44-.49-.67.5-.13.83 0 .95.09.23.16.5.23.77.27l1.27.13c.21.03.23.22.2.36-.03.14-.14.43-.18.65 0 .1-.02.23.02.31.07.15.29.16.47.06l.34-.15c.13-.05.23-.03.28.16.1.4.08.54.3 1 .04.07.1.38.13.52.02.08.13.08.13 0-.02-.17-.03-.33-.08-.5-.05-.17-.14-.3-.18-.46-.13-.52-.14-.79-.17-1.19a1.58 1.58 0 0 1 .33-1.1 2.05 2.05 0 0 1 1.06-.73c.34-.1.66-.23.79-.6.15-.44.34-.9.31-1.37a.89.89 0 0 0-.03-.24c.14-.16.27-.32.35-.52l.04.02c.09.04.2.12.22.21.05.14.06.3.04.45l-.17 1.09c-.02.2 0 .42-.03.63-.03.24-.02.51-.33.61a1.27 1.27 0 0 0-.29.16c-.33.22-.45.94-.19 1.25.25.3.3.67.42 1.02.07.2.15.27.31.14.24-.2.73-.25 1.03-.18a.75.75 0 0 1 .57.48c.14.33.03.82-.17 1.2C.3-.4.2-.3 0 0" clip-path="url(#F)" transform="matrix(1.1077 0 0 -1.1077 31.62 17.67)"/><path d="M0 0c.03-.14.07-.29.09-.54 0-.18-.02-.46.02-.62.1-.37.4-.71.4-.71s-.24.5-.14.92a.6.6 0 0 1-.06.47C.26-.41.18-.26 0 0" clip-path="url(#G)" transform="matrix(1.1077 0 0 -1.1077 32.12 14.59)"/><path d="M0 0c-.16 0-.37 0-.19.33-.36.02-.58-.12-.8-.07-.07.01-.11.02-.14.12a.44.44 0 0 0 .02.17C-1.18.5-1.25.5-1.28.53c-.1.08-.04.13 0 .18.04.07.1.12.15.17a5.21 5.21 0 0 1-.44.3l-.28-.26a1.41 1.41 0 0 0-.42-.28c-.07-.03-.12 0-.19.07a.44.44 0 0 1-.22.14c-.19-.41-.56-.5-.75-.21a.65.65 0 0 1-.34-.28c-.08-.12-.18-.2-.3-.2-.07 0-.1.01-.14.07a.95.95 0 0 1-.23-.2c-.1-.15-.17-.32-.12-.53a.83.83 0 0 0 0-.45.74.74 0 0 0-.22-.37l.02-.28a1.04 1.04 0 0 0 .12.08c.1.06.4.15.6.12.24-.04.48-.1.64-.34.11.13.16.19.13.33.24-.05.4-.25.51-.35.02.06.04.12.1.17.04.07.11.08.18.1.16.01.22-.04.36-.17.22.25.32.27.82.07-.03.21.1.32.35.26.25-.06.32.05.5.24.06.07.22.11.3.18-.19.16.05.28.1.3.25.1.43.21.57.47.06.1.17.13.22.17C.38.1.25 0 0 0" clip-path="url(#H)" transform="matrix(1.1077 0 0 -1.1077 22.72 16.37)"/><path d="M0 0c.14.13.53.43.8.48l-.18.3A.45.45 0 0 0 .47.45a.42.42 0 0 0-.01.31 1.3 1.3 0 0 0-.32-.2A.38.38 0 0 0 .4.42C.27.36.05.28-.11.47c-.1.13-.11.3 0 .4.05.03.11.06.17 0C.12.81.06.72 0 .7.12.67.36.83.26.96c-.08.1-.3.06-.4-.01.07.13.1.34 0 .41-.14.1-.28-.16-.27-.25.06.07.16.1.2.07.03-.03.03-.12-.03-.19-.1-.1-.3-.08-.43.02-.14.1-.18.3-.04.52.06-.08.16-.23.16-.34a1.38 1.38 0 0 0 .25.32c-.13-.03-.27.04-.35.09.1.08.22.12.35.1l-.43.33c.06-.13.02-.25-.03-.35-.06.06-.16.18-.17.31a1.44 1.44 0 0 0-.24-.32c.1.03.27-.03.36-.07-.18-.2-.38-.17-.51-.08-.14.08-.26.25-.18.4.04.08.16.06.2.04.04-.02.05-.12 0-.2.1.07.27.23.14.34-.1.08-.25 0-.35-.1.03.12-.01.34-.14.38-.15.04-.2-.23-.16-.33.01.05.09.16.15.12.06-.04.05-.13.02-.18-.08-.14-.25-.16-.4-.08-.22.13-.23.35-.13.46.1-.03.16-.1.22-.2a1.34 1.34 0 0 0 .1.36.41.41 0 0 0-.3-.07.45.45 0 0 0 .28.24l-.33.08c0-.25-.2-.7-.27-.89A8.15 8.15 0 0 0 0 0" clip-path="url(#I)" transform="matrix(1.1077 0 0 -1.1077 28.24 13.75)"/><path d="M0 0c-.12-.07-.2-.1-.25-.18a2.13 2.13 0 0 1-.13-.45c.1.07.3.26.34.33.04.07.02.24.04.3" clip-path="url(#J)" transform="matrix(1.1077 0 0 -1.1077 26.94 10.89)"/><path d="M0 0c-.04-.13-.06-.22-.13-.28a2.2 2.2 0 0 0-.41-.23c.05.11.2.35.26.41s.22.07.28.1" clip-path="url(#K)" transform="matrix(1.1077 0 0 -1.1077 28.63 12.18)"/><path d="M0 0v.54A.67.67 0 0 1-.53 0Z" clip-path="url(#L)" transform="matrix(1.1077 0 0 -1.1077 16.09 1.98)"/><path d="M0 0h.52A.67.67 0 0 1 0 .54Z" clip-path="url(#M)" transform="matrix(1.1077 0 0 -1.1077 16.4 1.98)"/><path d="M0 0a.67.67 0 0 1 1.31 0Z" clip-path="url(#N)" transform="matrix(1.1077 0 0 -1.1077 15.51 2.27)"/><path d="M0 0a1.11 1.11 0 0 0 .24.49h-.67C-.3.3-.22.16-.2 0c.06.04.13.04.19 0" clip-path="url(#O)" transform="matrix(1.1077 0 0 -1.1077 16.33 .63)"/><path d="M0 0c-.03-.17-.07-.35-.22-.48.23.12.4.12.66 0-.13.1-.22.31-.26.48A.17.17 0 0 0 0 0" clip-path="url(#P)" transform="matrix(1.1077 0 0 -1.1077 16.12 .94)"/><path d="M0 0a.82.82 0 0 0-.45.27v-.7c.1.14.28.23.45.28A.16.16 0 0 0 0 0" clip-path="url(#Q)" transform="matrix(1.1077 0 0 -1.1077 16.06 .7)"/><path d="M0 0a.16.16 0 0 0 0-.15.83.83 0 0 0 .45-.28v.7A.82.82 0 0 0 0 0" clip-path="url(#R)" transform="matrix(1.1077 0 0 -1.1077 16.4 .7)"/><path d="M0 0a.19.19 0 0 0 0 .38A.19.19 0 0 0 0 0" clip-path="url(#S)" transform="matrix(1.1077 0 0 -1.1077 16.23 1)"/><path d="M58.2 801.35h.8v2.06h-.82z" clip-path="url(#T)" transform="matrix(1.1077 0 0 -1.1077 -48.68 892.79)"/><path d="M0 0c.12.1.55.47 1.04.44.37-.02.65-.16.87-.27L2.1.08a2.77 2.77 0 0 1 .95-.19h.11l-.01.16h-.02a2 2 0 0 0-.35 0l.01.09c.1.03.15.11.15.2a.22.22 0 0 1-.4.1.22.22 0 0 1 .05-.26L2.58.09c-.19.04-.37.1-.54.18l.05.1c.1 0 .17.07.2.17s-.04.2-.13.23-.2.02-.26-.06a.21.21 0 0 1 0-.26l-.04-.1a2.56 2.56 0 0 1-.4.16l.03.11a.21.21 0 0 1-.06.42.25.25 0 0 1-.16-.06c-.05-.04-.06-.1-.06-.15 0-.07.03-.13.08-.17l-.02-.1a2.01 2.01 0 0 1-.22.03H.9L.87.65a.21.21 0 0 1-.18.38.19.19 0 0 1-.17-.19c0-.1.06-.2.15-.23L.7.55A1.63 1.63 0 0 1 .3.4L.26.47a.22.22 0 0 1-.3.3.27.27 0 0 1-.09-.25C-.11.43-.01.36.09.36H.1L.13.3A2.05 2.05 0 0 1-.19.02l-.05.04a.22.22 0 1 1-.42.05c0-.07.03-.14.09-.17s.13-.05.2-.03l.06-.05c-.07-.1-.12-.22-.16-.34l-.08.02a.2.2 0 0 1-.2.17c-.1 0-.2-.06-.22-.16-.02-.1.02-.2.1-.24.08-.04.2-.03.27.04l.09-.02a1.33 1.33 0 0 1 0-.4L-.6-1.1a.22.22 0 0 1-.16.08.22.22 0 0 1 0-.44c.1 0 .19.07.2.17l.09.02.14-.37-.08-.04a.22.22 0 0 1-.31-.28.22.22 0 0 1 .4.1l.08.04c.07-.13.14-.23.19-.3v-.04h.02L0-2.17v-.03l.1.07.02.02v.02l-.03.03c-.03.16-.09.64.11.84a.6.6 0 0 0 .46.2l.21-.02.1-.01.03.04c.09.2.26.4.45.4h.02c.24 0 .47-.09.78-.3a1.09 1.09 0 0 1 .62-.16h.28v.15h-.28a.94.94 0 0 0-.53.14c-.34.22-.6.31-.87.31h-.02C1.15-.47.96-.76.9-.9l-.23.02A.75.75 0 0 1 .1-1.1c-.17-.17-.2-.44-.2-.67-.1.2-.23.46-.27.72C-.47-.44-.05-.04 0 0" clip-path="url(#U)" transform="matrix(1.1077 0 0 -1.1077 12.44 3.32)"/><path d="M0 0a.21.21 0 0 1-.16-.07l-.09.02c.03.14.02.27 0 .4l.1.02a.22.22 0 1 1-.06.2L-.29.55c-.04.12-.1.24-.16.34l.06.04A.21.21 0 0 1-.3.92a.22.22 0 1 1-.21.17l-.05-.04-.09.08a2.11 2.11 0 0 1-.23.19l.04.07h.01a.22.22 0 1 1-.21.21c0-.04.01-.07.03-.1l-.05-.08c-.1.06-.24.12-.38.15l.02.07c.09.03.15.11.15.21a.22.22 0 0 1-.43 0c0-.07.03-.13.08-.17l-.02-.07h-.16a.83.83 0 0 1-.22-.03l-.02.1c.05.04.08.1.08.17a.22.22 0 0 1-.43 0c0-.1.06-.18.15-.2l.02-.11a2.51 2.51 0 0 1-.39-.16l-.04.1a.2.2 0 0 1 .04.12.22.22 0 0 1-.43 0c0-.11.1-.2.2-.21l.05-.1-.11-.05c-.14-.05-.28-.1-.43-.12l-.01.08a.22.22 0 1 1-.2-.04l.01-.08a2.2 2.2 0 0 0-.26-.02.86.86 0 0 0-.09 0h-.02V.93h.11a2.75 2.75 0 0 1 .95.19l.18.08c.22.11.5.25.87.27.5.03.92-.33 1.04-.44C-.7.98-.3.58-.39-.04a2.27 2.27 0 0 0-.28-.71c0 .22-.02.5-.19.66a.75.75 0 0 1-.56.24l-.23-.02c-.07.14-.27.42-.56.43h-.02c-.27 0-.53-.1-.86-.32A.94.94 0 0 0-3.62.1h-.3l.01-.14h.12l.16-.01c.24 0 .44.05.62.17.3.2.54.29.78.29h.02c.2 0 .36-.2.46-.4l.02-.04.1.01a1.7 1.7 0 0 0 .21.02.6.6 0 0 0 .46-.2c.2-.2.14-.68.11-.83a.24.24 0 0 0-.02-.04l-.01-.01.02-.02.1-.07v.01l.03.03h.02v.04c.05.06.12.16.19.3l.08-.05c0-.1.07-.19.16-.2.09-.01.2.01.24.1.04.09.03.2-.04.26a.24.24 0 0 1-.27.02l-.08.04a2.47 2.47 0 0 1 .14.37l.08-.02a.22.22 0 0 1 .43.05C.22-.1.12 0 0 0" clip-path="url(#V)" transform="matrix(1.1077 0 0 -1.1077 20.91 4.44)"/><path d="M0 0c-.15.05-.24.17-.21.27s.17.14.32.1A.4.4 0 0 0 .23.3l.02.06c.17.75.33 1.34.67 1.75l-.64.27a.9.9 0 0 0 .16-.73.83.83 0 0 0-.4.5 2.7 2.7 0 0 0-.26-.7c.2.08.37.12.58.04C.25 1.27-.02.88-.5 1c-.32.07-.55.33-.48.65.02.1.1.22.26.2.16-.02.17-.26.12-.36.2.1.41.66.09.74-.25.06-.55-.26-.64-.5-.04.29-.26.67-.51.66-.34-.02-.24-.6-.13-.74.03.19.15.36.25.35.08 0 .2-.15.18-.32-.03-.3-.4-.51-.71-.51-.36 0-.66.25-.7.78.2-.03.54-.17.68-.35a2.78 2.78 0 0 0 0 .83c-.17-.2-.49-.27-.68-.3a.92.92 0 0 0 .44.6h-1.1c.26-.13.34-.37.4-.6-.19.04-.5.1-.66.3.04-.32.04-.5 0-.83.13.18.47.31.67.35-.05-.53-.42-.74-.72-.77-.32-.03-.74.09-.79.44-.03.17.19.29.27.3.1 0 .23-.12.25-.31.08.23.15.69-.18.7-.26.02-.42-.3-.46-.58-.09.24-.43.53-.67.43-.3-.12-.07-.62.13-.72-.04.1-.06.37.1.38.16.01.24-.17.25-.27.05-.32-.2-.55-.53-.6-.53-.1-.81.25-.79.56.21.08.39.04.6-.05-.11.2-.23.5-.27.7a.84.84 0 0 0-.41-.49.9.9 0 0 0 .16.73l-.64-.27c.33-.4.48-1.1.68-1.76V.32l.1.05c.15.04.3 0 .33-.1.03-.1-.07-.22-.22-.27a.4.4 0 0 0-.13-.02.63.63 0 0 0-.02-.2A7.7 7.7 0 0 0-2.9.25S-1.1.37.16-.22v.2c-.05 0-.1 0-.16.02" clip-path="url(#W)" transform="matrix(1.1077 0 0 -1.1077 19.44 8.1)"/><path d="M0 0a.44.44 0 0 1-.23-.07C-.35-.14-.4-.24-.37-.34c.03-.08.12-.14.23-.15h.02c.12 0 .24.06.32.15.05.06.07.13.05.2C.22-.07.12 0 0 0" clip-path="url(#X)" transform="matrix(1.1077 0 0 -1.1077 12.98 7.63)"/><path d="M0 0c-.12 0-.22-.06-.25-.15-.02-.06 0-.13.05-.2a.44.44 0 0 1 .38-.13c.1.01.17.07.19.14.03.09-.01.18-.1.25a.41.41 0 0 1-.14.07A.43.43 0 0 1 0 0" clip-path="url(#Y)" transform="matrix(1.1077 0 0 -1.1077 19.43 7.63)"/><path d="M0 0a.09.09 0 0 0-.03 0 12.3 12.3 0 0 1-6.43 0 .12.12 0 0 0-.13.08.1.1 0 0 0 .08.13A12.4 12.4 0 0 0 .09.16C.1.14.11.1.1.08A.1.1 0 0 0 0 0" clip-path="url(#Z)" transform="matrix(1.1077 0 0 -1.1077 19.8 7.66)"/><path d="M0 0c-.06 0-.1.04-.12.1-.01.03 0 .06.01.1.01.04.04.04.08.05C1.09.54 2.2.7 3.3.7A12 12 0 0 0 6.53.25.13.13 0 0 0 6.48 0a.1.1 0 0 0-.03 0A11.78 11.78 0 0 1 3.3.43 13.18 13.18 0 0 1 0 0" clip-path="url(#aa)" transform="matrix(1.1077 0 0 -1.1077 12.61 7.68)"/><path d="M0 0c-.1-.26-.2-.4-.17-.6.03-.2.24-.7.34-.89.06.23.16.79.13.97-.03.18-.25.4-.3.52" clip-path="url(#ab)" transform="matrix(1.1077 0 0 -1.1077 14.09 4.65)"/><path d="M0 0c.09-.26.18-.42.14-.6-.04-.18-.28-.7-.38-.88-.06.23-.13.8-.1.97.03.17.29.39.34.51" clip-path="url(#ac)" transform="matrix(1.1077 0 0 -1.1077 18.4 4.66)"/><path d="M0 0a.23.23 0 1 0-.46 0A.23.23 0 0 0 0 0" clip-path="url(#ad)" transform="matrix(1.1077 0 0 -1.1077 12.65 6.47)"/><path d="M0 0a.25.25 0 1 0 0 .5.25.25 0 0 0 0-.5" clip-path="url(#ae)" transform="matrix(1.1077 0 0 -1.1077 12.4 6.74)"/><path d="M0 0a.24.24 0 1 0-.49 0A.24.24 0 0 0 0 0" clip-path="url(#af)" transform="matrix(1.1077 0 0 -1.1077 16.48 5.87)"/><path d="M0 0a.22.22 0 1 1 0-.44A.22.22 0 0 1 0 0m0-.49a.27.27 0 1 0 0 .53.27.27 0 0 0 0-.53" clip-path="url(#ag)" transform="matrix(1.1077 0 0 -1.1077 16.22 5.62)"/><path d="M0 0a.23.23 0 1 0-.46 0A.23.23 0 0 0 0 0" clip-path="url(#ah)" transform="matrix(1.1077 0 0 -1.1077 20.18 6.45)"/><path d="M0 0a.25.25 0 1 0 0 .5.25.25 0 0 0 0-.5" clip-path="url(#ai)" transform="matrix(1.1077 0 0 -1.1077 19.93 6.72)"/><path d="M0 0c0-.32-1.31-.68-3.2-.68-1.89 0-3.2.36-3.2.68 0 .32 1.32.68 3.2.68C-1.32.68 0 .32 0 0m-3.2.81C-4.8.81-6.53.53-6.53 0S-4.8-.81-3.2-.81.13-.53.13 0-1.6.81-3.2.81" clip-path="url(#aj)" transform="matrix(1.1077 0 0 -1.1077 19.76 8.62)"/><path d="M0 0c-.63.16-1.52.26-2.47.26a10.4 10.4 0 0 1-2.52-.3.07.07 0 0 1 0-.04c0-.03.02-.05.05-.05h.02c.61.16 1.51.26 2.45.26.94 0 1.82-.1 2.44-.25.03-.01.07 0 .08.04C.06-.04.03 0 0 0" clip-path="url(#ak)" transform="matrix(1.1077 0 0 -1.1077 18.97 8.8)"/><path d="m0 0-.03.18a.23.23 0 0 1-.14-.2z" clip-path="url(#al)" transform="matrix(1.1077 0 0 -1.1077 4.58 5.68)"/><path d="m0 0 .17.03a.23.23 0 0 1-.2.15z" clip-path="url(#am)" transform="matrix(1.1077 0 0 -1.1077 4.68 5.67)"/><path d="M0 0a.23.23 0 0 1 .44.07Z" clip-path="url(#an)" transform="matrix(1.1077 0 0 -1.1077 4.4 5.81)"/><path d="M0 0c0 .06.02.11.06.17L-.17.14a.4.4 0 0 0 .1-.15l.04.02A.06.06 0 0 0 0 0" clip-path="url(#ao)" transform="matrix(1.1077 0 0 -1.1077 4.6 5.22)"/><path d="M0 0c0-.06 0-.12-.05-.17a.23.23 0 0 0 .22.04C.12-.12.08-.05.07 0A.06.06 0 0 0 0 0" clip-path="url(#ap)" transform="matrix(1.1077 0 0 -1.1077 4.54 5.33)"/><path d="M0 0a.27.27 0 0 0-.17.07l.04-.24a.27.27 0 0 0 .14.12.05.05 0 0 0-.01.02V0" clip-path="url(#aq)" transform="matrix(1.1077 0 0 -1.1077 4.5 5.26)"/><path d="m0 0 .01-.02v-.03c.06 0 .12-.03.16-.07L.14.11A.28.28 0 0 0 0 0" clip-path="url(#ar)" transform="matrix(1.1077 0 0 -1.1077 4.62 5.24)"/><path d="M0 0a.05.05 0 0 1-.04-.06.05.05 0 0 1 .06-.04.05.05 0 0 1 .04.06A.05.05 0 0 1 0 0m.02-.11a.06.06 0 0 0-.07.05.06.06 0 0 0 .05.07.06.06 0 0 0 .07-.05.06.06 0 0 0-.05-.07" clip-path="url(#as)" transform="matrix(1.1077 0 0 -1.1077 4.56 5.22)"/><path d="m0 0 .1-.69.28.05-.1.68z" clip-path="url(#at)" transform="matrix(1.1077 0 0 -1.1077 4.53 5.98)"/><path d="M0 0h.01C.06 0 .1.05.1.1.09.14.06.17.02.17s-.07 0-.09-.03A.09.09 0 0 1-.09.07.1.1 0 0 1 0 0" clip-path="url(#au)" transform="matrix(1.1077 0 0 -1.1077 4.43 6.13)"/><path d="M0 0h-.05a.2.2 0 0 0-.11-.03L-.28 0C-.41.06-.5.08-.6.06-.7.04-.74-.06-.76-.11c-.08 0-.18-.01-.25-.12-.05-.06-.05-.15-.03-.22a.75.75 0 0 0-.13.21.41.41 0 0 0 .07.37.52.52 0 0 0 .32.2.5.5 0 0 0 .06 0c.1 0 .18-.02.24-.04A.86.86 0 0 1-.04.26v.06h-.01a.81.81 0 0 0-.34 0l-.02.01v.02A.1.1 0 0 1-.37.4c.02.02.02.06 0 .1-.02.04-.05.04-.09.03a.09.09 0 0 1-.07-.1.1.1 0 0 1 .02-.04V.36a.86.86 0 0 1-.12.02v.03c.03.02.05.05.04.09l-.03.06-.07.01C-.72.57-.73.55-.74.54A.08.08 0 0 1-.76.47.08.08 0 0 1-.72.42V.39h-.11c.01.03.02.05.01.07 0 .04-.02.06-.05.08-.03.02-.07 0-.1-.02S-1 .47-.98.43c.02-.04.03-.06.07-.07V.35a.58.58 0 0 1-.1-.06v.02a.09.09 0 0 1-.1.1l-.06-.03C-1.2.36-1.2.34-1.19.32l.03-.06A.11.11 0 0 1-1.1.25l.01-.02a.6.6 0 0 1-.05-.06l-.02-.03-.01.01v.01c0 .05-.05.08-.1.07-.05-.01-.08-.03-.07-.09.01-.06.04-.08.08-.08h.02a.09.09 0 0 1 .02.01h.01a.45.45 0 0 1-.02-.1h-.02a.09.09 0 0 1-.1.04.08.08 0 0 1-.05-.03.09.09 0 0 1 .14-.1l.02-.01a.42.42 0 0 1 .02-.1l-.02-.02a.08.08 0 0 1-.06.02.09.09 0 0 1-.06-.13c.02-.03.05-.05.09-.04.04.01.06.03.06.07h.02a.91.91 0 0 1 .05-.09l-.01-.01h-.05c-.04 0-.07-.05-.07-.1s.04-.07.09-.07h.01c.05 0 .08.05.07.1h.02l.07-.07V-.6H-1l.01-.01.03.03.01.01-.01.02c-.02.05-.07.2 0 .28.06.09.13.09.2.09h.04v.02c.03.07.07.14.13.15.09.02.17 0 .28-.05a.36.36 0 0 1 .15-.03c.05 0 .1 0 .13.02H0Z" clip-path="url(#av)" transform="matrix(1.1077 0 0 -1.1077 4.66 6.47)"/><path d="M0 0v.07h.06V0Z" clip-path="url(#aw)" transform="matrix(1.1077 0 0 -1.1077 4.4 6.16)"/><path d="M0 0h.02a.09.09 0 0 1 .16.06C.18.1.13.12.08.12A.09.09 0 0 1 .03.09H0A.46.46 0 0 1-.01.2L0 .21A.08.08 0 0 1 .07.2C.1.2.15.25.14.3.13.35.09.38.04.37A.09.09 0 0 1-.03.3h-.02A.62.62 0 0 1-.1.37h.03c.05.02.08.06.07.1-.01.04-.05.09-.1.08C-.15.54-.18.5-.17.45V.44L-.2.46A.62.62 0 0 1-.27.5v.02c.05 0 .08.05.07.1a.08.08 0 0 1-.16.02.09.09 0 0 1 0-.08V.54a.5.5 0 0 1-.1.02v.02c.02.01.04.05.03.08 0 .03-.01.05-.03.06l-.07.02C-.56.74-.59.7-.6.67A.07.07 0 0 1-.56.58V.56a.55.55 0 0 1-.1-.02l-.01.02c.01.02.02.04.01.07l-.03.05-.07.02A.09.09 0 0 1-.83.6c0-.04.03-.06.06-.07L-.74.5a.85.85 0 0 1-.1-.05l-.02.01.01.05-.03.06C-.9.59-.94.59-.96.58l-.06-.03C-1.04.53-1.03.5-1.03.48c0-.04.04-.07.08-.07l.02-.02a.66.66 0 0 0-.15-.07v.01c.01.02.02.04.01.07l-.03.05-.07.02c-.03 0-.04-.02-.05-.04l-.02-.06c0-.04.03-.06.07-.07V.29a.56.56 0 0 0-.1-.02h-.01V.2h.01a.92.92 0 0 1 .35.12l.05.04c.07.04.15.1.27.13h.08c.13 0 .26-.07.3-.09A.41.41 0 0 0-.06.08.75.75 0 0 0-.1-.16c-.01.07-.04.16-.1.2A.26.26 0 0 1-.35.1.43.43 0 0 1-.47.07C-.51.11-.6.2-.68.18A.52.52 0 0 1-.96.04a.35.35 0 0 0-.23-.08h-.04V-.1h.05c.06 0 .16.02.25.1.07.07.16.12.25.14.07 0 .13-.05.17-.1L-.49 0h.03l.1.03a.2.2 0 0 0 .13-.05c.08-.05.08-.21.08-.27V-.3l.04-.02.01.01v.02l.05.1.02-.01a.09.09 0 0 1 .1-.06c.02 0 .04.01.05.03a.08.08 0 0 1 .02.07c0 .02-.03.05-.06.06h-.1L0 0" clip-path="url(#ax)" transform="matrix(1.1077 0 0 -1.1077 6.23 6.37)"/><path d="M0 0a.17.17 0 0 1-.04-.01.15.15 0 0 1-.03-.02C-.11-.07-.12-.1-.1-.14c.02-.04.04-.04.08-.04.05 0 .08.03.1.07.02.02.02.04.01.06C.08 0 .04.01 0 0" clip-path="url(#ay)" transform="matrix(1.1077 0 0 -1.1077 3.85 7.73)"/><path d="M0 0a.09.09 0 0 1-.08-.06c0-.03.01-.05.03-.06l.07-.04h.05c.05.02.07.04.07.07 0 .03-.01.06-.04.07A.16.16 0 0 1 0 0" clip-path="url(#az)" transform="matrix(1.1077 0 0 -1.1077 6 7.39)"/><path d="M0 0a4.3 4.3 0 0 1-1.72-.37c-.01 0-.02-.02-.01-.03l.03-.02a4.26 4.26 0 0 0 2.15.34c.01 0 .02.01.02.03 0 .02-.01.02-.02.02L0 0m-1.7-.44a.05.05 0 0 0-.05.03c-.01.02 0 .05.02.06A4.33 4.33 0 0 0 0 .02a3.86 3.86 0 0 0 .49-.04v-.04A.05.05 0 0 0 .46-.1H.44A3.87 3.87 0 0 1 0-.07a4.2 4.2 0 0 1-1.7-.37" clip-path="url(#aA)" transform="matrix(1.1077 0 0 -1.1077 5.61 7.28)"/><path d="M0 0c-.02-.1-.04-.15-.03-.2a1.47 1.47 0 0 1 .17-.3c.01.08.02.27 0 .33S.03-.04 0 0" clip-path="url(#aB)" transform="matrix(1.1077 0 0 -1.1077 4.06 6.68)"/><path d="M0 0c.04-.08.08-.13.08-.2A1.44 1.44 0 0 0 0-.5a.95.95 0 0 0-.08.31c.01.06.07.15.08.19" clip-path="url(#aC)" transform="matrix(1.1077 0 0 -1.1077 5.5 6.45)"/><path d="M0 0c-.64-.1-1.05-.3-1.03-.4.02-.1.46-.17 1.1-.07.64.1 1.06.3 1.04.4C1.09.03.64.1 0 0m.08-.5c-.54-.08-1.12-.07-1.14.09-.02.16.52.35 1.06.44.54.09 1.1.07 1.14-.09C1.18-.22.62-.41.08-.5" clip-path="url(#aD)" transform="matrix(1.1077 0 0 -1.1077 4.94 7.62)"/><path d="m0 0 .02-.01v-.02C.03-.05.02-.06 0-.06l-.01-.01H0c.03 0 .05.02.05.04L.03 0H0" clip-path="url(#aE)" transform="matrix(1.1077 0 0 -1.1077 6.12 7.3)"/><path d="m0 0-.04.01a.03.03 0 0 0 .02.04L0 .06h-.03s-.02 0-.02-.02V0L0-.02.03 0H0" clip-path="url(#aF)" transform="matrix(1.1077 0 0 -1.1077 3.73 7.74)"/><path d="M0 0a.66.66 0 0 0 .07.17l-.23.06a.32.32 0 0 0 .1-.2h-.01A.1.1 0 0 1-.1 0a.26.26 0 0 0-.12.13.91.91 0 0 0-.06-.25.29.29 0 0 0 .14.05v-.01c0-.03.01-.04.03-.06-.04-.08-.1-.16-.23-.15-.11 0-.2.08-.2.19 0 .03.02.08.08.08s.07-.08.06-.11c.06.04.1.24-.01.25C-.5.13-.58 0-.6-.07c-.03.09-.12.2-.2.19-.11-.03-.05-.21 0-.25 0 .06.02.13.06.13.04 0 .07-.04.07-.1.01-.1-.1-.2-.2-.2s-.22.03-.27.17a.09.09 0 0 1 .03.04.39.39 0 0 0 .2-.07.89.89 0 0 0-.04.27.29.29 0 0 0-.18-.11.1.1 0 0 1-.02.02.3.3 0 0 0 .1.2L-1.4.13A.27.27 0 0 0-1.26 0a.1.1 0 0 1-.02-.04.29.29 0 0 0-.2.07.97.97 0 0 0 .04-.28c.03.05.1.1.17.13a.09.09 0 0 1 .04-.03.26.26 0 0 0-.2-.24c-.1-.03-.25-.01-.29.1-.02.06.05.1.08.11.03.01.08-.02.1-.08.01.08.01.23-.1.22-.09 0-.12-.12-.12-.22-.04.08-.17.16-.25.11-.1-.06.01-.2.08-.23-.02.03-.04.12.01.13.05.01.1-.04.1-.08.04-.1-.04-.2-.14-.23-.14-.04-.25.02-.28.1v.05c.06.04.12.03.19.01a.9.9 0 0 0-.13.22.27.27 0 0 0-.1-.17.26.26 0 0 0 0 .24l-.2-.12a.58.58 0 0 0 .11-.13.08.08 0 0 1-.03-.08l.03-.06c.02-.02.04-.01.07-.01l.1-.18c.35.15.71.25 1.07.31a4.09 4.09 0 0 0 1.08.03l.02.2c.04.02.06.06.06.1A.08.08 0 0 1 0 0" clip-path="url(#aG)" transform="matrix(1.1077 0 0 -1.1077 6.16 6.9)"/><path d="M0 0a4.42 4.42 0 0 1-1.04-.3v-.03A.13.13 0 0 0-1-.31c.04.02.1.01.11-.02.01-.03-.01-.07-.06-.1a.15.15 0 0 0-.04-.01.24.24 0 0 0 0-.07c.27.19.7.27 1 .32 0 0 .6.13 1.05 0l-.01.07H.99c-.05 0-.09.04-.08.08C.92 0 .96 0 1 0l.04-.02v.04C.72.07.36.06 0 0" clip-path="url(#aH)" transform="matrix(1.1077 0 0 -1.1077 4.92 7.41)"/><path d="m0 0 .65-.1.84-.04c.35.04.54-.43.32-.73-.18-.23-.4-.5-.73-.36-.06.01-.1.09-.2.03-.19-.16-.32-.12-.44.02-.05.02-.12.05-.17.04-.26-.1-.38.01-.5.13a.79.79 0 0 0-.28.63c0 .26.14.36.51.38" clip-path="url(#aI)" transform="matrix(1.1077 0 0 -1.1077 11.15 9.8)"/><path d="M0 0c-.16-.03-.2-.07-.28-.18-.02-.03-.12-.01-.18 0-.07.03-.18.05-.19.13.01.25.33.5.56.43C.03.34.04.24.04.18.04.1.04-.03 0 0" clip-path="url(#aJ)" transform="matrix(1.1077 0 0 -1.1077 11.61 11.8)"/><path d="M0 0c-.41 0-.51.09-.56.32a1.2 1.2 0 0 0 0 .3c.41-.02.53-.07.5-.3A.47.47 0 0 1 0 0" clip-path="url(#aK)" transform="matrix(1.1077 0 0 -1.1077 10.37 10.47)"/><path d="M0 0c-.03-.17-.17-.26-.3-.24-.1.01-.25.15-.25.24-.01.16.1.3.3.28C-.08.27.04.2 0 0" clip-path="url(#aL)" transform="matrix(1.1077 0 0 -1.1077 11.98 12.4)"/><path d="M0 0c.36 0 .45.08.5.3v.28C.13.56.1.51.08.28.08.09.05.09 0 0" clip-path="url(#aM)" transform="matrix(1.1077 0 0 -1.1077 13.36 10.81)"/><path d="M0 0c-.37.1-.48.05-.58-.14a1.13 1.13 0 0 1-.09-.28c.38-.08.44-.05.51.16.06.2.1.19.16.26" clip-path="url(#aN)" transform="matrix(1.1077 0 0 -1.1077 9.7 13.01)"/><path d="M0 0c.33.1.43.05.51-.13A1 1 0 0 0 .6-.37C.25-.44.2-.4.14-.23.08-.05.08-.05 0 0" clip-path="url(#aO)" transform="matrix(1.1077 0 0 -1.1077 13.6 13.26)"/><path d="M0 0c.25-.24.27-.35.16-.52a1 1 0 0 0-.17-.2c-.25.26-.25.33-.11.48C0-.1-.04-.1 0 0" clip-path="url(#aP)" transform="matrix(1.1077 0 0 -1.1077 11.71 14.34)"/><path d="M0 0c-.03-.15 0-.2.07-.31C.1-.34.05-.41.01-.47-.03-.53-.1-.62-.16-.6c-.22.08-.35.45-.21.64.07.1.16.07.23.05C-.07.07.02.03 0 0" clip-path="url(#aQ)" transform="matrix(1.1077 0 0 -1.1077 11.14 12.33)"/><path d="M0 0a.33.33 0 0 1-.2.25c-.03.02-.02.1-.01.17s.02.18.1.2C.12.63.4.34.35.11.32.02.24 0 .17-.01.1-.02-.01-.03 0 0" clip-path="url(#aR)" transform="matrix(1.1077 0 0 -1.1077 12.18 12.11)"/><path d="M0 0a.33.33 0 0 1 .32 0c.03.02.1-.05.14-.1.05-.05.12-.12.1-.2C.41-.48.02-.52-.13-.34c-.07.1-.03.17 0 .23s.1.15.12.12" clip-path="url(#aS)" transform="matrix(1.1077 0 0 -1.1077 11.51 12.89)"/><path d="M0 0c.1.1.11.15.12.27C.12.3.2.33.26.35.32.36.4.4.46.34c.1-.19 0-.53-.21-.58-.1-.03-.16.04-.2.1C.02-.1-.03-.02 0 0" clip-path="url(#aT)" transform="matrix(1.1077 0 0 -1.1077 12.14 12.7)"/><path d="m0 0 .27.46.26.63c.05.28.52.27.71.01.15-.2.33-.45.13-.65C1.34.4 1.26.4 1.28.3c.1-.19.02-.27-.13-.32-.04-.03-.08-.08-.08-.12.02-.23-.12-.28-.25-.34A.78.78 0 0 0 .19-.5c-.22.1-.27.22-.19.5" clip-path="url(#aU)" transform="matrix(1.1077 0 0 -1.1077 9.2 12.14)"/><path d="M0 0a.77.77 0 0 0-.59.17C-.7.26-.82.34-.74.56c0 .03-.02.09-.05.13-.13.09-.18.18-.05.34.05.09-.03.11-.04.16-.15.24.08.44.27.6.26.19.7.08.68-.2l.1-.66C.2.77.27.6.3.43.3.13.23.03 0 0" clip-path="url(#aV)" transform="matrix(1.1077 0 0 -1.1077 13.8 13.05)"/><path d="M0 0a.67.67 0 0 0-.13.53c.03.12.04.25.24.28.03 0 .06.06.08.1.02.13.07.21.24.18.1 0 .09.06.11.1.13.22.39.12.59.04.26-.11.37-.5.14-.6L.8.27.47-.06C.24-.17.12-.16 0 0" clip-path="url(#aW)" transform="matrix(1.1077 0 0 -1.1077 12.06 14.52)"/><path d="M0 0a.72.72 0 0 0 .48.32C.63.34.76.37.86.18.88.15.94.14.98.14c.14.03.24 0 .27-.18.04-.1.1-.06.15-.08.26-.04.26-.34.25-.57-.02-.3-.37-.55-.56-.36l-.53.34c-.13.08-.3.15-.45.22-.2.18-.24.3-.11.49" clip-path="url(#aX)" transform="matrix(1.1077 0 0 -1.1077 9.73 13.42)"/><path d="M0 0c-.04-.05-.1-.07-.16-.03-.07.05-.02.1.02.15.09.1.24.16.49.09C.65.12.19.24 0 0m-1.64-.8c-.05.07-.27-.2-.24-.1l.23.55c.05.07.1.1.2.14.06 0-.03-.19.02-.22l.48-.38c-.18-.12-.59-.1-.7.01M2.6-2.34c-.01.22-.25.4-.5.42-.06 0-.13 0-.19.02-.05.02-.11.06-.1.16a2.25 2.25 0 0 0 .43 0c.15-.01.2-.06.35-.13-.04.22-.29.4-.54.39l-.17-.01c-.06 0-.18 0-.18.15.16.03.32.06.44.06.15 0 .23-.03.38-.08a.5.5 0 0 1-.56.31l-.18-.03c-.06 0-.16-.03-.19.09l.43.13a1.2 1.2 0 0 0 .4-.03.49.49 0 0 1-.58.24L1.66-.7c-.06-.02-.15-.06-.2.07.17.08.25.13.37.16.14.05.26.06.42.02-.14.2-.4.27-.61.16l-.19-.08a.14.14 0 0 0-.17.05c.1.08.2.15.29.18.14.06.25.08.42.1-.15.17-.42.16-.65.03l-.09-.04c-.06-.04-.15-.06-.2.03.2.18.47.24.6.23 0 .01-.2.11-.36.04a.2.2 0 0 1-.06.15c0-.13-.18-.26-.3-.34-.2-.16-.42-.3-.7-.35-.12-.02-.18 0-.21.04-.04.06-.01.13.1.14.22 0 .36.17.52.28.06.05.1.1.2.1C.3.38-.02.55-.35.12c-.08.19 0 .29.11.36.11.08.25.12.36.2.18.11.24.37.13.52C.14 1.1.2 1.03.08.85-.02.7-.1.7-.16.72c.02.06.1.19.12.26.04.11.04.1.06.24 0 0 .02.23-.07.25a.64.64 0 0 1-.13-.23C-.23 1.11-.36.74-.5.81l.09.26c.02.08.04.17.05.29 0 .05 0 .17-.07.22a1.53 1.53 0 0 1-.15-.26L-.77.86l-1.55 1c-.5.36-1 .73-1.56.98.22-.25.47-.43.7-.64.1-.1.18-.15.25-.16.15 0 .2-.06.23-.1.09-.05-.04-.05-.14-.05.09-.07.13-.14.2-.14.3 0 .28-.04.31-.07.16-.11-.1-.07-.17-.08a.4.4 0 0 1 .22-.16c.1-.01.23.03.3-.04.13-.1-.04-.07-.18-.08.1-.1.17-.19.3-.19.17 0 .21.04.33-.05.18-.12-.14-.1-.3-.1.13-.13.18-.17.27-.17.13 0 .31.04.4-.04.1-.09-.08-.1-.33-.1.06-.15.05-.26-.16-.43a.74.74 0 0 1-.3-.47c-.05-.39-.28-.7-.53-.96-.24-.23-.4-.4-.39-.78 0-.1.05-.27.12-.3.1-.04.24.01.36.05.14.04.27.12.4.18.03.02.07.01.06-.06l-.1-.5v-.11c0-.01.02-.03.04-.03.18-.09.48.1.52.32.04.22.36.57.55.58.43.03.79.2 1.03.58l.05.13c0 .06.05.06.06-.01L.2-1.36c-.06-.28-.28-.42-.5-.57-.08-.05-.19-.13-.2-.2a1.24 1.24 0 0 0-.27-.68 2.27 2.27 0 0 0-.45-.43c.07.01-.02-.26-.02-.26.1.07.2.06.25-.05-.02.2.47.35.45.33-.03-.17.03-.47-.05-.56.1 0 .14 0 .18-.15.02.1.09.2.17.13.25-.15.46-.35.63-.48.05-.04.02-.15-.1-.17.21-.08.68.04.68.04s.05-.27-.03-.35c.14-.1.33-.2.41-.3a.83.83 0 0 0 .23-.38c.11.2-.02.47-.22.63-.1.07-.18.14-.13.3.13-.08.23-.16.3-.25a.9.9 0 0 0 .24-.37c.11.2-.03.46-.23.61-.09.07-.22.14-.16.31v.02c.13-.09.25-.17.33-.25.1-.11.2-.18.24-.35.1.2-.04.43-.24.59-.09.07-.21.15-.15.33.12-.08.23-.15.31-.23.1-.1.2-.2.24-.34.1.2-.04.43-.25.58a1.23 1.23 0 0 0-.14.12c-.01.02-.1.06-.05.22.13-.08.25-.15.33-.23.1-.1.2-.2.26-.35.1.2-.06.45-.27.6l-.15.09c-.05.04-.14.07-.11.24.14-.07.27-.12.36-.19.12-.09.24-.17.3-.3.07.22-.12.43-.34.54l-.16.08c-.05.03-.1.08-.1.22a2.02 2.02 0 0 0 .37-.14.92.92 0 0 0 .34-.26c.04.22-.18.41-.42.49-.05.01-.11.05-.16.07a.24.24 0 0 0-.11.2l.4-.1a1.16 1.16 0 0 0 .36-.22c.01.23-.21.38-.46.43-.04.01-.1.01-.14.03-.04.02-.15.09-.14.2.15-.01.29-.02.4-.05a.94.94 0 0 0 .36-.18" clip-path="url(#aY)" transform="matrix(1.1077 0 0 -1.1077 27.7 7.09)"/><path d="M0 0c.09 0 .18.05.21.11s.02.2 0 .23C.2.34.15.36.11.3.06.2.08.13.07.09.06.05 0 0 0 0" clip-path="url(#aZ)" transform="matrix(1.1077 0 0 -1.1077 28.4 6.49)"/><path d="M0 0c.02-.02.02-.1-.02-.14C-.06-.18-.1-.2-.19-.18c.09.04.05.1.11.15 0 0 .06.05.08.03" clip-path="url(#ba)" transform="matrix(1.1077 0 0 -1.1077 28.92 6.31)"/><path d="M0 0c.1 0 .22.07.25.15a.5.5 0 0 1 0 .3C.22.45.18.47.14.4.06.27.1.17.08.12.06.07 0 0 0 0" clip-path="url(#bb)" transform="matrix(1.1077 0 0 -1.1077 28.05 6.44)"/><path d="M57.55 783.12h.01z" clip-path="url(#bc)" transform="matrix(1.1077 0 0 -1.1077 -48.68 892.79)"/><path d="m0 0 .38-.17.2-.08a10.73 10.73 0 0 1 4.73-.71 8 8 0 0 1 2.86.85l.4.24c.04-.13.05-.22-.08-.3a3.97 3.97 0 0 0-.37-.19 7.31 7.31 0 0 0-1.08-.43c-.3-.1-.6-.17-.9-.23a7.14 7.14 0 0 0-1.06-.11c-.61-.03-1.23-.01-1.85.05a13.38 13.38 0 0 0-1.7.34l-.8.27-.56.25C.1-.2.08-.18.03-.12 0-.1-.01-.02 0 0" clip-path="url(#bd)" transform="matrix(1.1077 0 0 -1.1077 12.02 32.31)"/><path d="m0 0-.3-.2c-.43-.27-.92-.44-1.4-.61-.24-.1-.5-.16-.75-.23a7.33 7.33 0 0 0-1.47-.26c-.26-.02-.68.04-1.1.13.91 0 1.68.08 2.15.2.67.14 1.32.34 1.93.66.2.1.4.23.58.38.1.1.3.01.36-.07" clip-path="url(#be)" transform="matrix(1.1077 0 0 -1.1077 22.3 33.02)"/><path d="M0 0c-.3.2-.5.53-.52.55.2-.06.43-.23.66-.4.27-.14.36-.2.68-.31.37-.14.65-.21 1.03-.32L2.9-.72a7.24 7.24 0 0 1 1.05-.1 4.05 4.05 0 0 0-1.57.04c-.31.06-.84.14-1.23.27A3.7 3.7 0 0 0 0 0" clip-path="url(#bf)" transform="matrix(1.1077 0 0 -1.1077 11.85 33.41)"/><path d="M0 0a4.84 4.84 0 0 0-3-1.98 9.83 9.83 0 0 0-1.67-.25c.73.14 1.4.33 1.92.55.53.22.85.36 1.3.68.03.04.1.08.16.05.23-.1 1 .63 1.29.95" clip-path="url(#bg)" transform="matrix(1.1077 0 0 -1.1077 23.88 32.11)"/><path d="M0 0c-.14.02-.6.18-.66.26C-.02.12.55.12 1.14.11l.45.01c.22 0 .53-.12.72-.13-.19-.05-.93-.1-1.17-.08C1.14-.1.51-.07 0 0" clip-path="url(#bh)" transform="matrix(1.1077 0 0 -1.1077 15.21 34.8)"/><path d="M0 0a12.49 12.49 0 0 0-1.24-.6.41.41 0 0 0-.23-.04c-.09.03-.11.1-.09.18l.3.1L-.2.08c.04.01.2.12.3.17C.11.08.04.02 0 0" clip-path="url(#bi)" transform="matrix(1.1077 0 0 -1.1077 21.37 31.96)"/><path d="m0 0-.33-.17-.67-.3c-.1-.05-.54-.2-.49 0L.11.2C.1.12.1.05 0 0" clip-path="url(#bj)" transform="matrix(1.1077 0 0 -1.1077 21.4 31.5)"/><path d="M0 0a6.27 6.27 0 0 0 1.6.08 3.58 3.58 0 0 0 0-.36L0-.08C-.07-.08-.05 0 0 0" clip-path="url(#bk)" transform="matrix(1.1077 0 0 -1.1077 22.81 29.99)"/><path d="M0 0c.33-.03.54 0 .43-.28L.34-.5C.27-.73.12-.72-.08-.72L0 0" clip-path="url(#bl)" transform="matrix(1.1077 0 0 -1.1077 23.76 30.89)"/><path d="M0 0c0-.1-.16-.17-.4-.28-.15-.07-.34-.16-.48-.18-.09-.02-.19-.04-.23.06l1.06.45C0 .07 0 .04 0 0" clip-path="url(#bm)" transform="matrix(1.1077 0 0 -1.1077 21.14 31.03)"/><path d="m0 0 1.49-.2c-.01-.07-.02-.11-.12-.1l-.84.12-.43.06C.01-.11 0-.06 0 0" clip-path="url(#bn)" transform="matrix(1.1077 0 0 -1.1077 22.06 31.77)"/><path d="M0 0c.1.01.21.02.31.01l1.45-.17-.07-.14-1.68.23C-.04-.06-.04 0 0 0" clip-path="url(#bo)" transform="matrix(1.1077 0 0 -1.1077 22.54 30.33)"/><path d="M0 0c-.09.09-.17.17.03.3l-.79.1c-.2.03-.29 0-.31-.18l-.05-.5.22-.03v.48c0 .08 0 .2.13.2.21-.07.23-.23.21-.42l.01-.18c.01-.03.07-.1.1-.11l.41-.08c-.23.18-.1.3.03.41" clip-path="url(#bp)" transform="matrix(1.1077 0 0 -1.1077 23.3 31.16)"/><path d="m0 0-1.11.2c0 .15.34.08.59.03C-.23.18 0 .13 0 0" clip-path="url(#bq)" transform="matrix(1.1077 0 0 -1.1077 15.94 32.67)"/><path d="M0 0c-.32.06-.65.19-.93.29C-.93.5 0 .22 0 0" clip-path="url(#br)" transform="matrix(1.1077 0 0 -1.1077 13.93 32.71)"/><path d="m0 0 .87-.15c0-.13-.32-.1-.5-.07S-.05-.12 0 0" clip-path="url(#bs)" transform="matrix(1.1077 0 0 -1.1077 14.92 32.78)"/><path d="M0 0c-.12-.14-.28-.1-.45-.07-.02 0-.22.05-.2.16.01.04.09.05.12.04.09-.01.17-.05.26-.08S-.1.02 0 0" clip-path="url(#bt)" transform="matrix(1.1077 0 0 -1.1077 13.78 32.04)"/><path d="m0 0-.47.07c-.05 0-.05.04-.05.11L.06.1C.06.03.03 0 0 0" clip-path="url(#bu)" transform="matrix(1.1077 0 0 -1.1077 23.18 32.5)"/><path d="M0 0c-.21.08-.51-.1-.76-.32s-.31-.11-.68.03c-.37.14-.82-.44-.82-.44s-.1.94.06 1.36c.19.22.8.6.87.15.06-.36.39-.43.53-.45.38-.05.8.35.8.35V0m0-.73C0-.79-.03-.9-.1-.9h-.64a1.3 1.3 0 0 1-.48-.11l-.65-.35-.25-.12-.17-.07c.22.44.55.88.86.92.13.01.28-.14.41-.13.23.01.42.18.55.3.22.2.43.18.45.14v-.4m-2.87-1.2c-.2-.07-.25-.08-.29.01L-3.99 0c-.1.25.06.28.12.18.17-.3 1.16-1.71 1.21-1.79.14-.17-.07-.25-.22-.3m-.43-.12c-.03-.07-.18-.12-.23-.13-.12-.04-.14.06-.21.34l-.38 1.46-.06.34c-.03.1.04.13.08.04a60 60 0 0 0 .77-1.85c.03-.08.05-.15.03-.2m-.71-.3c-.04 0-.1 0-.1.16l-.05 1.55.14-.55.24-1c.01-.09-.1-.1-.23-.15M-4.24.95c0 .06.05.15.11.23.15.2.31.38.5.59.02.02.04 0 .04 0l.32-.72c.07-.17-.03-.3-.2-.3l-.47.02c-.17.01-.3.08-.3.18m-.1 2.25c0 .04.02.22.08.08.03-.04.4-.91.53-1.21.05-.12.03-.2-.06-.3l-.38-.43c-.06-.07-.08-.04-.08.05l-.08 1.8m-.11-7.14c-.08-.01-.14 0-.16.12-.02.1.02.18.14.18.08.02.1-.08.11-.16.01-.08-.04-.14-.1-.14m-.48.66c-.31-.05-.47 0-.57.2l1.03.21c0-.2-.18-.37-.46-.41m-.63.66L-6.28.3c0 .06.06.15.19.22.1.06.13-.12.15-.17l.43-1.4.2-.72a.36.36 0 0 0 0-.21l-.17-.6c-.03-.05-.08-.07-.08-.04m-.23-.32h-.38c-.1 0-.11.11-.12.2l-.06 1.49-.03.85c0 .06-.04.4.01.4.05.02.13-.32.13-.35l.25-1 .33-1.36c.04-.18.04-.22-.13-.23m-.65 3.98-.05 1.32c-.02.48.01.42.08.16l.34-1.19c.03-.08.1-.25.03-.28l-.3-.09c-.06-.02-.1 0-.1.08m-.1 2.92-.03.6c0 .21-.01.27.03.19l.5-.8c.08-.14-.05-.13-.1-.13l-.26-.03c-.13 0-.14.01-.15.17m.27-1.14.9-1.42c.05-.08-.04-.13-.1-.15l-.22-.07c-.15-.06-.22.06-.26.21l-.4 1.4c.02.09.05.08.08.03m1.02-1.6c.1.06.14.03.13.14 0 .07-.1.02-.05.1l.12.26.38.79c.04.08.04.05.03-.04L-4.92.92c-.02-.06-.04-.17-.31-.23-.1-.02-.23-.07-.32-.1-.04 0-.02.03-.02.03s.25.55.31.59m.84 1.73.03-1.78c0-.11-.14-.21-.22-.29-.08-.06-.23-.01-.2.09l.36 2.09c.01.07.03.03.03-.11M-4.56.07c.04.14.1.1.07-.03L-5-2.74c-.03-.12-.21-.16-.38-.18-.06 0-.06 0-.03.08l.86 2.91M-5.69.5h.16l.63-.23c.09-.03.22-.06.18-.24-.1-.45-.24-.88-.38-1.31l-.06-.23c-.02-.06-.05-.15-.1.03L-5.85.39c-.06.16-.04.25.15.34l.1.06-.11-.22-.03-.02c-.1-.03-.05-.09.04-.06m1.32-2.4v-.57c0-.21-.04-.24-.18-.28-.1-.02-.23-.08-.3-.04-.04.03-.03.11-.02.19l.43 2.38c.01.06.05.18.05.1l.02-1.78m-2.25-.88c0-.1-.03-.14-.1-.14-.02 0-.38 0-.45.06s-.05.14-.03.27l.06.24.47 1.85c.02.06.04.05.03-.08v-.45l.02-1.3v-.45m-.76.04c-.02-.06-.04-.1-.08-.1-.09-.01-.25 0-.27.04-.02.06 0 .12.03.2l.81 2.7c.02.05.04.25.16.25.17 0 .1-.15.1-.2-.01-.14-.09-.43-.12-.56l-.37-1.46-.16-.56-.1-.3m-.53-.08a.4.4 0 0 0-.13.03c-.03 0-.05.06-.06.1l-.45 1.82c-.03.15-.08.25.07.32l.66.32c.05.03.12.07.12.1 0 .1-.1.04-.13.07l-.2.36c-.02.03-.02.05.02.05h.88c.18 0 .17-.15.14-.27l-.74-2.52c-.04-.12-.12-.38-.18-.38m-.32.03c-.07 0-.16 0-.19.04a.09.09 0 0 0-.02.04l-.02.07-.23 1.81c0 .06.04.07.06.02a40 40 0 0 0 .46-1.94c0-.04-.03-.04-.06-.04m-.36.05a.69.69 0 0 0-.13.02c-.05.01-.1.02-.13.07l-.01.25-.06 1.29c0 .04-.02.2 0 .25.03.05.06.05.08.05.11 0 .11-.23.12-.28.04-.19.18-1.5.18-1.56 0-.07 0-.1-.05-.09M-8.98 0c0 .14.01.2.07.23a.3.3 0 0 0 .09.03c.02 0 .07-.02.09-.06a.84.84 0 0 0 .03-.22c0-.1 0-.12-.12-.14-.07-.02-.15-.1-.16.16m-.05 1.18-.02.35c0 .07.09.03.1-.02.03-.06.15-.82.17-1.06 0-.04.02-.1-.05-.1h-.1c-.1 0-.07.17-.08.3l-.02.53m-.08 1.67-.02.64v.1c0 .09.02.03.04 0l.29-.44.23-.4c.05-.09 0-.14-.1-.15h-.08c-.34-.03-.35-.09-.36.25m-.06-5.22c0-.08 0-.2-.07-.2a1.04 1.04 0 0 0-.21.07c-.05.02-.06.05-.05.1.1.23.15.43.22.65l.05.19c.05.08.06-.06.05-.15l.01-.66m-.51-.5c-.14.08-.15.2-.06.32l.46-.16c-.08-.2-.22-.25-.4-.15m-.14.55c-.02.07.06.2.1.3l.18.34.16.34.07.17c.09.21.1-.04.09-.1l-.29-.97c-.02-.06-.06-.2-.12-.18-.06.02-.17.05-.2.1m-.39.04c-.07.02.01.1.03.15a2.58 2.58 0 0 0 .14.3l.4.83c.05.08.07.16.17.14.16-.04.15-.12.1-.26-.04-.15-.13-.34-.2-.51l-.23-.43a1.03 1.03 0 0 0-.09-.14c-.07-.2-.25-.1-.32-.08m-.47.13-.24.1c-.09.04-.1.15-.1.22l-.06.77c0 .11-.06.15-.14.15h-1.72c-.08 0 .2.18.22.2l1.6.9c.3.2.67.53.96.8l.57.58c.11.14.16 0 .13-.06l-.09-.23-.23-.49c-.15-.33-.64-1.05-.66-1.1-.02-.04-.22.01-.1-.13.04-.04.27-.05.33-.07.2-.06.53-.1.54-.23 0-.1-.08-.31-.08-.31l-.57-1.07c-.06-.1-.08-.12-.36-.03m-.73.26c-.14.05-.29.18-.55.4-.17.14-.46.46-.33.47h.9c.22 0 .2-.08.23-.21.02-.15 0-.37.01-.53.01-.16-.11-.19-.26-.13m.06-1.3c-.06-.03-.14.09-.2.16-.1.12-.13.26-.2.48-.13.37-.22.8 0 .66l.25-.15c.1-.1.1-.3.12-.33.04-.25.05-.36.06-.6 0-.13.02-.2-.03-.22m-.95.78-1.01.92c-.06.05-.34.3-.31.4.03.1.14.07.36.07h.37c.3 0 .4-.16.46-.24l.03-.04c.1-.12.18-.24.26-.49.06-.2.38-1.08-.16-.62m2.79 4.95c-.19-.02-.18.1-.16.16.1.27.22.53.33.8.03.07.06.08.06.01v-.76c0-.23-.08-.2-.23-.21m.28-1.24V.42c0-.03.01-.09-.03-.1-.04-.01-.12.02-.16.03-.12.03-.2.05-.3.1-.1.05-.02.17 0 .22l.28.65c.03.05.08.24.15.2.06-.06.06-.16.06-.21m-.27-1.59a.18.18 0 0 0-.13-.06 2.35 2.35 0 0 0-.54 0c-.11.02-.15.06-.06.18l.16.23c.04.08.09.17.16.26.02.03.02.05.05.06.04 0 .1-.03.14-.04l.41-.13c.1-.04 0-.18-.06-.28l-.13-.22m.26.01c-.06-.02-.11-.05-.13-.03-.04.03 0 .08.05.14l.05.08c.03.05.06.02.06-.04s.03-.13-.03-.15m1.21.36c.07-.11.11-.16-.03-.16l-.4-.01c-.11-.02-.14.06-.15.19l-.2 1.37c-.01.1.06.1.1 0 .12-.33.58-1.24.68-1.4m-.45 2.05c.14.1.2-.01.27-.1l.54-.67c.03-.04.04-.12.02-.16l-.32-.63c-.05-.1-.14-.07-.2.04-.13.25-.48 1-.51 1.12-.01.05-.02.08 0 .13.04.06.12.2.2.27m.66.36c.1.03.02.06-.14.07-.06 0-.02.03.02.06l.53.44c.07.06.26.2.35.18.09-.02.05-.09.04-.13-.01-.04-.4-1.34-.5-1.6-.03-.06-.07-.05-.09-.03-.2.24-.37.44-.53.71-.06.12.09.21.32.3m.68 1.18.39.95c.06.17.1.07.1 0v-.8c0-.07-.05-.11-.1-.14-.1-.04-.22-.1-.35-.12-.04-.01-.08.02-.04.1m.01-2.9L-7.73.6c-.12-.05-.1.01-.07.08l.21.44c.02.04.05.08.08.06.14-.1.24-.2.38-.31.07-.06.02-.1 0-.12m-.28.55c-.05.04-.04.12 0 .23.03.06.46 1.45.5 1.52.03.1.08.19.06-.05l-.12-1.73c0-.07 0-.3-.08-.26-.05.02-.3.23-.36.29m.66-.42c-.08.01-.12-.05-.1.25l.12 1.84c.02.22.06.2.06-.09l.02-1.74c0-.06.05-.26-.1-.26M1.05-.9H.18c-.12 0-.1.1-.1.17L.1 1.3H.01L0 .9C0 .8-.64.36-.9.52c-.12.07-.11.15-.12.25-.02.2-.1.36-.28.43-.25.1-.82-.19-1-.41-.18-.22-.17-1.92-.07-2.38h-.07c-.08.02-.16.16-.25.3l-.48.64-.5.76c-.16.23.04.25.29.34.2.07.31.19.52.19.27 0 .18.09.1.08-.19 0-.24.12-.28.2l-.43.93c0 .01-.09.15-.15.29l-.51 1.14c-.12.24-.24.47-.23.74a3.92 3.92 0 0 1 0 .39c-.34.1-.38.03-.62-.17-.12-.1-.38-.08-.46-.02.05-.15.23-.22.28-.23.23-.08.33 0 .59.05.06 0 .15.02.15-.03v-.15c-.03-.4-.15-.75-.28-1.12-.13-.37-.32-.73-.5-1.08-.03-.1-.07-.2-.14-.11-.1.14-.94 1.45-.98 1.64-.02.12.12.12.24.15.3.08.3.36.56.44.07.03.03.1-.1.08-.27-.03-.4.2-.5.37a8.07 8.07 0 0 0-.45.8c-.04.07-.03.17-.03.27l.01.23c-.12-.1-.33-.08-.45-.19-.17-.16-.16-.63-.57-.28.06-.07.1-.3.4-.3.14 0 .26.04.38.22.07.11.17.12.12.03l-.3-.75c-.1-.25-.2-.5-.34-.68-.04-.06-.05-.1-.17-.13-.03-.01-.15-.01-.15-.05s.02-.02.11-.03c.27-.05.13-.24-.08-.37l-.33-.28c-.18-.14-.28-.17-.41 0-.22.26-.39.58-.58.86a1.4 1.4 0 0 0-.21.85v.52c-.27-.02-.41-.19-.55-.32-.17-.16-.23-.36-.47-.38.17-.15.42-.07.69.14.08.06.2.09.2-.1v-.23a.63.63 0 0 0-.02-.2c-.08-.25-.2-.46-.3-.73-.1-.21-.18-.47-.32-.58a.41.41 0 0 0-.23-.1c-.19-.01-.14-.1-.11-.1l.52-.14c.18-.05.31-.3.23-.43l-.06-.08A8.31 8.31 0 0 0-11.18.28c-.29-.19-1.15-.64-1.45-.81-.23-.13-.5-.37-.72-.37-.05 0-.1.07-.1.2l.02 2c-.2 0-.17-.2-.38-.23-.16-.02-.18-.07-.19-.12l-.02-.44c.04-.01.1.02.13.05.22.14.2.07.38.1l-.02-1.39c0-.06-.02-.17-.13-.17h-.7c-.06 0-.06-.1.04-.12.08-.02.17-.01.25-.02a.38.38 0 0 0 .23-.12c.42-.45 1.24-1.2 1.42-1.35.12-.09.25-.19.38-.36l.6-.86c.23-.08.42-.23.63-.33l.99-.46c.28-.1.54-.18.83-.26l1.18-.29 1.07-.1a14.76 14.76 0 0 1 1.5.05c.41.04.82.12 1.23.2a5.54 5.54 0 0 1 1.47.53c.22.1.6.35.81.47-.05.09-.2.12-.3.04-.23-.14-.28-.2-.65-.36-.34-.15-.67-.3-1.03-.4a15.13 15.13 0 0 0-1.63-.3 9.58 9.58 0 0 0-5.4 1.1c-.27.2-.35.49-.33 1.1 0 .16.07.23.16.2l.16-.04.62-.22a9.67 9.67 0 0 1 1.69-.46c.17-.03.4-.07.65-.08 0 .07.02.11-.01.13-.04.03-.18.03-.18.14 0 .06.16.06.21.05.14 0 .24-.01.39-.03.05-.02.02-.26.01-.33l.68-.02c.08 0 .24 0 .24-.07 0-.08 0-.06-.34-.08-.04 0-.04-.05 0-.05.07 0 .14-.02.2-.06.1-.1.09-.23.08-.38 0-.24.14-.23.33-.23.4-.02.7.01.97.03.13.03.15.1.15.19l-1.03-.04c-.05.02-.04.05-.05.1-.01.05.05.06.21.06l.55.04c.16 0 .2.05.2.13h-.98c-.05 0 0 .18.09.18.72 0 .75.08 1.1.1.1 0 .27-.05.27-.21 0-.4.14-.38.26-.36.02 0 .22-.01.19.26 0 .16-.09.35-.01.46.1.13.3.17.49.26.15.07.09.1.06.2-.05.1.01.17.1.2l.7.27.35.14c.23.1.23.21.37-.06l.03-.1c.11.06.28.11.28.18.03.28.21.47.38.67.15.19.34.44.61.46h1.93c.05.09.14.2.01.2" clip-path="url(#bv)" transform="matrix(1.1077 0 0 -1.1077 23.8 28.37)"/><path d="M39.44 8.34v21h7.98c1.56 0 2.81-.15 3.75-.45a7.46 7.46 0 0 0 2.98-1.67 9.25 9.25 0 0 0 2.25-3.7c.42-1.26.64-2.75.64-4.48 0-1.97-.23-3.62-.69-4.96a9.15 9.15 0 0 0-2-3.4 7.02 7.02 0 0 0-3.17-1.94c-.91-.27-2.25-.4-4-.4zm21.2 0v21h7.16l5.1-.15a6.01 6.01 0 0 0 2.84-.99 5.6 5.6 0 0 0 1.82-2.16c.45-.9.68-1.83.68-2.79a5.06 5.06 0 0 0-3.98-5.07 4.88 4.88 0 0 0 2.14-1.85c.54-.82.8-1.72.8-2.7a4.7 4.7 0 0 0-.64-2.45 5.35 5.35 0 0 0-1.62-1.77 5.33 5.33 0 0 0-2.19-.86c-.81-.14-2.05-.2-3.7-.2zm19.68 0v3.55h6.23v17.45h4.23V11.9H97V8.34zm-15.44 3.5h2.43l3.63.07c.7.08 1.23.33 1.59.74.36.4.54.93.54 1.58 0 .67-.2 1.22-.63 1.64-.4.41-.98.66-1.7.75a42 42 0 0 1-3.08.07h-2.78zm-21.21.05h1.9c1.73 0 2.89.07 3.48.2.8.17 1.45.5 1.96 1a4.8 4.8 0 0 1 1.2 2.02c.3.87.44 2.12.44 3.74s-.15 2.9-.43 3.85a4.4 4.4 0 0 1-1.12 2.02c-.45.42-1.02.7-1.7.88-.53.13-1.38.2-2.57.2h-3.16zm21.2 8.3h3.43c1.93 0 3.18.1 3.75.3.59.2 1.03.52 1.34.96.3.43.45.97.45 1.6 0 .74-.2 1.34-.6 1.8-.39.43-.9.7-1.53.82-.41.1-1.38.13-2.9.13h-3.93z"/></svg>