<svg class="app-header__logotype--large govuk-!-margin-right-1" xmlns="http://www.w3.org/2000/svg" fill="currentColor" viewBox="0 0 10.412 11.087" height="35"><defs><clipPath id="A"><path d="M-24.911-58.075h147.147v69.542H-24.911Z"/></clipPath><clipPath id="B"><path d="M-25.47-57.753h147.147v69.542H-25.47Z"/></clipPath><clipPath id="C"><path d="M-25.506-58.167h147.147v69.542H-25.506Z"/></clipPath><clipPath id="D"><path d="M-24.922-57.683h147.147V11.86H-24.922Z"/></clipPath><clipPath id="E"><path d="M-25.485-57.358h147.147v69.542H-25.485Z"/></clipPath><clipPath id="F"><path d="M-24.933-57.257h147.147v69.542H-24.933Z"/></clipPath><clipPath id="G"><path d="M-25.966-57.4H121.18v69.54H-25.966Z"/></clipPath><clipPath id="H"><path d="M-25.51-56.983h147.148v69.542H-25.51Z"/></clipPath><clipPath id="I"><path d="M-25.987-57.015H121.16v69.542H-25.987Z"/></clipPath><clipPath id="J"><path d="M-26.005-57.767h147.147v69.542H-26.005Z"/></clipPath><clipPath id="K"><path d="M-13.242-55.336h147.147v69.542H-13.242Z"/></clipPath><clipPath id="L"><path d="M-10.842-58.589h147.147v69.542H-10.842Z"/></clipPath><clipPath id="M"><path d="M-12.24-57.294h147.147v69.542H-12.24Z"/></clipPath><clipPath id="N"><path d="M-11.846-55.96H135.3v69.542H-11.846Z"/></clipPath><clipPath id="O"><path d="M-11.285-58.146h147.147v69.542H-11.285Z"/></clipPath><clipPath id="P"><path d="M-7.945-54.588h147.147v69.542H-7.945Z"/></clipPath><clipPath id="Q"><path d="M-10.795-56.072h147.147V13.47H-10.795Z"/></clipPath><clipPath id="R"><path d="M-11.055-43.806h147.147v69.542H-11.055Z"/></clipPath><clipPath id="S"><path d="M-12.006-55.64h147.147v69.542H-12.006Z"/></clipPath><clipPath id="T"><path d="M-12.785-58.316h147.147v69.542H-12.785Z"/></clipPath><clipPath id="U"><path d="M-13.238-60.16H133.91V9.382H-13.238Z"/></clipPath><clipPath id="V"><path d="M-14.874-58.015h147.147v69.542H-14.874Z"/></clipPath><clipPath id="W"><path d="M-15.24-59.816h147.147V9.726H-15.24Z"/></clipPath><clipPath id="X"><path d="M-20.763-54.744h147.147v69.542H-20.763Z"/></clipPath><clipPath id="Y"><path d="M-28.48-57.168h147.147v69.542H-28.48Z"/></clipPath><clipPath id="Z"><path d="M-26.866-57.078h147.147v69.542H-26.866Z"/></clipPath><clipPath id="a"><path d="M-23.668-51.622H123.48V17.92H-23.668Z"/></clipPath><clipPath id="b"><path d="M-28.881-51.976h147.147v69.542H-28.881Z"/></clipPath><clipPath id="c"><path d="M-21.975-55.741h147.147V13.8H-21.975Z"/></clipPath><clipPath id="d"><path d="M-33.443-55.292h147.147V14.25H-33.443Z"/></clipPath><clipPath id="e"><path d="M-35.36-44.29h147.147v69.542H-35.36Z"/></clipPath><clipPath id="f"><path d="M-36.492-53.675h147.147v69.542H-36.492Z"/></clipPath><clipPath id="g"><path d="M-36.944-56.461h147.147V13.08H-36.944Z"/></clipPath><clipPath id="h"><path d="M-28.454-54.854h147.147v69.542H-28.454Z"/></clipPath><clipPath id="i"><path d="M-33.438-57.21h147.147v69.543H-33.438Z"/></clipPath><clipPath id="j"><path d="M-32.266-59.797h147.147V9.745H-32.266Z"/></clipPath><clipPath id="k"><path d="M-33.792-58.629h147.147v69.542H-33.792Z"/></clipPath><clipPath id="l"><path d="M-22.466-67.84h147.147V1.702H-22.466Z"/></clipPath><clipPath id="m"><path d="M-22.744-67.84h147.147V1.702H-22.744Z"/></clipPath><clipPath id="n"><path d="M-21.948-67.578H125.2V1.964H-21.948Z"/></clipPath><clipPath id="o"><path d="M-22.687-69.056H124.46V.486H-22.687Z"/></clipPath><clipPath id="p"><path d="M-22.502-68.778h147.147V.764H-22.502Z"/></clipPath><clipPath id="q"><path d="M-22.444-68.992h147.147V.55H-22.444Z"/></clipPath><clipPath id="r"><path d="M-22.742-68.992h147.147V.55H-22.742Z"/></clipPath><clipPath id="s"><path d="M-22.593-68.73h147.147V.814H-22.593Z"/></clipPath><clipPath id="t"><path d="M36 736.348h147.147v69.542H36Z"/></clipPath><clipPath id="u"><path d="M-19.174-66.63h147.147V2.912H-19.174Z"/></clipPath><clipPath id="v"><path d="M-26.825-65.623h147.147V3.92H-26.825Z"/></clipPath><clipPath id="w"><path d="M-25.489-62.31h147.147V7.234H-25.489Z"/></clipPath><clipPath id="x"><path d="M-19.667-62.736H127.48V6.806H-19.667Z"/></clipPath><clipPath id="y"><path d="M-25.485-62.736h147.147V6.806H-25.485Z"/></clipPath><clipPath id="z"><path d="M-25.815-62.716h147.147V6.826H-25.815Z"/></clipPath><clipPath id="AA"><path d="M-19.331-62.695h147.147V6.847H-19.331Z"/></clipPath><clipPath id="AB"><path d="M-20.665-65.429h147.147V4.113H-20.665Z"/></clipPath><clipPath id="AC"><path d="M-24.557-65.423H122.59V4.119H-24.557Z"/></clipPath><clipPath id="AD"><path d="M-19.366-63.792H127.78V5.75H-19.366Z"/></clipPath><clipPath id="AE"><path d="M-19.137-63.542H128.01V6H-19.137Z"/></clipPath><clipPath id="AF"><path d="M-22.83-64.33h147.148V5.214H-22.83Z"/></clipPath><clipPath id="AG"><path d="M-22.586-64.55H124.56V4.99H-22.586Z"/></clipPath><clipPath id="AH"><path d="M-26.161-63.807h147.147V5.735H-26.161Z"/></clipPath><clipPath id="AI"><path d="M-25.932-63.557h147.147V5.985H-25.932Z"/></clipPath><clipPath id="AJ"><path d="M-25.785-61.844h147.147V7.698H-25.785Z"/></clipPath><clipPath id="AK"><path d="M-25.07-61.692h147.147V7.85H-25.07Z"/></clipPath><clipPath id="AL"><path d="M-12.082-64.5h147.147V5.042H-12.082Z"/></clipPath><clipPath id="AM"><path d="M-12.174-64.514h147.147V5.028H-12.174Z"/></clipPath><clipPath id="AN"><path d="M-11.923-64.385h147.147V5.157H-11.923Z"/></clipPath><clipPath id="AO"><path d="M-12.091-64.916h147.147V4.626H-12.091Z"/></clipPath><clipPath id="AP"><path d="M-12.044-64.814h147.147V4.728H-12.044Z"/></clipPath><clipPath id="AQ"><path d="M-12.014-64.882h147.147V4.66H-12.014Z"/></clipPath><clipPath id="AR"><path d="M-12.113-64.898h147.147V4.644H-12.113Z"/></clipPath><clipPath id="AS"><path d="M-12.06-64.914h147.147V4.628H-12.06Z"/></clipPath><clipPath id="AT"><path d="M-12.031-64.226h147.147V5.316H-12.031Z"/></clipPath><clipPath id="AU"><path d="M-11.94-64.095h147.147V5.447H-11.94Z"/></clipPath><clipPath id="AV"><path d="M-12.153-63.789h147.147V5.753H-12.153Z"/></clipPath><clipPath id="AW"><path d="M-11.91-64.063h147.147V5.48H-11.91Z"/></clipPath><clipPath id="AX"><path d="M-13.569-63.88h147.147V5.664H-13.569Z"/></clipPath><clipPath id="AY"><path d="M-11.42-62.652h147.147V6.89H-11.42Z"/></clipPath><clipPath id="AZ"><path d="M-13.357-62.96H133.79V6.582H-13.357Z"/></clipPath><clipPath id="Aa"><path d="M-13.013-63.057h147.147V6.485H-13.013Z"/></clipPath><clipPath id="Ab"><path d="M-11.61-63.601h147.147V5.94H-11.61Z"/></clipPath><clipPath id="Ac"><path d="M-12.906-63.806h147.147V5.736H-12.906Z"/></clipPath><clipPath id="Ad"><path d="M-12.402-62.744h147.147V6.798H-12.402Z"/></clipPath><clipPath id="Ae"><path d="M-13.466-63.035h147.147V6.507H-13.466Z"/></clipPath><clipPath id="Af"><path d="M-11.315-62.637h147.147V6.905H-11.315Z"/></clipPath><clipPath id="Ag"><path d="M-13.506-63.402h147.147V6.14H-13.506Z"/></clipPath><clipPath id="Ah"><path d="M-12.388-62.939H134.76V6.603H-12.388Z"/></clipPath><clipPath id="Ai"><path d="M-18.007-60.775H129.14V8.767H-18.007Z"/></clipPath><clipPath id="Aj"><path d="M-18.428-58.984H128.72v69.542H-18.428Z"/></clipPath><clipPath id="Ak"><path d="M-17.306-60.177h147.147V9.365H-17.306Z"/></clipPath><clipPath id="Al"><path d="M-18.755-58.432h147.147V11.11H-18.755Z"/></clipPath><clipPath id="Am"><path d="M-20.007-59.867H127.14V9.675H-20.007Z"/></clipPath><clipPath id="An"><path d="M-16.708-57.881H130.44V11.66H-16.708Z"/></clipPath><clipPath id="Ao"><path d="M-20.216-57.66H126.93v69.54H-20.216Z"/></clipPath><clipPath id="Ap"><path d="M-18.52-56.68h147.148v69.543H-18.52Z"/></clipPath><clipPath id="Aq"><path d="M-18.004-58.492h147.147V11.05H-18.004Z"/></clipPath><clipPath id="Ar"><path d="M-18.941-58.695h147.147v69.542H-18.941Z"/></clipPath><clipPath id="As"><path d="M-18.337-57.993H128.81v69.542H-18.337Z"/></clipPath><clipPath id="At"><path d="M-18.9-58.157h147.146v69.542H-18.9Z"/></clipPath><clipPath id="Au"><path d="M-16.246-58.667H130.9v69.542H-16.246Z"/></clipPath><clipPath id="Av"><path d="M-20.41-57.846h147.148v69.542H-20.41Z"/></clipPath><clipPath id="Aw"><path d="M-18.836-56.516H128.31v69.542H-18.836Z"/></clipPath><clipPath id="Ax"><path d="M-16.726-57.51H130.42v69.543H-16.726Z"/></clipPath><clipPath id="Ay"><path d="M-32.95-63.229h147.147V6.313H-32.95Z"/></clipPath><clipPath id="Az"><path d="M-33.585-63.773h147.147V5.77H-33.585Z"/></clipPath><clipPath id="BA"><path d="M-34.055-63.93h147.147V5.612H-34.055Z"/></clipPath><clipPath id="BB"><path d="M-33.27-63.81h147.147V5.732H-33.27Z"/></clipPath><clipPath id="BC"><path d="M36 736.348h147.147v69.542H36Z"/></clipPath><clipPath id="BD"><path d="M-21.56-46.777h147.147v69.542H-21.56Z"/></clipPath><clipPath id="BE"><path d="M-18.796-40.46H128.35v69.542H-18.796Z"/></clipPath><clipPath id="BF"><path d="M-28.068-39.818h147.147v69.542H-28.068Z"/></clipPath><clipPath id="BG"><path d="M-18.647-39.463H128.5v69.542H-18.647Z"/></clipPath><clipPath id="BH"><path d="M-29.503-40.637h147.147v69.542H-29.503Z"/></clipPath><clipPath id="BI"><path d="M-21.679-38.21h147.147v69.542H-21.679Z"/></clipPath><clipPath id="BJ"><path d="M-27.237-40.775H119.91v69.542H-27.237Z"/></clipPath><clipPath id="BK"><path d="M-27.265-41.193h147.147v69.542H-27.265Z"/></clipPath><clipPath id="BL"><path d="M-28.538-42.554H118.61v69.542H-28.538Z"/></clipPath><clipPath id="BM"><path d="M-29.392-41.746h147.147v69.542H-29.392Z"/></clipPath><clipPath id="BN"><path d="M-27.033-41.617h147.147v69.542H-27.033Z"/></clipPath><clipPath id="BO"><path d="M-27.864-40.945h147.147v69.542H-27.864Z"/></clipPath><clipPath id="BP"><path d="M-28.288-42.246H118.86v69.542H-28.288Z"/></clipPath><clipPath id="BQ"><path d="M-28.987-41.497H118.16v69.542H-28.987Z"/></clipPath><clipPath id="BR"><path d="M-22.338-40.137h147.147v69.542H-22.338Z"/></clipPath><clipPath id="BS"><path d="M-20.516-40.1h147.147v69.542H-20.516Z"/></clipPath><clipPath id="BT"><path d="M-21.419-40.033h147.147V29.51H-21.419Z"/></clipPath><clipPath id="BU"><path d="M-20.382-40.7h147.147v69.542H-20.382Z"/></clipPath><clipPath id="BV"><path d="M-28.868-40.284H118.28v69.542H-28.868Z"/></clipPath><clipPath id="BW"><path d="M-29.429-44.012h147.147V25.53H-29.429Z"/></clipPath></defs><path d="M0 0c-.067.028.042.163.095.191A.99.99 0 0 0 .34.226S.283.138.272.049.067-.028 0 0" clip-path="url(#A)" transform="matrix(.352778 0 0 -.352778 5.985 4.045)"/><path d="M0 0c-.067.028.043.163.096.191A.99.99 0 0 0 .34.227S.283.138.273.049.068-.028 0 0" clip-path="url(#B)" transform="matrix(.352778 0 0 -.352778 6.183 4.159)"/><path d="M0 0c-.067.028.043.163.096.191A.99.99 0 0 0 .34.227S.283.138.273.05.067-.028 0 0" clip-path="url(#C)" transform="matrix(.352778 0 0 -.352778 6.195 4.013)"/><path d="M0 0c-.067.028.042.163.095.191A.95.95 0 0 0 .34.227S.283.138.272.05.067-.028 0 0" clip-path="url(#D)" transform="matrix(.352778 0 0 -.352778 5.99 4.184)"/><path d="M0 0c-.058.024.037.141.083.166s.21.031.21.031S.244.12.235.043.058-.025 0 0" clip-path="url(#E)" transform="matrix(.352778 0 0 -.352778 6.188 4.298)"/><path d="M0 0c-.058.025.036.142.082.166a.819.819 0 0 0 .211.031S.244.12.235.043C.226-.034.058-.024 0 0" clip-path="url(#F)" transform="matrix(.352778 0 0 -.352778 5.993 4.334)"/><path d="M0 0c-.058.024.037.141.082.166s.211.03.211.03S.244.12.235.043.058-.025 0 0" clip-path="url(#G)" transform="matrix(.352778 0 0 -.352778 6.358 4.283)"/><path d="M0 0c-.058.024.037.141.082.166s.211.03.211.03S.244.12.235.043.058-.025 0 0" clip-path="url(#H)" transform="matrix(.352778 0 0 -.352778 6.196 4.43)"/><path d="M0 0c-.058.025.037.142.082.166a.866.866 0 0 0 .211.031S.244.12.235.043C.226-.034.058-.024 0 0" clip-path="url(#I)" transform="matrix(.352778 0 0 -.352778 6.365 4.42)"/><path d="M0 0c-.058.025.036.141.082.166a.819.819 0 0 0 .211.031S.244.12.235.043C.226-.034.058-.024 0 0" clip-path="url(#J)" transform="matrix(.352778 0 0 -.352778 6.371 4.154)"/><path d="M0 0c-.147.147-.204.361-.151.562.08.3.064.524-.064.666a.43.43 0 0 1-.166.135c.072-.394.105-.73-.16-1.059.026.117-.116.353-.096.648.018.255.104.513.019.628.098-.072.348-.112.453-.131.237-.032.299-.146.381-.338.027-.063.129-.127.162-.197.043.11.097.196.116.253a.48.48 0 0 1-.011.287c.128-.013.19-.26.241-.316s.08-.095.172-.096c.038.107.03.187.042.29.016.134.069.237.02.389.074-.011.152-.107.192-.201.052-.12.031-.217.117-.289.087.056.128.155.152.211.069.191.115.348.126.577.1-.081.157-.087.257-.169.123-.099.192-.29.279-.349.272-.184.561-.329.845-.457.361-.164.7-.275 1.271-.403.236-.031.403-.044.62.014.099.027.319.035.371.036s.171-.032.298-.065c.206-.053.271-.275.269-.456-.201-.136-.384-.143-.696-.216-.247-.058-.473-.084-.664-.285-.041-.044-.093-.12-.178-.12.016.039.011.086-.023.132-.033.038-.077.064-.125.076-.078-.077-.095-.235-.203-.198.011.073-.091.105-.171.096s-.12-.09-.209-.078c.039.094-.075.184-.158.223-.026-.019-.12-.2-.229-.212.05.113-.058.281-.165.309-.031-.097-.083-.272-.228-.309.05.113.014.385-.17.412-.008-.16-.044-.258-.162-.339.052.434-.315.57-.656.673L1.444.43a.55.55 0 0 1-.249.05c-.025-.106.071-.319.169-.419A.57.57 0 0 0 .98.254C.91.336.905.408.844.555c-.127-.314.044-.408.167-.6-.493 0-.514.579-.516.61C.44.502.401.427.382.345a.57.57 0 0 1 .122-.401C.43-.045.276.05.244.148.206.268.216.208.205.334.196.429.199.674.16.772.102.687.071.588.069.485.109.228-.045.148 0 0" clip-path="url(#K)" transform="matrix(.352778 0 0 -.352778 1.869 5.011)"/><path d="M0 0c-.017-.201.094-.312.194-.504.118-.229.125-.565.008-.85a1.627 1.627 0 0 0-.189-.336C-.131-1.1-.323-.514 0 0" clip-path="url(#L)" transform="matrix(.352778 0 0 -.352778 1.022 3.864)"/><path d="M0 0c-.005-.135.2-.28.217-.503a1.13 1.13 0 0 0-.048-.403c-.043-.167.051-.267-.032-.476-.044-.11-.09-.218-.078-.377-.06.076-.286.481-.203.81.066.264.071.421.075.717A.5.5 0 0 0 0 0" clip-path="url(#M)" transform="matrix(.352778 0 0 -.352778 1.515 4.32)"/><path d="M0 0c-.217.15-.322.542-.248.743.143.392.103.427.088.827a.86.86 0 0 0 .062.344c-.005-.35.238-.461.238-.792C.14.979.147.75.064.559-.048.303-.027.075 0 0" clip-path="url(#N)" transform="matrix(.352778 0 0 -.352778 1.376 4.791)"/><path d="M0 0c.028-.181.132-.359.19-.467.08-.146.063-.47-.041-.793-.045-.14-.188-.317-.185-.457-.028.081.014-.055-.062.25-.083.334.087.5.111.757C.029-.531-.012-.185 0 0" clip-path="url(#O)" transform="matrix(.352778 0 0 -.352778 1.178 4.02)"/><path d="M0 0s.212.131.318.651.712.83.903.857a3.88 3.88 0 0 1-.48-.722C.52.378.163.075 0 0" clip-path="url(#P)" transform="matrix(.352778 0 0 -.352778 0 5.275)"/><path d="M0 0c-.134.34-.212.521-.559.715-.241.134-.407.163-.686.204-.444.065-.671-.029-.833-.114s-.296-.197-.443-.509c-.117-.246-.102-.468-.094-.691.058.276.151.498.332.68.166.165.357.28.441.305.273.079.438.008.438.008-.194-.043-.321-.08-.462-.175-.243-.165-.472-.479-.533-.724 0 0 .223.38.601.549a1.25 1.25 0 0 0 .809.123 1.02 1.02 0 0 1-.277-.149c-.174-.126-.305-.363-.439-.618-.196-.374-.344-.589-.503-.735.127.042.552.281.727.538s.326.6.382.669.24.17.356.136A.58.58 0 0 0-.535.088c.103-.118.232-.343.187-.732-.073-.626-.322-1.138-.869-2.063l-1.03-1.699c-.294-.666-.244-1.542.463-1.73.335-.107.822.099.822.099s.139.106.138-.206l.071 1.129s-.125-.491-.535-.519-.594.077-.637.371.141.803.283 1.044L-.51-2.321c.036.085.397.708.482 1.139S.134-.339 0 0" clip-path="url(#Q)" transform="matrix(.352778 0 0 -.352778 1.006 4.752)"/><path d="M0 0a3.21 3.21 0 0 0-.074.698C-.075.9.039.935.25.935.427.935.47.854.427.763.265.415.332.083.473-.222.275-.424.047-.223 0 0m-1.366 2.734c-.103-.468-.093-.67-.072-.878.055.069.11.11.161.106-.044-.118-.063-.244-.054-.369.053.082.099.129.176.152a1.19 1.19 0 0 1-.014-.402c.067.144.128.282.201.229l.069-.041c.059-.035-.062-.234-.083-.287s.073-.139.188-.171C-.9.664-.999.329-.913-.034a.5.5 0 0 1 .261-.361 2.16 2.16 0 0 0-.037.788c.02.162.1.32.172.47.039.079.137.048.18-.051.06-.141.059-.448.063-.601.014-.51.085-.783.579-1.027.198-.098.351-.043.458.049.071.061.202.199.122.323-.116.18-.065.212.101.191.201-.026.351.099.432.26.038.077.053.314-.099.295C.912.252.897.457.838.592s-.032.628.127.641c.085.007.125.104.095.228-.96-.01-1.933.437-2.426 1.273" clip-path="url(#R)" transform="matrix(.352778 0 0 -.352778 1.097 9.08)"/><path d="M0 0c.014-.127.283-.679.481-.24s.581-.425 1.345-.425 1.069.232 1.295.196.357-.203.262-.479c-.187-.545-.552-.864-1.359-1.642-.186-.238-.356-.488-.508-.748-.073-.147-.069-.254.001-.276.059-.019.12.009.182.09.141.184.175.435.424.582.156.092.85.366.85.366s.382.127.58-.085.311-.891.283-1.189a1.74 1.74 0 0 0-.779-1.316c-.636-.439-.353-.821-.198-.991s.981-.085.981-.085.328-.011.506-.29c.098-.156.098-.361.098-.361s-.363-.255-.636-.227c-.474.05-.68.255-1.076.241l-1.048-.014s-.354.047-.254.368c.155.502.359 1.035.306 1.348-.034.197-.366.18-.49.132s-.231-.116-.418-.02c-.074.038-.08.213-.103.338-.051.262-.055.601.049.954.054.183.053.172.083.234.064.131-.105.282-.232.02-.132-.278-.197-.584-.19-.892-.009-.452.287-1.378.23-1.803a1.57 1.57 0 0 0-.481-1.019c-.311-.311-1.302-1.5-1.302-1.5s-.396-.472-.142-.991c.177-.361.572-.295.751-.297.15-.002.24.063.474-.128.202-.165.242-.421.049-.453-.984-.163-1.394.021-1.911.326s-.424 1.118-.424 1.118-.022.403.615.864c.156.247.298.587.184.799l-.332.616s-.213.92-.184 1.288-.015.934.283 1.529.899 1.323 1.139 1.921S-.081-.822 0 0" clip-path="url(#S)" transform="matrix(.352778 0 0 -.352778 1.433 4.904)"/><path d="M0 0c0-.065-.013-.119-.041-.153C-.214-.121-.3.03-.353.138-.576.107-.662.165-.843.306c-.131.129-.233.285-.3.457-.112-.011-.297.13-.406.252-.193.201-.167.398-.339.651-.044-.474-.375-.808-.156-1.269.08.184.132.343.244.485a3.2 3.2 0 0 1 .028-.583c.021-.135.077-.301.156-.365a.57.57 0 0 0 .03.339.41.41 0 0 0 .197.258c.037-.092.03-.14.021-.238-.014-.098-.01-.198.013-.295.049-.202.109-.305.159-.442-.012.132.004.265.046.391.024.085.08.158.155.204.13-.224.108-.361.127-.575.018-.204.145-.277.181-.414.086.188-.073.495.191.673-.043-.267-.039-.452.047-.665.049-.12.179-.218.223-.391.03.247-.097.512.035.772.123-.123.08-.232.115-.361.051-.183.148-.283.096-.46.254.108.136.564.138.828.001.17.025.158.055.277C.154-.098.072-.054 0 0" clip-path="url(#T)" transform="matrix(.352778 0 0 -.352778 1.707 3.96)"/><path d="M0 0c-.068-.032-.068-.032-.135-.087-.05-.066-.031-.176-.003-.277.04-.144-.001-.25-.115-.274-.096-.02-.189.001-.243.124-.06.138-.078.252-.039.354A2.53 2.53 0 0 0-.85-.161c-.065.005-.155-.003-.207.056-.065.074-.141.242-.05.297.094.061.347.08.42.083-.067.184-.234.195-.295.313a.56.56 0 0 0-.048.406c-.014.001-.165-.034-.223-.039-.172-.015-.255.092-.284.222a.55.55 0 0 1-.181.295c.022.056.087.075.143.08.098.01.099.002.198-.008a.69.69 0 0 1 .245.02c.108.03.125.051.2.117.05-.087.057-.164.042-.313-.022-.16-.018-.322.012-.48.044-.185.15-.234.333-.199.191.036.188.116.183.246-.027.33-.265.432-.132.815.097-.084.235-.066.415-.031.11.022.22.114.378.046-.097-.149-.055-.193-.077-.332-.044-.286-.324-.325-.506-.308A.45.45 0 0 0-.183.67C-.231.487-.287.53-.306.346c.104.04.389.176.458.101C.236.265.254.12 0 0m.308-1.014c-.003.053-.009.15.058.214.091-.031.158-.109.176-.203.023-.132.023-.328-.031-.382.27.143.277.41.218.619-.052.168-.199.255-.17.398.226.035.287-.253.301-.396a.63.63 0 0 1 .079.447C.912-.211.756-.105.822.051c.072.001.113-.063.159-.13a.74.74 0 0 0 .106-.23.58.58 0 0 1-.031.424C1.004.241.92.259.891.472c.113.05.117-.09.249-.133.009.145.018.193-.114.384.043.043.131.009.183-.051.008.138-.129.312-.206.385.054.027.111-.001.161-.024.017.122-.064.235-.135.29-.087.069-.153.057-.226.125s-.175.209-.193.313c.077.008.178.018.265.058.124.053.228.144.297.26.093.139.13.312-.024.462a.41.41 0 0 1-.42.104c-.158-.05-.249-.217-.439-.122-.028-.091-.076-.108-.091-.115C.102 2.378 0 2.37-.1 2.386c-.222.006-.444-.001-.665-.023-.234-.028-1.135-.374-1.109-.159-.043-.212-.335.096-.643-.181a.47.47 0 0 1-.138-.54c.093-.223.318-.296.605-.243 0-.093-.039-.183-.107-.246s-.161-.124-.216-.28C-2.425.51-2.418.13-2.23-.037c-.027.213-.028.311.034.447.041.107.139.186.194.184a2.43 2.43 0 0 1-.073-.571c-.001-.203.001-.321.11-.505.006.227.083.515.205.534.126-.203-.023-.382-.052-.562-.033-.197.078-.29.209-.356-.038.095-.011.197.009.281.022.092.115.377.277.309-.162-.32-.159-.515-.081-.759.049-.156.204-.347.315-.37a.82.82 0 0 0-.136.423c0 .198.033.43.12.484.042-.043.102-.115.082-.274-.022-.173-.04-.23.013-.395a.88.88 0 0 1 .215-.337c-.061.351-.016.736.143.815-.021-.27-.041-.481.046-.645s.147-.365.147-.51c.072-.054.154-.098.213-.165a.9.9 0 0 1 .023.114c.031.208-.134.484-.123.598.111.008.214-.215.26-.341.146.069.275.172.416.253l-.028.371" clip-path="url(#U)" transform="matrix(.352778 0 0 -.352778 1.867 3.31)"/><path d="M0 0c-.108.094-.249.372-.198.461.143 0 .311-.248.456-.406s.393-.212.475-.436C.72-.078.639.118.432.288A4.06 4.06 0 0 1 .038.56c.03.019.049.014.119.014.064 0 .175-.062.229-.089.112-.057.151.002.27-.106C.68.402.528.637.449.708S.274.834.171.867C.006.916-.225.908-.365.968a1.09 1.09 0 0 0-.306.188C-.745.843-.822.732-1.05.546-1.138.475-1.18.44-1.232.481c-.044.036-.047.077-.052.121L-1.3.76-1.716.506l.001-.002c.056-.161.06-.335.013-.498-.065-.278-.019-.534.029-.798.031-.169.347-.481.363-.6.048.146-.121.46-.134.555-.02.159-.046.239-.044.389s.048.415.069.416c.062-.056.161-.27.147-.5-.014-.222.068-.37.184-.508.065-.078.175-.075.209-.239.034.1.036.208.007.309-.048.202.004.246.016.46.008.167.008.167-.03.338-.028.114-.006.267.042.324.064-.021.146-.238.145-.354 0-.106.011-.325.068-.441.081-.164.3-.302.289-.433.107.345.073.645-.045 1.005-.044.134-.123.298-.114.464.133-.05.25-.44.3-.582.037-.106.032-.108.1-.188.07-.092.162-.166.266-.216.202-.09.267-.215.353-.39.02.086.012.225-.054.406C.357-.287.234-.205 0 0" clip-path="url(#V)" transform="matrix(.352778 0 0 -.352778 2.444 4.066)"/><path d="M0 0c-.088.236-.28.204-.432.319A.824.824 0 0 0-.58.517.233.233 0 0 1-.534.265c.086-.087.207-.144.297-.229.122-.116.103-.259.303-.359-.281-.135-.452.256-.637.179.062-.355.472-.295.637-.578-.198.064-.31.03-.499.038a.802.802 0 0 0-.292.075c-.188.113-.168.188-.126.333.061.211.172.304.112.541a.915.915 0 0 0-.019.199c-.001.194.224.496.047.728.085-.06.195-.141.202-.275.02-.218.049-.393.271-.485C.089.297.021.019 0 0" clip-path="url(#W)" transform="matrix(.352778 0 0 -.352778 2.574 3.431)"/><path d="M0 0l-.678-.156c-.204-.051-.35-.049-.474.177-.096.174-.181.171-.181.171s-.009-.084-.13-.097c-.079 0-.158.006-.236.02-.17.039-.344.061-.519.063.088-.077-.012-.166-.069-.175-.231-.039-.525-.052-.764-.08.143-.072.171-.304-.028-.356-.147-.038-.376-.039-.508-.135.186-.127.047-.252.008-.287a.78.78 0 0 0-.26-.164c-.124-.049-.275-.106-.306-.186.254-.059-.053-.326-.14-.423-.098-.108-.157-.132-.178-.259.15.003.332-.04.241-.18l-.276-.497-.112-.233c.345.195.475.285.767.071.065-.048.097-.056.171-.04.093.02.169.055.243.109.162.116.267.089.328-.104.288.289.557.391.702.228l.306.365c.146.175.313.201.372-.042l.149.288c.069.123.122.291.225.312.047.01.095.022.138-.063.018.064.018.153.022.196l.032.511c.059-.126.077-.241.089-.449 0-.185.032-.392-.106-.615-.04.148-.085.315-.159.233-.168-.196-.266-.491-.428-.798-.002.085-.047.413-.158.376-.132-.045-.318-.354-.477-.568-.073.13-.106.165-.232.125a.56.56 0 0 1-.191-.104c-.141-.133-.174-.346-.212-.526a.59.59 0 0 0-.166-.308l-.114-.097.217-.156.499.255c.237.106.63.233.52-.046.12.01.226.096.273.145.169.177.267.366.455.399l.128.018c.077.098.167.179.255.267-.04.006-.113.07-.098.169.007.056.042.179.052.223.033.137.138.255.38.193l-.023.358c-.021.238.121.272.311.264l-.113.467c-.017.068-.034.137-.066.198-.131.252-.129.294.082.425a1.79 1.79 0 0 0 .688.249A1.64 1.64 0 0 1 0 0" clip-path="url(#X)" transform="matrix(.352778 0 0 -.352778 4.522 5.22)"/><path d="M0 0c-.003.064-.123.215-.041.272C0 .3-.061.371-.073.424-.081.455-.141.533-.149.565c-.016.063.02.082.002.146-.037.134-.146.275-.188.392-.045.126-.022.226-.063.293-.011.018-.125.096-.136.114-.074.119-.039.16-.102.248-.082.114-.202.171-.275.246s-.097.164-.171.215c-.024.017-.111.017-.129.039-.154.186-.334.158-.418.042l-.439-.642.055-.043c.005.01.012.02.019.03l.362.41c.046.047.155.131.236.084.046-.025.06-.081.039-.128-.064-.139-.209-.272-.318-.403.104.079.199.176.346.275.073.049.136.113.192.065.074-.065-.413-.475-.514-.591.105.039.454.339.542.372s.125.023.159-.011c.021-.021.043-.078.006-.123-.098-.164-.656-.484-.749-.582.453.266.871.455.959.326.039-.042.004-.124-.064-.165l-.58-.32c.145.037.517.206.622.21.077.004.157.031.22-.075C-.507.914-.632.834-.709.797-.779.764-.924.725-1.056.681l.547.04c.014-.015.076.024.086-.036C-.394.589-.554.571-.607.557l-.688-.189.549.075c.11.007.397.015.417-.061.03-.08-.002-.164-.102-.164C-.643.22-.893.179-1.137.15l.628-.008c.101.004.248-.01.274-.109.008-.032-.004-.12-.053-.123-.651-.05-.742 0-1.142 0-.002-.053-.027-.071-.042-.124l.44.006c.297.003.469-.041.765-.036.175.002.273.135.267.244" clip-path="url(#Y)" transform="matrix(.352778 0 0 -.352778 7.244 4.365)"/><path d="M0 0c.058.095.034.156.124.202C.089.22-.054.24-.011.273.055.329.006.4.084.451c-.183.085-.269.532-.232.56a.52.52 0 0 0-.233.235c-.022.072.022.208.09.256-.101.012-.161.108-.108.203l-.055.044-.039-.059c-.06-.091-.12-.116-.231-.077-.075.027-.24.022-.204.074-.052.003-.104-.003-.153-.019-.092-.026-.385.066-.3.097-.142.04-.271.015-.414-.085-.001-.001-.01.009-.016.013-.032.02-.048.072-.048.072s-.222-.103-.298-.186c-.089-.097-.222-.383-.272-.288-.054-.093-.061-.214-.089-.323-.012-.043-.07-.197-.094-.104-.066-.048-.073-.156-.068-.246.002-.053.028-.119.006-.157-.085-.148-.011-.256.065-.371.065-.097.014-.246.186-.304.155-.052.13-.236.029-.373-.128-.175-.285-.19-.494-.124.038-.14.014-.218-.045-.268.055-.091.094-.19.137-.286.243.123.472.262.671.457.097.096.212.061.302-.039.043-.049.08-.105.13-.144l.282-.193c-.02.137.443.005.571.005-.102.075.249.133.406.2-.151.2.217.155.312.277-.099.008-.148.036-.106.093l.246.21c-.087.041-.016.161-.023.23.049.001.098.044.146.045.016.054.04.071.043.124z" clip-path="url(#Z)" transform="matrix(.352778 0 0 -.352778 6.675 4.397)"/><path d="M0 0c-.106-.03-.205-.085-.306-.132C-.453-.2-.632-.124-.559.04c.094.144.169.306.286.427s.26.204.42.244L.124.885-.216.813C-.349.776-.371.877-.351.974c.053.268.169.495.381.659l-.028.279c-.134-.11-.293-.187-.463-.223-.034.164-.208.393.083.42-.106.094-.226.17-.302.276s-.106.239-.153.362a1.12 1.12 0 0 0 .429 1.189c.067.039.172.068.233.042s.096-.128.151-.209c.055.113.093.261.195.309l.227.112-.137.287a.46.46 0 0 0-.176-.076c-.192-.053-.38-.119-.563-.197-.032-.013-.125-.065-.171-.084-.33-.217-.387-.208-.507-.222.225-.188.031-.406-.117-.492-.119-.069-.29-.024-.371.033-.063.041-.117.095-.157.158a.49.49 0 0 0-.061.395c-.083.02-.171.03-.256.063.006-.026.005-.052-.003-.077-.023-.069-.078-.07-.118-.078-.083-.014-.168-.015-.252-.003-.195.021-.311.092-.207.359-.581-.428-1.296-.264-1.643.165a1.6 1.6 0 0 1 .159-.471c.133-.209.3-.335.51-.509.047.164.294.231.504.154l.496-.181c.049-.02.122-.04.114-.133-.006-.076-.087-.095-.136-.108l-.215-.051c.095-.079.176-.17.251-.268a2.26 2.26 0 0 0 .631-.002c.218-.03.253-.066.327-.173.095-.138.028-.259.026-.366.001-.057.007-.114.019-.17.127.223.242.203.377-.056.068-.13.135-.262.181-.4.063-.184.085-.289-.102-.46a.46.46 0 0 1-.156-.239c.375.237.325-.416.325-.5-.002-.25-.209-.37-.323-.557-.038-.063-.065-.086-.09-.194.195.141.217-.003.195-.17l-.014-.1c.236-.113.495-.208.758-.175.089.208.246.338.47.446a2.31 2.31 0 0 0 .285.113l-.024.21L0 0" clip-path="url(#a)" transform="matrix(.352778 0 0 -.352778 5.547 6.322)"/><path d="M0 0c-.014.105.06.229.193.312-.292.129-.564.161-.859.178-.143.009-.195.101-.112.238.029.048.049.056.131.141a1.83 1.83 0 0 1-.648.05c-.088-.008-.134.002-.163.042s-.035.088.018.162c-.06.021-.22-.029-.295-.04-.26-.038-.528.055-.785-.068-.051-.024-.181-.052-.23.054-.004.01-.016.054-.006.076-.044-.002-.087-.012-.127-.03-.204-.082-.397-.109-.612-.016a.15.15 0 0 1-.064.008c-.075-.006-.166-.053-.247-.062-.13-.016-.268.021-.397.005a.36.36 0 0 1-.199-.087C-4.437.932-4.494.917-4.515.88-4.652.643-4.866.576-5.09.531l.024-.174c.034.009.068.015.102.02.173.021.337.055.404-.178.015-.054.11-.082.156-.133.034-.037.066-.092.066-.139 0-.028-.059-.071-.099-.081l-.545-.138.024-.211.175.059c.171.059.348.112.527.142.127.021.239.029.401.032.282.004.389-.078.573-.247.045-.041.095-.091.197-.153-.011.074.014.107.078.149.029.018.182-.004.236-.031.146-.071.481-.29.546-.327 0 .117.083.104.127.113.315.004 1.338-.829 1.655-1.482.121.162.134.273-.129.582l-.5.563c-.038.044-.149.139-.092.235.046.088.117.083.184.074.088-.012.125-.04.194-.082.075.071.075.128.046.227.147-.07.312-.096.473-.073-.047.073-.032.109.055.133.238.051.453 0 .721-.089C.447-.348.264-.15 0 0" clip-path="url(#b)" transform="matrix(.352778 0 0 -.352778 7.386 6.197)"/><path d="M0 0c.358.016.487.302.798.448.046.023.093.05.105.081-.356.005.236.401.232.637-.177-.063-.112.122-.088.189l.162.431c.016.034.101.206.09.272-.056-.036-.107-.036-.163-.036-.007 0 .104.633.092.729-.063-.026-.192-.063-.183.043.023.27.087.389.164.564-.047-.013-.237-.019-.163.199.03.091.137.304.115.44-.276-.092-.122.208-.05.319.04.062.093.12.216.191-.091 0-.178 0-.269-.037a1.76 1.76 0 0 1-.31-.155c-.279-.169-.276-.173-.509.061-.226-.241-.325-.474-.483-.704-.058-.071-.156-.018-.24.14-.112-.16-.117-.464-.16-.682-.029-.15-.099-.15-.114-.152-.033-.004-.057-.012-.108.052-.037-.081-.035-.084-.051-.17-.028-.147-.023-.278-.031-.419-.007-.12-.044-.338-.182-.379.117-.096.177-.245.209-.418.033-.181.051-.251-.081-.308-.07-.028-.146-.035-.22-.021a.7.7 0 0 1 .074-.274c.098-.194.189-.512.072-.66.18.031.351-.059.515-.229.065-.059.113-.134.14-.217.085-.032.172-.042.256-.062.026.072.079.124.165.127" clip-path="url(#c)" transform="matrix(.352778 0 0 -.352778 4.95 4.869)"/><path d="M0 0c-.009.038-.252.606-.282.831-.046.334-.016.647.046.967.007.039.024.099.005.118l-.929.899c-.18.148-.492.36-1.227.785-.414.207-.637-.004-.886-.305-.166-.201-.303-.427-.453-.641-.039.079-.033.121.005.2.055.115.153.236.022.384-.191.214-.363.445-.537.673-.1.13-.346.641-.414.858-.094.194-.286.265-.489.29l-.832.093c-.242.048-.471.161-.713.214-.128.029-.274.005-.408-.018-.125-.022-.243-.086-.369-.11-.119-.022-.199-.049-.219-.193-.015-.091-.065-.173-.138-.229-.323-.22-.556-.476-.618-.894.283-.053.268.111.386.253v-.293c.431.005.841.287.673.679.018.008.042.028.054.023.169-.075.314-.067.462.069.056.051.18.053.269.042.374-.047.738-.122 1.052-.355.276-.206.507-.438.621-.776l.608-1.684c.037-.095.114-.192.307-.179.14.009.275.034.413.048.088 0 .04-.09.031-.131-.039-.084-.205-.14-.31-.14-.554.001-1.098-.19-1.66-.071-.141.026-.287-.004-.406-.085-.218-.183-.421-.385-.626-.584.155-.087.301-.191.443-.292.303.263.754.318 1.179.219l.717-.179a6.54 6.54 0 0 0 .757-.268c.19-.079.373-.183.543-.3a.38.38 0 0 1 .467-.001c.229.149.448.263.695.382.165.079.245-.064.161-.098l-.389-.27c-.078-.054-.165-.102-.235-.164-.221-.195-.369-.182-.585-.14-.14.028-.255.157-.395.189-.133.016-.143-.059-.058-.14l.416-.448c.178-.214.438-.243.676-.324.111-.039.218-.099.332-.12.163-.031.339-.075.495-.044.385.075.753.175 1.083.436.257.202.267.446.271.696A.42.42 0 0 1 0 0" clip-path="url(#d)" transform="matrix(.352778 0 0 -.352778 8.995 5.027)"/><path d="M0 0c-.033-.057-.108-.123-.163-.123-.066.002-.17.055-.191.111-.088.235-.129.475-.201.715-.026.169.055.235.174.286.063.032.138.034.203.007s.115-.082.137-.15C.059.575.165.286 0 0m-.721-.511c-.096-.166-.418-.159-.437.055l-.044.349c-.068.44-.1.894-.331 1.29a4.96 4.96 0 0 1-.854 1.096c-.716.721-1.486.919-2.433.991-.342.026-.689-.018-1.034-.017-.122 0-.236.067-.238.201-.001.062.007.132.118.193.179.098.327.141.592.17.193.021.462.018.658.018.938.005 1.707-.371 2.217-.716.408-.277.873-.849 1.151-1.245A4.17 4.17 0 0 0-.686.462c.084-.278.117-.707-.035-.973m-5.573 4.302c-.082-.018-.237-.04-.269.054-.058.123.038.214.098.248a5.09 5.09 0 0 0 .781.366 2.76 2.76 0 0 0 1.247.142c.163-.019.279-.133.277-.299-.003-.196-.138-.221-.289-.225l-.299-.001c-.31-.004-.7-.022-1.033-.118l-.513-.167m-13.024-.697c-.082-.111-.155-.124-.236-.123a1.05 1.05 0 0 0-.389.09c-.567.244-1.145.231-1.723.103-.353-.074-.695-.194-1.016-.358-.253-.141-.486-.315-.694-.517l-.377-.346c-.034-.03-.119-.085-.196.003-.046.037-.074.077-.011.202.075.147.109.226.188.315.25.284.431.507.788.742.293.193.442.294.769.409.255.089.712.161.987.171.483.017.967-.008 1.422-.192a1.86 1.86 0 0 0 .432-.238c.097-.071.114-.183.056-.261M-2.68 4.151c-.138-.069-.282.077-.378.174-.116.118-.162.35-.116.431.094.168.202.208.402.064.315-.212.264-.582.092-.669M.301.417c-.061.274-.187.598-.259.885-.034.135.006.217.12.281-.082.203-.212.362-.352.526l-.018-.058c-.021-.058-.115-.082-.159-.022-.45.924-1.138 1.506-1.981 2.046.134.563-.095.901-.624 1.079-.271.022-.412-.215-.43-.249-.115-.216-.021-.515.082-.69a.71.71 0 0 1 .633-.346c.112.004.231-.081.335-.144.455-.27.87-.603 1.232-.988.183-.202.298-.39.444-.624.033-.054.095-.228.002-.281-.119-.069-.199.026-.336.184l-.519.551-.541.544a4.66 4.66 0 0 1-.808.528l-.784.374c-.055.027-.134.1-.129.143.031.282-.136.486-.266.7-.046.075-.145.123-.228.171-.163.094-.123-.091-.185-.138a.3.3 0 0 0-.165-.057c-.64.01-1.272-.141-1.838-.439-.115-.059-.215-.175-.337-.122-.09.039-.133.204-.203.314-.141.221-.183.361-.334.575-.193.28-.419.537-.671.765-.622.529-1.318.93-2.198.931-.511 0-.982-.1-1.452-.26-.127-.042-.241-.123-.366-.173-.05-.02-.133-.028-.165 0s-.029.113-.01.162c.005.014.011.026.017.039-.263-.032-.523.063-.759.175-.012-.083-.014-.081-.037-.181-.016-.071-.135-.138-.183-.081l-.199.246c-.215.255-.431.378-.71.507a3.38 3.38 0 0 1-1.422.345c-.019 0-.038.002-.057.005l-.256-.267c.293.031.602.002.893-.05a1.93 1.93 0 0 0 .846-.367 1.44 1.44 0 0 0 .417-.446c.097-.168.06-.228.043-.246-.05-.052-.142-.101-.34-.023l-.62.223c-.544.174-1.122.215-1.685.121-.53-.084-1.057-.359-1.468-.696-.349-.287-.602-.597-.929-.912-.065-.062-.156-.142-.232-.139-.225.01-.309.171-.183.357.181.264.376.519.585.76.162.187.229.252.431.403.077.058.278.203.367.244l-.217.156-.762-.627c-.277-.269-.502-.59-.763-.876-.154-.169-.121-.146-.335-.164-.073-.229-.294-.728-.185-.772.325-.129.545-.165.865 0 .103.054.226.074.344.091.082.012.121.005.153.074.22.463.373.586.708.946.297.321.674.595 1.04.763.243.112.669.199.931.21.501.02 1.031.077 1.424-.354.052-.059.071-.139.052-.215-.014-.066-.108-.07-.165-.068l-.612.048c-.341.017-.694.015-1.019-.066a2.94 2.94 0 0 1-1.385-.792c-.264-.277-.459-.465-.631-.845-.085-.187-.144-.387-.226-.576-.102-.236-.269-.281-.468-.125-.478.375-1.032.526-1.625.555-.254.016-.509.012-.762-.013-.413-.047-.612-.074-.997-.194s-.931-.437-1.312-.832c-.272-.28-.39-.383-.615-.688-.176-.238.013-.673.297-.699.275-.025.396.184.554.338.094.093.164.191.267.294.155.155.348.291.538.399a2.86 2.86 0 0 0 .834.338 3.41 3.41 0 0 0 .912.079c.356-.014.63-.047.869-.309.106-.117.133-.261.092-.374-.031-.087-.24-.015-.326.02-.424.174-.885.232-1.339.17a1.49 1.49 0 0 1-.538-.17c-.221-.125-.448-.278-.608-.474-.2-.246-.481-.595-.402-.638.041-.024.151.061.196.105l.594.583c.476.395.925.399 1.572.257.265-.057.524-.219.781-.313.228-.084.411.022.4.224-.024.447.261.816.701.857.165.016.34-.05.507-.093.192-.051.311.009.357.201.039.163.004.237-.011.355l-.036.284c-.029.322.163.606.417.909.191.229.554.495.809.647.495.296 1.036.4 1.605.273.253-.058.501-.145.749-.222.365-.112.624.039.701.381.007.033.022.063.043.089.145.182.331.163.512-.049.222-.262.628-.279.835-.032.137.163.237.387.41.483.336.186.7.359 1.074.432.52.101 1.152.082 1.653-.141.311-.138.462-.196.813-.471.578-.45 1.029-1.018 1.235-1.741.083-.294.057-.373.036-.606-.014-.155-.189-.27-.305-.226-.059.022-.103.078-.104.178-.005.508-.218.754-.457 1.106-.175.26-.382.497-.615.706-.313.279-.586.511-1.269.715-.298.089-.47.077-.795.064-.418-.017-.773-.117-1.047-.424-.146-.164-.15-.466-.014-.569s.313-.126.464-.051c.167.08.191.243.171.401-.021.172.04.265.202.313a1.85 1.85 0 0 0 1.593-.244c.372-.244.707-.532.968-.913.181-.265.387-.476.477-.834.024-.097-.006-.257-.023-.361-.039-.245.065-.531.392-.478.217.035.417.092.505.295l.161.365c.1-.292.173-.407.476-.461.006-.001.036-.083.042-.099a.47.47 0 0 1 .645-.244c.3.136.62.132.939.145.751.031 1.399-.203 1.974-.691a4.8 4.8 0 0 0 .79-.888c.241-.335.405-.747.448-1.186.021-.212.037-.337-.189-.426-.187-.074-.254-.286-.223-.45s.143-.334.369-.336c.152-.002.304-.007.453-.031.361-.058.67.126.751.464.032.132.093.182.239.146.34-.082.44.029.503.339C.4.087.345.222.301.417" clip-path="url(#e)" transform="matrix(.352778 0 0 -.352778 9.672 8.908)"/><path d="M0 0l-.52.745-.356.502c-.205.341-.326.428-.446.982a2 2 0 0 0 .011.805c.046.231.153.323.302.318.128-.004.2-.067.279-.167a.44.44 0 0 0 .104-.382c-.034-.172.295-.37.302-.735.096.659-.08 1.069-.427 1.367a.54.54 0 0 0 .22-.008c.384-.132.4-.679.382-1.028l-.021-.881c.021-.147.06-.552.479-.817-.228.342-.329.456-.295 1.003.032.494.014.632-.009.871-.034.358-.123.51-.163.597s-.126.17-.126.17a.65.65 0 0 0 .261-.277c.098-.191.173-.365.174-.649l-.006-.628c-.018-.413.064-.62.241-.873A2.03 2.03 0 0 1 .95.435c-.453.589-.593.836-.619 1.245-.019.3.02.571-.023.852-.087.564-.29 1.049-.762 1.293-.072.037-.218.074-.427.092.114.035.479.099.87-.223.184-.151.267-.415.409-.557.348-.348.414-.509.57-.803-.012.02-.258.888-.671 1.334-.231.249-.621.365-.629.368-.636.196-1.225-.256-1.378-.852a2.59 2.59 0 0 1-.075-.733c.01-.322.086-.577.27-.943.246-.49.405-.698.735-1.152l.69-.987c.132-.223.237-.378.291-.717.084-.521-.229-.641-.562-.579-.534.101-.798.5-1.065.914-.24.372-.442.769-.657 1.157l-.119.213c-.038.066-.59.853-.971 1.583L-5.895.846c.374-.393.662-.412.994-.737.216-.213.292-.238.501-.496.064-.075.159-.164.209-.246a4.03 4.03 0 0 0 .271-.511c.023-.053.101-.26-.008-.249-.072-.001-.132.145-.157.212-.077.209-.135.326-.331.4l-.714.239c-.42.139-.831.16-1.264.011-.159-.068-.292-.229-.312-.252-.297-.337-.292-.875.059-1.253.261-.279.477-.42.691-.735.117-.171.211-.457.248-.765l-.568-.099a1.29 1.29 0 0 0-.439.036c-.329.098-.609-.009-.827-.225-.192-.189-.324-.44-.485-.669.497-.122.825.008.945.091.237.163.504.232.774.272l1.272.134c.211.025.226.216.2.355s-.144.433-.179.646c-.014.109-.027.234.016.319.073.142.286.153.467.06.11-.057.215-.105.339-.154.133-.052.236-.031.281.159.094.402.085.542.302.992.037.077.104.387.135.528.019.085.126.086.125-.005-.02-.168-.032-.324-.077-.485s-.141-.31-.182-.472c-.131-.513-.136-.786-.172-1.182a1.58 1.58 0 0 1 .33-1.103 2.05 2.05 0 0 1 1.058-.728c.339-.095.667-.23.792-.602.151-.446.346-.897.315-1.373-.001-.08-.014-.159-.036-.235.141-.164.271-.323.353-.526l.035.018c.092.043.196.129.225.218.045.14.056.301.038.448L-.836-6.03c-.027.206-.013.418-.035.625-.027.246-.019.515-.331.618a1.27 1.27 0 0 0-.286.157c-.329.22-.45.94-.192 1.253.248.3.309.669.423 1.018.067.204.147.273.31.138.237-.198.726-.246 1.028-.177a.75.75 0 0 1 .566.477c.139.335.032.822-.169 1.2C.307-.4.208-.299 0 0" clip-path="url(#f)" transform="matrix(.352778 0 0 -.352778 10.07 5.598)"/><path d="M0 0c.031-.136.075-.288.085-.54.007-.182-.018-.46.028-.622.102-.365.402-.71.402-.71s-.242.503-.147.925c.055.24.007.361-.062.466C.256-.405.181-.255 0 0" clip-path="url(#g)" transform="matrix(.352778 0 0 -.352778 10.23 4.615)"/><path d="M0 0c-.156-.003-.368.001-.188.33C-.549.348-.769.215-.981.256c-.075.015-.12.025-.148.124a.44.44 0 0 0 .021.166c-.074-.037-.139-.042-.177-.014-.103.075-.037.13-.002.18.045.064.098.122.157.173-.143.105-.29.202-.443.292l-.273-.258c-.124-.12-.269-.216-.428-.284-.062-.023-.113-.002-.186.074-.049.052-.12.124-.219.138-.188-.41-.559-.499-.749-.208-.143-.051-.264-.15-.341-.281-.077-.117-.184-.191-.292-.193-.083-.002-.115.01-.15.07-.086-.057-.162-.128-.225-.209-.104-.146-.175-.315-.121-.528.037-.146.034-.299-.009-.443-.034-.144-.11-.274-.218-.374l.028-.28c.037.029.076.055.117.079.102.059.397.155.598.121.246-.041.483-.094.643-.341.111.131.163.187.128.333.237-.057.396-.25.513-.348.021.054.04.114.088.167.051.068.12.08.188.089.158.02.218-.033.364-.159.221.25.321.267.818.067-.028.212.104.322.347.265s.32.049.494.237c.067.072.225.111.305.174-.183.166.057.284.112.308.238.104.419.21.563.462.058.1.167.133.217.174C.375.114.254.005 0 0" clip-path="url(#h)" transform="matrix(.352778 0 0 -.352778 7.235 5.182)"/><path d="M0 0c.136.134.534.427.791.485L.623.783A.45.45 0 0 0 .467.451.42.42 0 0 0 .456.762C.361.683.255.617.142.568.25.54.327.505.387.41.272.356.05.279-.107.471-.21.596-.222.764-.101.87c.04.034.106.056.165.002S.051.717.003.694C.115.673.363.827.26.955c-.08.101-.295.062-.4-.006.068.127.1.343-.005.414-.137.092-.272-.163-.269-.253.066.069.165.1.201.067.033-.028.034-.12-.025-.183-.103-.11-.309-.08-.434.016-.139.106-.179.296-.042.516.069-.072.167-.23.166-.339a1.38 1.38 0 0 0 .249.325c-.126-.032-.271.039-.354.085.098.083.227.121.354.104l-.431.33c.057-.131.02-.25-.025-.354-.066.068-.169.188-.17.316a1.44 1.44 0 0 0-.25-.325c.103.029.278-.023.366-.069-.177-.19-.384-.164-.511-.083-.136.087-.263.255-.178.409.042.076.159.056.195.032s.055-.113.006-.194c.1.069.265.225.14.333-.095.083-.252.007-.357-.092.038.119-.007.338-.132.372-.154.042-.213-.222-.164-.325.01.052.085.164.151.122s.045-.137.02-.183c-.077-.139-.248-.155-.394-.077-.231.125-.241.344-.138.459.109-.032.164-.099.22-.197a1.34 1.34 0 0 0 .106.354c-.09-.063-.201-.088-.309-.069a.45.45 0 0 0 .282.238l-.331.085c.012-.254-.197-.712-.265-.892C-1.198 1.164-1.058 1.067 0 0" clip-path="url(#i)" transform="matrix(.352778 0 0 -.352778 8.993 4.35)"/><path d="M0 0c-.118-.07-.2-.101-.247-.184a2.13 2.13 0 0 1-.136-.449c.094.07.301.259.344.336S-.02-.064 0 0" clip-path="url(#j)" transform="matrix(.352778 0 0 -.352778 8.58 3.438)"/><path d="M0 0c-.043-.13-.057-.216-.129-.28-.128-.09-.266-.166-.411-.227.049.108.192.349.258.408S-.058-.033 0 0" clip-path="url(#k)" transform="matrix(.352778 0 0 -.352778 9.118 3.85)"/><path d="M0 0v.543A.67.67 0 0 1-.525 0z" clip-path="url(#l)" transform="matrix(.352778 0 0 -.352778 5.123 .6)"/><path d="M0 0h.522A.67.67 0 0 1 0 .543z" clip-path="url(#m)" transform="matrix(.352778 0 0 -.352778 5.22 .6)"/><path d="M0 0a.673.673 0 0 1 1.311 0Z" clip-path="url(#n)" transform="matrix(.352778 0 0 -.352778 4.94 .693)"/><path d="M0 0c.032.161.107.314.245.486h-.676C-.294.314-.219.161-.187 0A.165.165 0 0 0 0 0" clip-path="url(#o)" transform="matrix(.352778 0 0 -.352778 5.2 .171)"/><path d="M0 0c-.027-.167-.066-.351-.223-.476.238.114.4.118.666 0-.132.096-.225.31-.259.477A.168.168 0 0 0 0 0" clip-path="url(#p)" transform="matrix(.352778 0 0 -.352778 5.135 .27)"/><path d="M0 0a.818.818 0 0 0-.452.273v-.702c.11.143.287.232.456.274A.158.158 0 0 0 0 0" clip-path="url(#q)" transform="matrix(.352778 0 0 -.352778 5.115 .194)"/><path d="M0 0a.158.158 0 0 0-.004-.155.828.828 0 0 0 .456-.274v.702A.818.818 0 0 0 0 0" clip-path="url(#r)" transform="matrix(.352778 0 0 -.352778 5.22 .194)"/><path d="M0 0a.189.189 0 0 0 0 .377A.189.189 0 0 0 0 0" clip-path="url(#s)" transform="matrix(.352778 0 0 -.352778 5.168 .287)"/><path d="M58.191 801.35h.824v2.059h-.824z" clip-path="url(#t)" transform="matrix(.352778 0 0 -.352778 -15.503 284.3)"/><path d="M0 0c.117.107.55.466 1.044.437.367-.021.644-.159.868-.27.063-.031.122-.06.179-.085a2.77 2.77 0 0 1 .949-.19c.035 0 .068.001.099.004l.021.002-.012.148-.021-.002a2.002 2.002 0 0 0-.349.015l.014.08a.216.216 0 0 1 .153.206.216.216 0 1 1-.352-.166L2.578.092a2.244 2.244 0 0 0-.536.177l.044.095a.215.215 0 1 1-.185.083L1.86.358a2.56 2.56 0 0 1-.395.156l.026.107a.215.215 0 0 1-.064.421.216.216 0 0 1-.216-.216c0-.067.032-.127.081-.166l-.024-.1c-.068.012-.14.021-.215.026A1.156 1.156 0 0 1 .886.583L.872.662A.216.216 0 1 1 .674.62L.686.549A1.63 1.63 0 0 1 .307.398L.263.473a.216.216 0 1 1-.188-.11l.017.002.042-.072A2.074 2.074 0 0 1-.1.11 1.005 1.005 0 0 1-.185.023l-.053.04a.216.216 0 1 1-.426.049.216.216 0 0 1 .292-.202l.065-.049a1.426 1.426 0 0 1-.159-.338l-.084.02a.216.216 0 1 1-.053-.195l.091-.022a1.324 1.324 0 0 1-.002-.403L-.6-1.096a.218.218 0 0 1-.16.072.216.216 0 0 1 0-.432c.101 0 .186.07.209.163l.081.019c.036-.129.086-.253.14-.367l-.082-.043a.216.216 0 1 1 .095-.179l.08.042c.071-.129.139-.233.182-.295l.005-.021.004-.021.018.004.019-.026.013-.017.094.07.001.001v.001l.024.017-.013.017-.024.033c-.025.153-.087.636.116.839a.602.602 0 0 0 .454.195c.072 0 .145-.01.216-.019l.099-.012.024.047c.094.188.264.391.458.394h.018c.239 0 .473-.087.782-.289a1.09 1.09 0 0 1 .614-.172c.066 0 .124.004.171.008.036.002.07.005.091.004l.021-.001.008.148-.021.001c-.029.002-.065-.001-.11-.004s-.102-.008-.163-.008a.937.937 0 0 0-.529.149c-.336.219-.594.312-.865.312h-.019C1.159-.47.963-.758.887-.895c-.07.009-.148.019-.229.019a.748.748 0 0 1-.561-.238c-.162-.162-.194-.438-.188-.663-.111.196-.235.459-.275.718C-.463-.444-.048-.044 0 0" clip-path="url(#u)" transform="matrix(.352778 0 0 -.352778 3.961 1.027)"/><path d="M0 0a.216.216 0 0 1-.16-.072l-.086.02c.022.141.019.276-.001.403l.09.021A.216.216 0 1 1 0 .736.216.216 0 0 1-.21.568l-.084-.02c-.04.125-.096.239-.159.338l.066.049A.21.21 0 0 1-.311.92a.216.216 0 1 1-.21.167l-.053-.04a1.417 1.417 0 0 1-.085.087 2.109 2.109 0 0 1-.235.183l.043.072.016-.002a.216.216 0 1 1-.216.216c0-.038.011-.074.029-.106l-.045-.074c-.111.06-.24.115-.379.15l.013.071a.218.218 0 0 1 .156.207.216.216 0 0 1-.432 0c0-.066.031-.125.078-.165l-.014-.079a1.173 1.173 0 0 1-.168.003 1.785 1.785 0 0 1-.215-.025l-.023.099c.048.04.08.099.08.167a.216.216 0 0 1-.432 0c0-.097.065-.178.153-.205l.025-.108a2.509 2.509 0 0 1-.394-.155l-.042.089a.213.213 0 0 1 .046.131.216.216 0 0 1-.432 0c0-.114.089-.207.202-.214l.044-.095a2.502 2.502 0 0 0-.109-.051 2.225 2.225 0 0 0-.428-.126l-.015.086a.216.216 0 1 1-.198-.039l.013-.081a2.198 2.198 0 0 0-.258-.018.859.859 0 0 0-.091.004l-.021.001-.012-.148.021-.002c.031-.002.064-.003.099-.003.29 0 .698.081.949.19.057.025.12.055.18.085.223.111.5.248.867.27.495.028.927-.33 1.044-.438.048-.043.464-.443.367-1.059a2.268 2.268 0 0 0-.275-.717c.006.224-.026.5-.189.663a.75.75 0 0 1-.561.237c-.081 0-.159-.01-.228-.018-.077.137-.272.424-.564.429h-.017c-.273 0-.532-.094-.868-.313a.936.936 0 0 0-.529-.148c-.061 0-.117.004-.162.007a.943.943 0 0 1-.111.005l-.021-.002.009-.148.021.001a.835.835 0 0 0 .091-.004c.046-.003.104-.008.171-.008.235 0 .435.057.613.173.309.202.543.288.781.288h.019c.194-.003.364-.205.459-.394l.023-.046.1.012A1.7 1.7 0 0 0-1.415 0a.6.6 0 0 0 .453-.194c.203-.203.142-.687.116-.84a.267.267 0 0 0-.024-.032l-.013-.017.024-.018v-.001h.002l.093-.071.013.017.019.026.018-.004.005.021.004.021c.043.062.111.166.183.295l.08-.042a.216.216 0 1 1 .095.179l-.083.043c.054.114.104.239.141.367l.08-.018A.216.216 0 0 1 0-.432.216.216 0 0 1 0 0" clip-path="url(#v)" transform="matrix(.352778 0 0 -.352778 6.66 1.383)"/><path d="M0 0c-.149.046-.245.165-.214.266s.177.146.326.1C.155.353.196.333.233.306l.016.06c.175.75.33 1.345.672 1.753l-.636.272c.153-.209.21-.473.158-.726-.188.117-.348.276-.4.487a2.7 2.7 0 0 0-.266-.699c.208.087.375.127.587.049-.117-.23-.379-.626-.868-.513-.319.074-.545.331-.481.65.021.103.101.22.262.206s.169-.265.12-.361c.206.105.415.656.092.736-.253.063-.55-.264-.634-.503-.047.288-.263.674-.519.658-.332-.02-.236-.597-.121-.736.021.191.143.362.241.355.089-.006.202-.151.185-.326-.029-.304-.396-.509-.716-.509-.354 0-.651.254-.703.778.199-.031.551-.165.684-.342a2.78 2.78 0 0 0 0 .83c-.164-.207-.483-.272-.674-.3a.92.92 0 0 0 .44.603h-1.098c.253-.14.34-.377.396-.601-.19.029-.503.094-.663.298.04-.329.04-.512 0-.83.13.174.474.307.672.341-.051-.523-.414-.737-.717-.763-.326-.028-.737.085-.791.438-.026.173.187.285.274.291.099.007.228-.113.248-.304.077.234.148.688-.184.707-.255.016-.414-.3-.462-.588-.083.239-.427.534-.668.435-.299-.123-.069-.62.136-.724-.048.095-.065.368.091.382s.243-.165.259-.269c.049-.318-.207-.555-.538-.609-.524-.085-.811.255-.786.567.214.082.385.042.596-.046-.111.189-.23.504-.266.699-.055-.215-.219-.375-.411-.491-.054.255.004.52.158.73l-.636-.272c.333-.394.474-1.106.674-1.758l.011-.038c.028.017.06.032.095.043.149.046.295.001.326-.1S-5.677.046-5.826 0c-.043-.013-.087-.019-.132-.017.004-.067-.003-.133-.02-.198.867.421 2.16.468 3.079.468 0 0 1.79.115 3.057-.468l.011.201C.112-.022.055-.017 0 0" clip-path="url(#w)" transform="matrix(.352778 0 0 -.352778 6.19 2.552)"/><path d="M0 0a.445.445 0 0 1-.234-.068c-.112-.07-.165-.176-.136-.271.026-.085.115-.142.232-.147l.018-.001a.445.445 0 0 1 .324.146c.049.062.066.13.046.193C.223-.058.124 0 0 0" clip-path="url(#x)" transform="matrix(.352778 0 0 -.352778 4.135 2.401)"/><path d="M0 0c-.124 0-.223-.058-.251-.148-.019-.063-.002-.131.047-.193.097-.107.24-.159.383-.141.097.016.169.069.191.143.026.086-.015.182-.108.252a.41.41 0 0 1-.134.067C.087-.007.043 0 0 0" clip-path="url(#y)" transform="matrix(.352778 0 0 -.352778 6.188 2.401)"/><path d="M0 0a.09.09 0 0 0-.028.004C-2.077.573-4.24.573-6.457.003a.106.106 0 0 0-.053.206C-4.257.788-2.057.788.028.208a.105.105 0 0 0 .074-.13A.107.107 0 0 0 0 0" clip-path="url(#z)" transform="matrix(.352778 0 0 -.352778 6.304 2.408)"/><path d="M0 0a.126.126 0 0 0-.123.096.124.124 0 0 0 .013.096c.018.03.045.05.078.059 1.123.288 2.246.435 3.337.435A12 12 0 0 0 6.518.25.128.128 0 0 0 6.484 0a.097.097 0 0 0-.034.005 11.781 11.781 0 0 1-3.145.426C2.235.431 1.134.287.032.004A.117.117 0 0 0 0 0" clip-path="url(#AA)" transform="matrix(.352778 0 0 -.352778 4.017 2.416)"/><path d="M0 0c-.103-.257-.197-.408-.169-.599s.237-.702.334-.89c.066.23.164.788.139.965S.046-.127 0 0" clip-path="url(#AB)" transform="matrix(.352778 0 0 -.352778 4.487 1.451)"/><path d="M0 0c.09-.262.176-.418.138-.607s-.273-.688-.38-.872c-.053.233-.123.796-.089.971S-.053-.124 0 0" clip-path="url(#AC)" transform="matrix(.352778 0 0 -.352778 5.86 1.453)"/><path d="M0 0a.229.229 0 1 0-.458 0A.229.229 0 0 0 0 0" clip-path="url(#AD)" transform="matrix(.352778 0 0 -.352778 4.03 2.029)"/><path d="M0 0a.25.25 0 1 0 0 .5.25.25 0 0 0 0-.5" clip-path="url(#AE)" transform="matrix(.352778 0 0 -.352778 3.948 2.117)"/><path d="M0 0a.243.243 0 1 0-.487 0A.243.243 0 0 0 0 0" clip-path="url(#AF)" transform="matrix(.352778 0 0 -.352778 5.25 1.839)"/><path d="M0 0a.222.222 0 1 1 0-.442A.222.222 0 0 1 0 0m0-.486a.264.264 0 1 0 0 .529.264.264 0 0 0 0-.529" clip-path="url(#AG)" transform="matrix(.352778 0 0 -.352778 5.165 1.76)"/><path d="M0 0a.229.229 0 1 0-.458 0A.229.229 0 0 0 0 0" clip-path="url(#AH)" transform="matrix(.352778 0 0 -.352778 6.426 2.023)"/><path d="M0 0a.25.25 0 1 0 0 .5.25.25 0 0 0 0-.5" clip-path="url(#AI)" transform="matrix(.352778 0 0 -.352778 6.346 2.111)"/><path d="M0 0c0-.323-1.314-.683-3.199-.683s-3.199.36-3.199.683 1.314.683 3.199.683S0 .323 0 0m-3.199.81C-4.811.81-6.525.526-6.525 0s1.714-.811 3.326-.811S.127-.527.127 0-1.586.81-3.199.81" clip-path="url(#AJ)" transform="matrix(.352778 0 0 -.352778 6.294 2.716)"/><path d="M0 0c-.625.162-1.524.255-2.466.255-.954 0-1.861-.095-2.487-.261a.063.063 0 0 1-.045-.077.063.063 0 0 1 .061-.048l.017.002c.615.163 1.51.257 2.454.257.932 0 1.819-.092 2.434-.251a.065.065 0 0 1 .078.045A.065.065 0 0 1 0 0" clip-path="url(#AK)" transform="matrix(.352778 0 0 -.352778 6.041 2.77)"/><path d="m0 0-.029.181a.23.23 0 0 1-.146-.209Z" clip-path="url(#AL)" transform="matrix(.352778 0 0 -.352778 1.46 1.779)"/><path d="M0 0l.174.028a.23.23 0 0 1-.203.153z" clip-path="url(#AM)" transform="matrix(.352778 0 0 -.352778 1.492 1.774)"/><path d="M0 0a.227.227 0 0 1 .437.069z" clip-path="url(#AN)" transform="matrix(.352778 0 0 -.352778 1.403 1.82)"/><path d="M0 0c.002.055.019.11.056.174L-.169.139A.393.393 0 0 0-.062-.01a.058.058 0 0 0 .029.015A.06.06 0 0 0 0 0" clip-path="url(#AO)" transform="matrix(.352778 0 0 -.352778 1.463 1.632)"/><path d="M0 0c0-.057-.004-.12-.049-.17.073.05.127.06.222.035C.123-.11.081-.044.061.01A.057.057 0 0 0 0 0" clip-path="url(#AP)" transform="matrix(.352778 0 0 -.352778 1.446 1.668)"/><path d="M0 0a.275.275 0 0 0-.165.067l.037-.234a.27.27 0 0 0 .137.115.05.05 0 0 0-.011.026A.046.046 0 0 0 0 0" clip-path="url(#AQ)" transform="matrix(.352778 0 0 -.352778 1.435 1.644)"/><path d="M0 0a.051.051 0 0 0 .01-.024.067.067 0 0 0-.003-.028.275.275 0 0 0 .166-.067L.136.115A.283.283 0 0 0 0 0" clip-path="url(#AR)" transform="matrix(.352778 0 0 -.352778 1.47 1.638)"/><path d="M0 0a.049.049 0 0 1-.041-.056.049.049 0 0 1 .056-.041.048.048 0 0 1 .041.056A.049.049 0 0 1 0 0m.018-.111a.063.063 0 0 0-.073.053.062.062 0 0 0 .053.072.062.062 0 0 0 .072-.053.062.062 0 0 0-.052-.072" clip-path="url(#AS)" transform="matrix(.352778 0 0 -.352778 1.452 1.633)"/><path d="m0 0 .109-.686.274.044-.109.686Z" clip-path="url(#AT)" transform="matrix(.352778 0 0 -.352778 1.442 1.875)"/><path d="m0 0 .014.001a.088.088 0 0 1 .072.1.086.086 0 0 1-.156.037.089.089 0 0 1-.016-.065A.087.087 0 0 1 0 0" clip-path="url(#AU)" transform="matrix(.352778 0 0 -.352778 1.41 1.922)"/><path d="m0 0-.011-.001c-.01-.001-.021-.004-.037-.008-.028-.006-.067-.016-.112-.016a.302.302 0 0 0-.123.026c-.129.058-.219.075-.313.058-.097-.017-.148-.121-.167-.173-.077-.002-.172-.007-.252-.116-.043-.059-.042-.147-.03-.22a.748.748 0 0 0-.121.213.41.41 0 0 0 .066.369c.034.043.157.183.322.199a.507.507 0 0 0 .055.003c.098 0 .18-.026.246-.046l.004-.001A.858.858 0 0 1-.052.262l.011.002-.014.056-.01-.003a.806.806 0 0 0-.333.007l-.025.007.006.023a.089.089 0 0 1 .043.031.087.087 0 0 1-.084.137.088.088 0 0 1-.072-.1.095.095 0 0 1 .02-.043l-.005-.02a.858.858 0 0 1-.113.025l.002.027a.084.084 0 0 1 .04.087.086.086 0 0 1-.099.072.085.085 0 0 1-.057-.035.08.08 0 0 1-.015-.064.08.08 0 0 1 .034-.056L-.724.391a.603.603 0 0 1-.102-.01l-.006.016a.086.086 0 0 1 .015.065.087.087 0 1 1-.171-.028.085.085 0 0 1 .066-.071L-.918.35a.58.58 0 0 1-.095-.056l-.012.014a.086.086 0 0 1-.097.108.086.086 0 0 1-.072-.099.085.085 0 0 1 .097-.072l.011-.013a.646.646 0 0 1-.059-.065l-.016-.022-.011.006v.01A.087.087 0 1 1-1.258.06l.013.001a.09.09 0 0 1 .023.008l.016-.009a.457.457 0 0 1-.028-.095l-.019.001a.087.087 0 0 1-.09.046.084.084 0 0 1-.056-.035.087.087 0 0 1 .136-.107l.022-.001a.419.419 0 0 1 .017-.109l-.019-.007a.08.08 0 0 1-.061.013.087.087 0 0 1-.057-.034.087.087 0 1 1 .156-.068l.016.007a.911.911 0 0 1 .052-.092l-.017-.012a.084.084 0 0 1-.042.004.087.087 0 0 1 .014-.173l.014.002a.085.085 0 0 1 .072.09l.016.012c.027-.034.052-.061.068-.078l.002-.006.004-.009.007.002.006-.006.008-.007.029.03.003.001-.001.002.008.008-.008.007-.008.009c-.017.05-.063.205-.006.282.064.088.135.09.211.092l.036.002.006.019c.021.067.066.142.129.153.082.015.162-.001.28-.054A.36.36 0 0 1-.16-.082c.052 0 .096.011.126.018l.029.006.011.001z" clip-path="url(#AV)" transform="matrix(.352778 0 0 -.352778 1.484 2.03)"/><path d="m0 0 .001.068h.054L.054-.001Z" clip-path="url(#AW)" transform="matrix(.352778 0 0 -.352778 1.399 1.933)"/><path d="m0 0 .017-.001a.086.086 0 0 1 .09-.044.087.087 0 0 1-.027.172.088.088 0 0 1-.054-.032l-.02.001a.46.46 0 0 1-.018.108l.02.009A.08.08 0 0 1 .068.2.087.087 0 0 1 .04.372.087.087 0 0 1-.031.301L-.048.294a.621.621 0 0 1-.056.082l.012.012.01-.001.014.001a.088.088 0 0 1 .072.1.087.087 0 0 1-.172-.027.126.126 0 0 1 .003-.01L-.174.442l-.022.016a.62.62 0 0 1-.076.043l.007.016a.087.087 0 0 1-.03.171.087.087 0 0 1-.059-.133L-.361.538a.503.503 0 0 1-.108.024v.014c.03.017.047.052.041.088a.086.086 0 0 1-.099.072A.087.087 0 0 1-.565.58V.563a.551.551 0 0 1-.1-.023l-.009.022a.084.084 0 0 1 .015.065.086.086 0 0 1-.099.072A.087.087 0 0 1-.83.6.085.085 0 0 1-.765.529l.011-.025a.851.851 0 0 1-.1-.059l-.012.018c.006.015.009.031.006.047a.086.086 0 0 1-.099.072.085.085 0 0 1-.072-.099A.085.085 0 0 1-.946.41l.013-.02a.66.66 0 0 0-.144-.074l-.005.017a.088.088 0 0 1 .015.065.086.086 0 0 1-.099.072.087.087 0 0 1-.072-.1.084.084 0 0 1 .065-.07l.005-.014a.56.56 0 0 0-.101-.02L-1.28.265l.005-.057.01.001a.92.92 0 0 1 .341.118l.055.039c.069.048.153.108.273.135a.364.364 0 0 0 .074.007c.136 0 .26-.074.295-.097A.412.412 0 0 0-.051.08.737.737 0 0 0-.1-.159c-.011.073-.037.156-.097.2a.26.26 0 0 1-.156.053.428.428 0 0 1-.119-.021c-.033.041-.114.126-.212.112a.52.52 0 0 1-.28-.151.347.347 0 0 0-.223-.083l-.035-.005-.011-.002.012-.056.011.003a.39.39 0 0 0 .026.003h.004c.057.005.162.013.254.097a.476.476 0 0 0 .25.138c.064.009.13-.05.17-.106l.012-.016.034.01c.035.01.07.02.107.02A.2.2 0 0 0-.23-.006c.077-.056.082-.217.081-.269l-.005-.012-.005-.009.009-.005v-.002h.004l.037-.02.005.009.004.008h.007l.001.01v.007c.01.021.025.054.04.094l.019-.006a.086.086 0 0 1 .097-.063.085.085 0 0 1 .057.035.08.08 0 0 1 .015.064.086.086 0 0 1-.138.055l-.02.007A.855.855 0 0 1 0 0" clip-path="url(#AX)" transform="matrix(.352778 0 0 -.352778 1.984 1.998)"/><path d="M0 0a.17.17 0 0 1-.042-.013.15.15 0 0 1-.032-.022C-.108-.064-.12-.103-.105-.132s.046-.042.085-.037l.006.001c.041.007.077.03.1.065.013.023.015.047.005.067C.077-.008.041.007 0 0" clip-path="url(#AY)" transform="matrix(.352778 0 0 -.352778 1.226 2.43)"/><path d="M0 0c-.041-.007-.071-.031-.076-.063-.003-.022.007-.043.026-.061s.045-.029.072-.032c.015-.002.029-.002.044 0 .051.015.072.037.075.063s-.014.059-.049.078C.063-.001.031.004 0 0" clip-path="url(#AZ)" transform="matrix(.352778 0 0 -.352778 1.91 2.322)"/><path d="M0 0a4.313 4.313 0 0 1-1.72-.371c-.012-.005-.018-.02-.013-.033a.027.027 0 0 1 .034-.013c.56.243 1.132.367 1.7.367.148 0 .298-.009.445-.026h.007c.011.002.02.011.021.023a.024.024 0 0 1-.022.027A3.793 3.793 0 0 1 0 0m-1.709-.44a.046.046 0 0 0-.043.028.047.047 0 0 0 .024.061A4.33 4.33 0 0 0 0 .021c.151 0 .304-.008.455-.026a.045.045 0 0 0 .04-.051.046.046 0 0 0-.038-.04L.444-.097a3.87 3.87 0 0 1-.443.025 4.237 4.237 0 0 1-1.692-.364.04.04 0 0 0-.018-.004" clip-path="url(#Aa)" transform="matrix(.352778 0 0 -.352778 1.788 2.288)"/><path d="M0 0c-.021-.091-.044-.146-.025-.209s.116-.22.159-.278c.009.08.013.271-.005.328S.022-.04 0 0" clip-path="url(#Ab)" transform="matrix(.352778 0 0 -.352778 1.293 2.096)"/><path d="M0 0c.044-.083.081-.13.078-.195-.015-.106-.042-.21-.08-.31-.03.074-.083.258-.081.318S-.011-.044 0 0" clip-path="url(#Ac)" transform="matrix(.352778 0 0 -.352778 1.75 2.024)"/><path d="M0 0c-.641-.102-1.053-.292-1.035-.405S-.567-.571.074-.469s1.053.292 1.035.405S.641.102 0 0m.079-.497c-.541-.086-1.116-.077-1.142.087s.518.352 1.058.438S1.112.105 1.138-.06.62-.411.079-.497" clip-path="url(#Ad)" transform="matrix(.352778 0 0 -.352778 1.572 2.398)"/><path d="M0 0a.028.028 0 0 0 .025-.032C.023-.047.009-.059-.006-.057l-.013.001-.002-.014.013-.001a.02.02 0 0 1 .011 0c.02.003.034.019.036.038a.042.042 0 0 1-.037.047l-.016.002-.001-.015L0 0" clip-path="url(#Ae)" transform="matrix(.352778 0 0 -.352778 1.948 2.296)"/><path d="M0 0c-.014-.006-.031.001-.038.015-.003.007-.003.015 0 .022s.008.012.015.015l.02.009-.025.005C-.039.062-.047.053-.051.042s-.004-.031.006-.043.025-.018.04-.015l.033.012-.007.013L0 0" clip-path="url(#Af)" transform="matrix(.352778 0 0 -.352778 1.189 2.436)"/><path d="M0 0a.66.66 0 0 0 .07.17l-.226.057C-.102.172-.07.098-.065.021H-.07C-.081.019-.091.015-.1.01a.26.26 0 0 0-.124.125C-.23.051-.247-.032-.276-.112a.29.29 0 0 0 .135.051l.001-.014c.004-.021.015-.04.032-.053-.037-.078-.106-.163-.237-.154-.11.008-.199.082-.194.191.001.036.021.079.076.083s.07-.079.059-.114c.063.046.103.24-.008.25C-.5.135-.581.011-.597-.073-.628.02-.72.137-.804.118-.914.094-.851-.093-.806-.133c-.003.065.029.128.062.131s.075-.04.078-.099c.007-.103-.104-.19-.211-.207s-.21.038-.261.177a.09.09 0 0 1 .025.042.39.39 0 0 0 .207-.075C-.935-.075-.95.018-.95.112-.987.047-1.066.009-1.127-.012a.1.1 0 0 1-.027.023.3.3 0 0 0 .11.19L-1.41.143a.27.27 0 0 0 .149-.146c-.009-.009-.016-.021-.021-.033-.064.003-.147.014-.201.064.028-.09.043-.183.044-.277.028.054.105.105.168.133a.09.09 0 0 1 .038-.031c-.004-.117-.085-.217-.198-.245-.107-.026-.25-.01-.287.104-.018.057.047.105.076.112s.082-.026.099-.088c.013.082.013.237-.099.226-.086-.009-.122-.122-.123-.221-.04.075-.17.155-.245.11-.094-.057.01-.21.083-.234-.021.029-.041.119.011.132s.089-.042.1-.076c.033-.103-.04-.196-.147-.231-.141-.047-.244.013-.279.095.007.015.01.032.007.049l-.003.012c.06.028.116.024.184.007a.9.9 0 0 0-.126.219.27.27 0 0 0-.1-.176c-.041.084-.033.169.004.242l-.198-.124c.041-.037.076-.079.105-.126-.025-.019-.037-.049-.032-.08.003-.022.015-.042.033-.055s.041-.019.063-.015c.047-.055.076-.119.105-.182.353.151.712.257 1.069.314a4.09 4.09 0 0 0 1.077.026l.024.21c.039.013.063.052.057.093A.08.08 0 0 1 0 0" clip-path="url(#Ag)" transform="matrix(.352778 0 0 -.352778 1.962 2.166)"/><path d="M0 0c-.36-.059-.711-.161-1.045-.306l.012-.027a.13.13 0 0 0 .03.02c.047.023.098.016.113-.016s-.01-.077-.057-.1C-.96-.435-.974-.44-.989-.442a.24.24 0 0 0 .003-.067c.266.187.695.27 1.001.319 0 0 .589.133 1.042.006l-.007.068c-.018-.006-.038-.008-.057-.005-.052.008-.09.042-.085.077s.051.058.103.051c.015-.002.03-.007.043-.014l.003.021v.012C.708.065.352.056 0 0" clip-path="url(#Ah)" transform="matrix(.352778 0 0 -.352778 1.567 2.33)"/><path d="M0 0l.653-.104.839-.04c.351.045.538-.428.313-.725-.171-.226-.4-.503-.723-.364-.059.016-.102.093-.21.03-.179-.158-.307-.113-.432.019-.05.028-.123.057-.171.041-.259-.104-.379.016-.505.131-.183.158-.283.391-.272.632.007.261.142.358.508.38" clip-path="url(#Ai)" transform="matrix(.352778 0 0 -.352778 3.55 3.093)"/><path d="M0 0c-.159-.026-.202-.072-.279-.179-.024-.034-.116-.011-.182.008-.072.021-.175.043-.186.125.008.246.327.503.557.424C.029.337.036.244.038.172.039.105.034-.011 0 0" clip-path="url(#Aj)" transform="matrix(.352778 0 0 -.352778 3.698 3.725)"/><path d="M0 0c-.41 0-.511.085-.557.315-.016.101-.02.203-.01.305C-.15.6-.03.547-.059.313-.074.195-.074.156 0 0" clip-path="url(#Ak)" transform="matrix(.352778 0 0 -.352778 3.302 3.304)"/><path d="M0 0c-.029-.172-.17-.261-.304-.243-.098.014-.246.157-.25.247-.006.155.106.288.302.275C-.081.268.036.211 0 0" clip-path="url(#Al)" transform="matrix(.352778 0 0 -.352778 3.814 3.92)"/><path d="M0 0c.363 0 .453.08.493.295.014.076.016.17.009.286C.133.562.09.51.08.289.072.087.052.08 0 0" clip-path="url(#Am)" transform="matrix(.352778 0 0 -.352778 4.255 3.413)"/><path d="M0 0c-.37.104-.483.053-.582-.143a1.13 1.13 0 0 1-.087-.272c.381-.088.44-.05.509.16.063.192.103.182.16.255" clip-path="url(#An)" transform="matrix(.352778 0 0 -.352778 3.091 4.114)"/><path d="M0 0c.326.091.426.046.513-.126a.985.985 0 0 0 .076-.24C.254-.443.202-.41.141-.225.085-.056.085-.056 0 0" clip-path="url(#Ao)" transform="matrix(.352778 0 0 -.352778 4.329 4.192)"/><path d="M0 0c.253-.24.265-.352.158-.52a1.023 1.023 0 0 0-.173-.194c-.244.257-.242.32-.11.471.12.138.089.142.125.243" clip-path="url(#Ap)" transform="matrix(.352778 0 0 -.352778 3.73 4.538)"/><path d="M0 0c-.026-.153.001-.206.074-.31C.097-.342.047-.419.009-.473c-.042-.059-.094-.146-.171-.13-.219.083-.351.453-.208.638.075.096.161.074.226.053S.021.028 0 0" clip-path="url(#Aq)" transform="matrix(.352778 0 0 -.352778 3.549 3.898)"/><path d="M0 0a.33.33 0 0 1-.199.248c-.035.02-.023.111-.012.175.013.072.022.173.099.192C.122.633.4.355.349.127.323.008.236-.009.167-.018.104-.026-.007-.034 0 0" clip-path="url(#Ar)" transform="matrix(.352778 0 0 -.352778 3.88 3.827)"/><path d="M0 0a.33.33 0 0 1 .319.004c.036.015.1-.051.144-.1.049-.054.122-.124.09-.196-.13-.195-.52-.242-.669-.061-.077.094-.036.173-.001.232S-.022.026 0 0" clip-path="url(#As)" transform="matrix(.352778 0 0 -.352778 3.666 4.074)"/><path d="M0 0c.104.095.114.15.119.267.001.036.08.063.137.079.063.018.149.05.197-.006C.565.151.455-.193.248-.242.141-.267.091-.201.055-.147.022-.098-.031-.008 0 0" clip-path="url(#At)" transform="matrix(.352778 0 0 -.352778 3.865 4.017)"/><path d="M0 0l.268.463.261.623c.055.279.517.278.715.018.151-.198.33-.455.122-.657-.03-.04-.109-.049-.082-.15.088-.183.015-.267-.134-.322-.038-.029-.083-.076-.081-.116.02-.228-.117-.283-.252-.343C.62-.575.395-.58.194-.499-.031-.415-.08-.284 0 0" clip-path="url(#Au)" transform="matrix(.352778 0 0 -.352778 2.929 3.837)"/><path d="M0 0a.77.77 0 0 0-.589.168C-.702.259-.82.345-.744.556c.011.038-.02.094-.049.13-.128.09-.178.187-.048.339.049.09-.024.118-.042.163-.149.244.085.444.277.594.252.198.693.085.676-.193L.166.932c.032-.16.1-.347.141-.506C.314.137.235.024 0 0" clip-path="url(#Av)" transform="matrix(.352778 0 0 -.352778 4.397 4.126)"/><path d="M0 0a.67.67 0 0 0-.125.526c.022.126.038.254.236.286.034.007.064.055.08.093.014.137.069.217.244.182.091 0 .082.068.109.102.126.219.384.124.585.04.264-.109.367-.497.142-.604L.8.27C.689.177.572.045.466-.055.243-.184.121-.171 0 0" clip-path="url(#Aw)" transform="matrix(.352778 0 0 -.352778 3.842 4.595)"/><path d="M0 0a.72.72 0 0 0 .485.317C.619.341.753.371.858.183.878.151.937.138.981.136c.143.036.244.01.272-.179.033-.092.098-.057.142-.073.266-.047.265-.341.254-.574-.015-.306-.368-.55-.558-.363l-.528.346C.429-.629.254-.56.114-.489-.096-.312-.129-.184 0 0" clip-path="url(#Ax)" transform="matrix(.352778 0 0 -.352778 3.098 4.245)"/><path d="M0 0c-.04-.05-.098-.069-.16-.032-.074.048-.023.105.02.154.087.102.239.158.488.085C.646.121.193.242 0 0m-1.644-.797c-.043.065-.268-.211-.236-.106l.234.552c.041.072.095.102.187.145.072.002-.023-.192.03-.227l.476-.376c-.178-.118-.583-.106-.691.012m4.239-1.548c-.01.224-.246.4-.498.427-.057.006-.125.003-.185.022-.054.017-.115.06-.102.158a2.25 2.25 0 0 0 .426.002c.151-.017.207-.062.359-.13-.048.22-.292.402-.545.385l-.166-.011c-.067 0-.184.011-.189.148.164.032.32.061.444.061.151 0 .227-.023.385-.074-.085.226-.322.358-.559.311l-.183-.03c-.061-.013-.158-.033-.192.081v.002c.169.055.295.111.426.128a1.2 1.2 0 0 0 .413-.028.49.49 0 0 1-.587.243l-.181-.054c-.058-.019-.152-.055-.194.07.159.082.246.131.363.167.14.044.257.061.417.016-.135.198-.394.268-.611.165l-.183-.083c-.055-.022-.125-.026-.172.053l-.002.004c.103.072.198.14.287.176.14.057.258.08.424.092-.147.171-.42.162-.649.035L1.25-.055c-.059-.031-.153-.054-.208.034.21.184.477.238.603.232 0 .012-.193.113-.351.041.002.057-.023.112-.068.148 0-.127-.18-.255-.294-.34C.726-.096.511-.233.238-.286.113-.309.049-.288.016-.247c-.041.054-.007.13.097.134.226.006.364.169.524.285C.7.218.741.273.845.276.301.367-.018.538-.367.109c-.068.189.016.29.12.364.11.077.244.12.357.194.18.118.238.373.134.522C.146 1.103.191 1.032.076.848-.02.715-.101.701-.156.723c.016.058.093.186.118.259.039.111.043.107.057.237 0 .002.021.234-.067.252a.64.64 0 0 1-.128-.23c-.051-.13-.187-.496-.332-.433l.086.258c.027.088.039.176.049.291.005.057.011.175-.066.223-.06-.081-.111-.167-.154-.258L-.767.864-2.322 1.868c-.505.35-.995.719-1.562.969.221-.247.474-.423.698-.632.115-.107.191-.156.26-.161.146-.011.191-.061.228-.095.085-.059-.045-.058-.141-.062.086-.069.131-.14.205-.14.287-.004.276-.04.308-.064.156-.117-.099-.072-.17-.082a.4.4 0 0 1 .219-.157c.104-.014.232.024.292-.041.136-.097-.033-.071-.177-.084.104-.098.173-.186.31-.184.163.004.205.038.317-.052.188-.127-.131-.103-.29-.109.122-.12.178-.168.263-.167.133.003.316.04.395-.032.102-.091-.077-.106-.321-.102.056-.153.046-.267-.167-.433-.151-.113-.253-.279-.286-.465-.062-.395-.288-.714-.542-.962-.24-.236-.396-.408-.383-.78.004-.102.046-.27.116-.298.098-.04.242.008.357.045.14.045.27.118.405.179.028.022.068.011.054-.058l-.087-.499-.012-.116c0-.01.028-.023.042-.029.181-.083.485.102.516.319s.364.576.552.589c.432.03.788.204 1.03.575.026.039.034.09.05.135.009.053.054.053.058-.015l-.02-.215c-.053-.289-.278-.428-.499-.574-.079-.051-.183-.131-.192-.208-.023-.248-.121-.483-.279-.675-.113-.136-.307-.346-.445-.425.069.007-.024-.261-.024-.261.104.066.197.057.25-.051-.016.203.47.352.456.33-.035-.166.027-.472-.055-.565.103-.003.148-.003.18-.149.022.111.09.199.175.133.25-.151.456-.348.627-.483.05-.04.026-.146-.101-.167.214-.076.684.037.684.037s.048-.271-.031-.343c.142-.109.325-.198.414-.297a.83.83 0 0 0 .225-.39c.111.196-.022.475-.222.631-.089.07-.179.14-.127.31.124-.09.231-.17.307-.255.101-.112.194-.224.231-.368.111.197-.028.453-.227.609-.091.071-.22.136-.163.311l.008.016c.122-.089.244-.168.32-.252.101-.112.194-.182.238-.353.111.196-.035.438-.235.594-.09.071-.21.151-.153.326.121-.079.238-.148.314-.225.107-.108.19-.192.24-.341.102.201-.041.435-.247.581a1.23 1.23 0 0 0-.141.123c-.014.014-.101.061-.052.212.126-.078.249-.145.329-.221.109-.105.207-.206.257-.35.096.204-.061.449-.271.59-.044.029-.099.056-.142.094-.051.044-.141.075-.115.239.137-.064.272-.117.363-.185.121-.09.237-.172.303-.3.07.214-.12.423-.346.537-.05.025-.113.046-.162.083s-.102.074-.102.221a2.02 2.02 0 0 0 .374-.142c.134-.069.255-.139.345-.261.035.222-.185.412-.426.488-.05.015-.108.048-.159.072-.066.042-.107.114-.109.192.136-.022.308-.06.405-.099a1.16 1.16 0 0 0 .352-.213c.013.225-.208.379-.456.431-.044.009-.096.013-.144.027-.048.009-.145.087-.132.197.144-.009.282-.012.387-.042.145-.042.235-.087.373-.179" clip-path="url(#Ay)" transform="matrix(.352778 0 0 -.352778 8.821 2.227)"/><path d="M0 0c.087-.006.183.051.21.112S.232.313.204.34C.197.347.159.356.121.3.057.206.083.131.073.088S0 0 0 0" clip-path="url(#Az)" transform="matrix(.352778 0 0 -.352778 9.045 2.035)"/><path d="M0 0c.022-.017.023-.096-.016-.135s-.09-.068-.179-.044c.091.042.059.099.117.145 0 0 .06.05.078.034" clip-path="url(#BA)" transform="matrix(.352778 0 0 -.352778 9.211 1.98)"/><path d="M0 0c.099 0 .218.068.25.148.035.088.021.273-.007.303C.235.457.189.472.144.398.067.273.099.173.087.117S0 0 0 0" clip-path="url(#BB)" transform="matrix(.352778 0 0 -.352778 8.934 2.022)"/><path d="M57.555 783.121h.007v.007h-.007z" clip-path="url(#BC)" transform="matrix(.352778 0 0 -.352778 -15.503 284.3)"/><path d="m0 0 .002.003-.006-.006L0 0" clip-path="url(#BD)" transform="matrix(.352778 0 0 -.352778 4.803 8.031)"/><path d="M0 0l.377-.172.204-.082c.761-.306 1.553-.5 2.36-.626.786-.123 1.58-.143 2.371-.081.731.057 1.342.248 2.032.483.317.112.549.214.824.369l.404.236c.039-.122.049-.213-.084-.29a3.97 3.97 0 0 0-.371-.195 7.31 7.31 0 0 0-1.081-.43c-.295-.093-.596-.169-.9-.228-.347-.064-.699-.102-1.052-.114-.618-.029-1.238-.011-1.854.055a13.38 13.38 0 0 0-1.692.334l-.813.269-.553.249C.104-.188.08-.176.029-.125-.004-.091-.014-.028 0 0" clip-path="url(#BE)" transform="matrix(.352778 0 0 -.352778 3.828 10.26)"/><path d="M0 0l-.296-.193c-.438-.272-.921-.444-1.4-.62-.245-.09-.499-.161-.751-.232-.518-.139-.767-.185-1.478-.254-.254-.025-.678.034-1.087.132.906-.01 1.668.08 2.147.189.66.152 1.314.349 1.92.666.202.105.412.236.588.377C-.252.17-.062.082 0 0" clip-path="url(#BF)" transform="matrix(.352778 0 0 -.352778 7.099 10.486)"/><path d="M0 0c-.292.202-.498.525-.517.547.194-.058.428-.223.66-.388C.405.006.505-.052.82-.164c.374-.134.651-.21 1.034-.312l1.034-.242c.347-.057.698-.089 1.05-.095-.634-.116-1.112-.051-1.563.031-.318.058-.842.137-1.233.267C.473-.292.292-.202 0 0" clip-path="url(#BG)" transform="matrix(.352778 0 0 -.352778 3.775 10.611)"/><path d="M0 0c-.976-1.335-2.007-1.723-2.991-1.979a9.757 9.757 0 0 0-1.681-.251c.732.141 1.41.333 1.927.551.526.222.841.362 1.291.682.036.034.099.076.169.047.227-.095.999.628 1.285.95" clip-path="url(#BH)" transform="matrix(.352778 0 0 -.352778 7.605 10.197)"/><path d="M0 0c-.145.018-.596.177-.659.263C-.025.122.555.123 1.148.107c.078-.005.362.01.439.013.219.009.538-.123.725-.132-.191-.052-.933-.096-1.167-.079C1.144-.103.512-.066 0 0" clip-path="url(#BI)" transform="matrix(.352778 0 0 -.352778 4.845 11.053)"/><path d="M0 0a12.49 12.49 0 0 0-1.235-.596c-.072-.036-.154-.051-.234-.041-.087.026-.112.096-.09.176l.293.103 1.072.434c.04.017.211.122.305.17C.115.078.042.021 0 0" clip-path="url(#BJ)" transform="matrix(.352778 0 0 -.352778 6.806 10.148)"/><path d="M0 0c-.059-.04-.271-.141-.333-.173l-.663-.298c-.113-.052-.546-.208-.494.008L.101.189C.107.118.103.046 0 0" clip-path="url(#BK)" transform="matrix(.352778 0 0 -.352778 6.816 10)"/><path d="M0 0a6.27 6.27 0 0 0 1.603.083 3.58 3.58 0 0 0-.006-.366l-1.605.205C-.055-.072-.038-.006 0 0" clip-path="url(#BL)" transform="matrix(.352778 0 0 -.352778 7.265 9.52)"/><path d="M0 0c.326-.032.541 0 .432-.278l-.09-.237C.268-.735.119-.724-.082-.709L0 0" clip-path="url(#BM)" transform="matrix(.352778 0 0 -.352778 7.566 9.806)"/><path d="M0 0c0-.104-.158-.173-.394-.278-.155-.071-.342-.164-.483-.185-.093-.013-.193-.04-.232.061l1.062.449C0 .073 0 .04 0 0" clip-path="url(#BN)" transform="matrix(.352778 0 0 -.352778 6.734 9.851)"/><path d="M0 0l1.485-.208c-.008-.06-.018-.102-.112-.086l-.842.111-.431.06C.015-.11 0-.063 0 0" clip-path="url(#BO)" transform="matrix(.352778 0 0 -.352778 7.027 10.088)"/><path d="M0 0c.095.013.211.024.313.01l1.444-.172c-.027-.073-.027-.073-.064-.136L.01-.065C-.043-.057-.042-.008 0 0" clip-path="url(#BP)" transform="matrix(.352778 0 0 -.352778 7.177 9.63)"/><path d="M0 0c-.087.085-.166.175.025.296l-.777.116c-.191.03-.285.005-.308-.18l-.05-.495.219-.033.003.477c.007.077-.005.194.129.201.211-.07.231-.236.213-.423-.006-.058-.002-.117.011-.174.009-.038.061-.112.091-.118l.416-.073C-.261-.227-.122-.104 0 0" clip-path="url(#BQ)" transform="matrix(.352778 0 0 -.352778 7.423 9.894)"/><path d="m0 0-1.113.204c0 .15.34.08.592.031C-.234.18 0 .13 0 0" clip-path="url(#BR)" transform="matrix(.352778 0 0 -.352778 5.078 10.373)"/><path d="M0 0c-.324.064-.648.189-.932.286C-.933.51.012.219 0 0" clip-path="url(#BS)" transform="matrix(.352778 0 0 -.352778 4.435 10.387)"/><path d="m0 0 .867-.153c0-.13-.321-.095-.497-.063S-.048-.124 0 0" clip-path="url(#BT)" transform="matrix(.352778 0 0 -.352778 4.753 10.41)"/><path d="M0 0c-.121-.135-.283-.099-.446-.072-.027.004-.223.056-.202.161.008.039.083.05.12.043C-.44.115-.357.076-.27.053S-.101.02 0 0" clip-path="url(#BU)" transform="matrix(.352778 0 0 -.352778 4.388 10.175)"/><path d="M0 0l-.471.067c-.051.01-.051.044-.051.117L.056.098C.056.032.03 0 0 0" clip-path="url(#BV)" transform="matrix(.352778 0 0 -.352778 7.381 10.322)"/><path d="M0 0c-.212.078-.513-.102-.761-.315s-.311-.12-.683.022-.811-.436-.811-.436-.113.94.057 1.361c.184.219.803.596.871.153.057-.366.382-.439.524-.456C-.425.283 0 .676 0 .676V0m-.005-.729c.001-.061-.014-.172-.08-.172h-.647c-.181 0-.388-.07-.478-.112l-.649-.345-.251-.117-.165-.078c.214.44.545.88.851.919.135.017.287-.131.416-.125.227.011.415.183.551.308.218.2.429.175.446.128.014-.039 0-.192.006-.406m-2.873-1.187c-.204-.078-.251-.083-.292.01L-3.99.002c-.103.252.062.275.118.179.173-.296 1.158-1.714 1.215-1.788.133-.169-.078-.254-.221-.309m-.428-.112c-.03-.072-.187-.118-.238-.135-.118-.039-.131.062-.209.345l-.376 1.462c-.028.112-.043.227-.064.341-.026.104.046.121.085.033.07-.122.721-1.718.771-1.85.029-.074.051-.146.031-.196m-.718-.294c-.04-.013-.088-.001-.095.156l-.048 1.542c-.001.019.106-.418.139-.549l.243-.99c.008-.093-.098-.115-.239-.159M-4.24.95c-.004.063.048.146.11.231.147.197.313.381.496.588.022.025.04.006.046-.007l.32-.709c.069-.17-.028-.31-.202-.308l-.471.022c-.172.016-.292.079-.299.183m-.091 2.245c-.002.041.014.224.071.089.026-.044.399-.916.528-1.218.048-.112.036-.19-.059-.304l-.374-.422c-.06-.072-.085-.04-.086.045l-.08 1.81m-.11-7.15c-.078-.009-.134 0-.154.128-.02.101.013.173.134.173.082.021.102-.074.115-.156.007-.076-.045-.141-.095-.145m-.485.661c-.317-.048-.473.007-.571.207l1.031.212c-.003-.207-.18-.377-.46-.419m-.635.666L-6.284.291c0 .061.065.145.193.216.097.068.129-.112.148-.168l.438-1.407.201-.708c.02-.071.018-.146-.006-.216l-.172-.591c-.026-.059-.077-.075-.079-.045m-.224-.325c-.116-.009-.268.007-.383.008-.095.001-.116.105-.123.195l-.059 1.49-.03.848c-.004.059-.037.408.013.409.048.014.123-.328.131-.36l.247-.999.329-1.362c.038-.171.044-.215-.125-.229m-.657 3.983l-.046 1.319c-.021.479.009.417.081.158l.34-1.186c.026-.084.088-.251.024-.276-.091-.036-.218-.064-.301-.095-.059-.023-.095.003-.098.08m-.105 2.921l-.027.591c-.002.219-.006.277.039.198l.496-.804c.079-.133-.046-.125-.094-.13l-.271-.027c-.128 0-.135.012-.143.172m.264-1.138l.908-1.425c.042-.075-.04-.128-.1-.15-.105-.039-.122-.032-.228-.071-.145-.054-.212.062-.253.216l-.395 1.406c.01.081.038.068.068.024m1.026-1.603c.095.065.133.034.132.145 0 .069-.11.016-.059.099l.12.26.387.786c.036.081.039.046.027-.039L-4.92.916c-.023-.051-.041-.162-.31-.224-.098-.023-.227-.068-.323-.094-.039-.01-.016.022-.016.022s.246.545.312.59m.84 1.73l.024-1.783c0-.11-.133-.212-.22-.286-.075-.064-.23-.016-.201.085l.366 2.09c.012.073.031.031.031-.106M-4.559.072c.035.137.103.095.073-.036l-.525-2.773c-.029-.121-.211-.167-.375-.183-.063-.006-.063-.006-.038.077l.865 2.915M-5.688.49c.036.01.128.007.156-.004l.636-.221c.084-.038.219-.066.178-.249-.097-.442-.24-.875-.378-1.307l-.066-.233c-.015-.055-.052-.144-.105.033L-5.838.387c-.061.164-.038.251.144.348.063.033.041.018.102.056 0 0-.068-.16-.113-.22-.011-.014-.02-.021-.027-.023-.104-.024-.045-.083.044-.058m1.319-2.396l.006-.57c-.003-.216-.042-.246-.182-.28-.106-.026-.239-.082-.302-.043-.045.028-.036.11-.023.187l.433 2.383c.008.064.042.18.048.094l.02-1.771m-2.249-.883c-.002-.094-.029-.141-.097-.141-.022 0-.388-.002-.451.063s-.051.14-.033.263c.011.076.033.159.059.248l.473 1.844c.015.066.039.053.029-.082l.004-.444.014-1.296.002-.455m-.758.041c-.023-.063-.039-.106-.088-.109-.082-.005-.249-.002-.267.05-.022.062.001.118.027.192l.815 2.701c.018.05.035.259.163.253.167-.003.095-.15.092-.199-.009-.137-.086-.427-.118-.561l-.37-1.458-.155-.565-.099-.304m-.534-.067a.4.4 0 0 0-.125.022c-.039.012-.05.066-.06.105l-.453 1.821c-.031.146-.083.246.071.313l.661.325c.043.025.113.071.115.103.005.097-.106.033-.127.071l-.202.354c-.021.035-.018.049.021.05h.882c.178-.006.164-.152.135-.267l-.739-2.526c-.04-.115-.118-.374-.179-.371m-.318.027c-.076.004-.161.006-.19.041-.009.01-.016.021-.02.034-.009.024-.013.054-.017.076-.025.125-.185 1.442-.23 1.812-.008.052.036.065.054.011.066-.208.428-1.719.462-1.935.006-.042-.03-.041-.059-.039m-.366.051a.69.69 0 0 0-.122.018c-.051.014-.109.023-.131.068-.015.031-.014.211-.015.253l-.062 1.288c-.002.04-.019.191.013.253.025.047.053.043.074.044.108.003.109-.231.119-.279.039-.187.174-1.504.176-1.562.004-.07.006-.088-.052-.083M-8.978.004c-.006.134.009.197.066.229.029.014.06.023.092.027.023.003.073-.024.086-.059a.84.84 0 0 0 .033-.219c0-.095-.006-.12-.119-.147-.071-.018-.146-.086-.158.169m-.057 1.18l-.014.342c0 .074.088.037.107-.017.023-.063.141-.824.166-1.063.005-.038.02-.091-.051-.087-.026.002-.054-.005-.104-.005-.09-.002-.074.162-.079.3l-.025.53m-.074 1.666l-.022.637v.094c-.002.095.022.036.036.017.069-.09.223-.333.295-.452l.233-.393c.044-.092.005-.146-.098-.152l-.087-.01c-.341-.025-.347-.081-.357.259m-.06-5.222c-.003-.081-.001-.198-.072-.197-.073.014-.144.036-.212.065-.044.029-.062.05-.043.101.088.229.141.437.214.657l.056.185c.043.085.051-.054.05-.147l.007-.664m-.516-.492c-.131.072-.146.19-.058.31l.463-.157c-.082-.197-.224-.252-.405-.153m-.137.555c-.022.072.06.19.105.293l.004.001.17.346c.026.039.134.269.164.335.014.03.058.144.068.169.089.219.109-.037.091-.101l-.286-.96c-.025-.067-.069-.207-.128-.188s-.171.05-.188.105m-.394.036c-.078.027.007.112.022.152a2.58 2.58 0 0 0 .147.303l.394.829c.051.075.074.162.174.139.156-.036.153-.12.107-.26-.051-.154-.142-.345-.216-.511l-.222-.43a1.03 1.03 0 0 0-.087-.138c-.069-.194-.252-.106-.319-.084m-.477.135c-.069.022-.145.058-.235.097s-.097.154-.102.222l-.055.771c-.011.109-.062.147-.147.147-.369 0-.64-.007-1.009 0h-.711c-.076 0 .194.185.223.198l1.596.912c.294.192.671.521.959.786l.578.582c.107.141.153.01.13-.057l-.09-.234L-9.793.8c-.151-.332-.635-1.052-.653-1.093-.021-.047-.224.004-.1-.135.034-.04.263-.057.321-.073.198-.055.531-.091.545-.226.009-.097-.078-.313-.078-.313l-.568-1.07c-.06-.1-.081-.121-.367-.028m-.727.261c-.142.049-.289.179-.555.402-.165.137-.458.459-.324.462l.897-.006c.223 0 .207-.067.227-.201.022-.151.007-.374.017-.526s-.116-.193-.262-.131m.061-1.302c-.059-.03-.14.088-.197.154-.106.123-.137.26-.21.485-.12.368-.216.802.012.662.14-.086.135-.077.239-.155.11-.095.112-.289.12-.329.046-.245.054-.362.062-.605.004-.123.027-.184-.026-.212m-.95.78l-1.014.918c-.056.052-.334.305-.308.41.035.088.143.057.361.058l.372.001c.297-.001.389-.155.461-.241l.027-.034c.1-.122.177-.241.255-.488.066-.212.381-1.084-.154-.624m2.786 4.946c-.185-.021-.177.097-.153.165.095.271.217.533.329.799.025.066.054.076.055.011l.009-.764c-.006-.224-.087-.195-.24-.211m.283-1.238c.011-.135.005-.502.005-.604l.001-.282c0-.032.004-.091-.034-.103-.046-.013-.127.019-.163.028-.118.032-.194.048-.306.105s-.015.168.006.219l.279.646c.027.056.078.237.149.193.064-.047.059-.15.063-.202m-.272-1.587c-.047-.053-.091-.065-.124-.067-.253-.014-.434-.02-.549-.002s-.15.066-.06.183a3.45 3.45 0 0 1 .16.233c.047.076.093.17.163.261.021.026.023.05.047.055.046.011.107-.021.145-.033l.413-.137c.1-.038-.007-.172-.061-.271-.049-.091-.093-.174-.134-.222m.265.008c-.06-.019-.114-.047-.137-.03-.037.029.011.082.049.139l.056.085c.03.046.061.016.061-.041s.023-.137-.029-.153m1.207.356c.072-.111.113-.152-.034-.158-.103-.003-.296.002-.398-.011-.111-.013-.135.063-.15.192l-.192 1.371c-.02.098.054.092.088 0 .124-.331.588-1.242.686-1.394m-.446 2.04c.134.098.192-.011.264-.099l.539-.664c.03-.039.045-.121.025-.163l-.324-.632c-.053-.096-.135-.066-.194.041-.138.247-.488 1.003-.515 1.119-.013.052-.015.081.009.132.03.06.117.207.196.266m.659.362c.091.036.015.067-.141.077-.065.004-.019.025.019.056l.528.443c.067.055.262.205.352.18s.051-.091.043-.137-.401-1.341-.504-1.589c-.027-.067-.068-.056-.087-.034-.196.232-.376.434-.529.71-.067.12.084.206.319.294m.676 1.181l.391.952c.058.168.091.066.092.005.011-.167.008-.761.009-.815 0-.059-.052-.104-.106-.128-.095-.044-.21-.099-.345-.127-.045-.009-.084.022-.041.113m.013-2.914l-.591-.158c-.121-.043-.107.016-.067.086l.21.435c.02.04.049.084.081.061.131-.094.239-.193.375-.312.07-.061.017-.104-.008-.112m-.276.542c-.05.046-.035.121.012.235.022.055.453 1.448.486 1.515.037.108.083.19.069-.05l-.124-1.73c-.005-.067 0-.298-.074-.261-.056.024-.308.237-.369.291m.665-.413c-.076.01-.122-.051-.098.251l.116 1.84c.019.22.057.2.064-.092l.019-1.743c-.002-.056.047-.264-.101-.256M1.052-.901H.177c-.118 0-.091.096-.089.171L.09 1.3H.005l-.01-.398c0-.1-.627-.543-.893-.384-.122.073-.115.151-.125.254-.018.191-.101.358-.279.43-.252.103-.817-.192-.991-.417s-.172-1.914-.075-2.372c-.022-.007-.045-.008-.067-.004-.088.022-.162.16-.252.297-.008.012-.463.616-.483.648l-.5.752c-.159.233.038.25.286.34.211.076.317.189.524.19.268.002.182.092.109.088-.197.003-.249.119-.284.199l-.432.923c-.007.015-.091.157-.151.294l-.515 1.139c-.118.241-.235.467-.223.736a3.92 3.92 0 0 1-.002.395c-.338.094-.382.027-.621-.165-.125-.1-.386-.086-.466-.023.051-.152.232-.219.283-.236.236-.079.334.012.587.051.069.011.152.027.152-.027 0-.037.005-.088.001-.15-.027-.395-.15-.749-.281-1.121s-.319-.725-.489-1.082c-.043-.093-.076-.202-.144-.112-.11.145-.941 1.45-.982 1.641-.026.119.121.123.233.152.296.078.314.359.567.444.065.032.026.099-.105.082-.27-.035-.392.201-.498.37a8.07 8.07 0 0 0-.452.794c-.035.072-.027.176-.025.27l.011.231c-.12-.108-.335-.081-.454-.189-.172-.156-.155-.634-.565-.281.056-.073.102-.299.39-.295.149.002.265.037.382.212.079.118.171.129.129.037-.01-.02-.22-.567-.304-.758-.107-.241-.204-.499-.337-.677-.044-.06-.058-.104-.177-.132-.024-.007-.143-.009-.143-.041 0-.04.016-.021.107-.037.269-.047.125-.234-.077-.369l-.336-.283c-.177-.136-.274-.169-.411.001-.214.264-.386.582-.575.866-.17.254-.222.534-.213.849l-.005.523c-.265-.029-.405-.191-.549-.326-.166-.156-.228-.362-.467-.383.171-.143.423-.065.687.145.08.064.204.087.21-.097l.004-.234c.001-.07-.01-.14-.032-.206-.081-.247-.189-.456-.303-.725-.09-.209-.178-.467-.317-.576a.41.41 0 0 0-.228-.1c-.188-.013-.139-.095-.111-.095l.522-.145c.183-.054.31-.294.227-.434l-.055-.083A8.31 8.31 0 0 0-11.177.281c-.291-.19-1.156-.638-1.457-.813-.225-.131-.498-.369-.716-.369-.054 0-.105.073-.101.207l.021 1.994c-.197 0-.172-.201-.383-.227-.153-.019-.181-.071-.186-.122l-.021-.446c.042-.006.1.027.133.05.216.149.188.079.373.114l-.016-1.398c-.003-.059-.021-.172-.133-.172h-.703c-.052.004-.051-.091.05-.123.072-.019.166-.01.245-.016.088-.014.168-.057.227-.123.42-.45 1.246-1.198 1.425-1.343.116-.094.246-.193.377-.364l.601-.86.003-.002.006-.003.001.001c.221-.08.408-.227.616-.33l.995-.453c.282-.109.541-.185.835-.266l1.172-.287 1.069-.098a14.76 14.76 0 0 1 1.502.051c.412.036.822.121 1.228.204.269.055.535.13.792.224.238.087.454.189.684.298.218.104.6.355.81.474-.048.084-.194.113-.306.032-.23-.134-.273-.186-.647-.353-.342-.154-.667-.31-1.027-.399a15.13 15.13 0 0 0-1.633-.309c-.647-.055-1.297-.056-1.944-.001-.699.078-1.121.189-1.79.38-.286.072-.566.166-.838.282-.306.125-.655.305-.836.447-.26.204-.338.487-.324 1.095.003.164.068.234.158.209l.163-.049.623-.219a9.67 9.67 0 0 1 1.686-.456c.173-.031.395-.068.652-.082.003.066.024.11-.01.133-.04.026-.182.026-.176.134 0 .06.157.06.209.057.142-.005.236-.019.386-.035.049-.016.022-.26.015-.332l.678-.021c.083 0 .234.011.241-.071.007-.077-.009-.06-.346-.075-.038-.002-.034-.051.002-.05.074-.003.146-.024.211-.06.1-.1.08-.226.076-.38-.005-.243.139-.227.325-.234.392-.017.697.016.972.037.127.025.153.104.15.186l-1.028-.037c-.052.016-.04.046-.049.102s.043.054.206.059l.549.034c.158.004.203.054.201.132l-.985-.003c-.044-.001.005.179.093.179.72.003.754.082 1.108.102.087.005.263-.05.263-.21.001-.405.142-.374.26-.354.023.005.223-.014.186.26-.004.156-.085.35-.008.455.093.129.3.173.489.259.156.069.093.11.059.195-.043.105.015.177.11.21l.702.264.347.145c.223.098.228.214.365-.059.011-.021.015-.046.034-.109.109.07.272.12.279.188.03.283.212.468.373.666.156.191.34.439.617.458.093.007 1.785-.007 1.925.001.056.09.142.213.014.213" clip-path="url(#BW)" transform="matrix(.352778 0 0 -.352778 7.579 9.006)"/></svg>